<svg width="215" height="215" viewBox="0 0 215 215" fill="none" xmlns="http://www.w3.org/2000/svg">
<mask id="mask0_169_54" style="mask-type:luminance" maskUnits="userSpaceOnUse" x="59" y="23" width="99" height="103">
<path d="M59 23H157.599V125.512H59V23Z" fill="white"/>
</mask>
<g mask="url(#mask0_169_54)">
<path d="M156.691 25.3301C149.714 28.4422 144.793 29.7483 142.837 37.8834C141.831 39.1384 141.13 40.7966 139.673 41.7507C137.714 42.3527 136.51 44.4113 134.954 45.7174C133.248 47.2251 132.847 49.6358 132.345 51.7455C131.842 52.0949 131.893 52.6996 131.791 53.2021C131.291 53.9036 131.138 54.6561 131.089 55.4596C130.888 57.0668 131.141 58.776 130.186 60.2326C111.662 76.6533 126.671 75.1483 116.381 87.3011C109.555 94.1301 117.082 104.977 109.904 111.354C107.496 104.727 113.016 102.367 104.233 93.176C97.3049 86.6481 104.384 75.7986 98.0064 68.7198C94.8459 66.1586 90.8791 64.0489 88.7694 60.4315C87.2134 56.8168 89.0704 52.1459 86.9124 48.7301C84.5527 46.22 80.7876 46.0184 78.6295 43.2584C77.1756 41.3503 78.1269 38.6869 77.275 36.4778C74.6654 31.3044 69.1426 28.6437 63.9208 27.1871C62.4669 27.2866 59.9057 25.7305 59.1021 27.2866C59.2016 30.7534 60.7576 33.8656 61.5128 37.2303C62.1148 39.5926 63.6709 41.3986 65.579 42.8553C67.5866 45.016 63.0178 50.7914 66.8341 57.2683C69.4436 63.9468 76.372 64.4009 75.8184 66.258C75.4663 68.0667 74.1629 69.5233 74.0124 71.3804C73.5609 74.9951 76.673 78.2093 78.0275 81.4746C83.5987 86.4465 87.5654 81.7756 87.2644 93.0766C87.3639 102.867 99.6135 96.7423 102.223 103.821C103.93 108.694 103.177 114.268 106.942 118.285C108.149 119.691 111.662 124.915 108.197 124.915C102.024 124.915 95.8483 124.915 89.6751 124.915C97.3049 126.02 121.904 124.915 135.207 125.316C133.449 124.061 127.526 125.216 124.312 124.964C116.733 124.563 119.291 113.012 121.251 108.342C123.96 102.064 130.084 99.3035 128.528 91.5689C128.176 83.8853 137.464 82.2271 140.678 76.6533C142.183 73.439 143.339 70.0259 146.099 67.7146C146.099 66.4085 145.949 65.0029 146.551 63.7963C148.961 60.7836 151.369 57.7198 152.272 54.0057C153.63 51.7939 151.721 48.6307 153.527 46.6715C158.999 43.1079 155.083 36.1768 155.989 30.9523C156.339 29.9983 156.54 28.9448 156.54 27.9907C156.79 27.2866 158.698 24.8275 156.691 25.3301ZM110.157 24.5265C110.157 24.2739 110.307 23.8224 110.054 23.6719C109.856 23.8734 109.904 24.3249 110.157 24.5265Z" fill="#546C21"/>
</g>
<path d="M117.485 86.4466C123.207 80.3701 118.187 75.4977 122.205 68.5183C122.054 65.304 117.034 64.0489 116.832 60.7836C117.837 55.7634 119.544 49.4343 115.878 45.1155C115.327 43.9115 113.317 42.9064 113.871 41.3503C115.577 37.784 114.924 32.9626 111.61 30.5009C110.506 29.1948 111.412 22.0138 110.054 23.4704C106.641 27.6898 101.973 32.4601 103.027 38.3349C103.981 41.6513 99.1109 42.3044 99.3635 46.2201C98.861 49.1844 98.6594 52.5491 100.065 55.3603C100.468 57.521 102.274 59.2786 101.371 61.4878C101.118 62.1408 100.968 62.9444 100.817 63.5464C98.0063 69.4723 96.3508 66.1586 99.8634 72.5871C101.823 77.4569 100.116 82.5793 100.769 87.6022C102.675 94.7832 111.812 98.3495 108.799 107.64C108.45 108.995 109.052 110.803 109.904 111.809C110.707 110.352 112.215 109.446 112.817 107.839C114.825 100.709 110.858 92.0204 117.485 86.4466ZM153.127 63.8984C152.675 65.003 152.122 66.1586 151.471 67.2121C150.818 70.3269 149.762 73.7401 150.216 77.0564C151.017 80.5206 151.571 84.6379 150.063 87.9543C149.211 91.0153 146.65 93.125 145.597 96.0893C145.196 98.2984 145.347 100.709 145.597 102.969C146.752 111.908 143.288 110.854 139.673 117.331C139.071 120.194 138.117 123.257 135.607 125.268C133.398 125.617 130.135 124.714 128.429 125.617C128.429 128.882 127.123 130.489 127.526 126.071C127.625 123.961 122.102 126.673 120.998 124.512C119.845 121.852 118.99 122.303 117.335 120.546C116.128 119.592 115.929 128.882 115.478 128.783C113.218 128.13 116.932 117.885 117.534 115.826C118.138 114.821 116.682 114.719 116.281 113.967C115.075 112.612 112.817 109.247 115.327 108.191C117.636 107.89 118.638 110.854 118.689 112.763C118.74 112.66 118.74 112.462 118.74 112.26C118.939 110.352 120.898 108.14 119.643 106.334C118.337 104.275 115.376 100.408 117.133 98.199C120.095 97.3954 120.799 101.865 121.199 103.974C122.102 100.809 123.761 96.5919 124.161 94.0307C113.669 92.5741 124.11 76.6023 125.717 90.4644C126.319 87.0486 130.286 82.6787 128.98 79.5666C125.919 77.2553 122.205 68.5693 128.176 67.8141C131.842 67.8141 132.345 73.1381 131.49 75.4977C131.592 75.3472 131.691 75.0462 131.691 74.7452C133.196 70.2759 135.156 65.9571 137.064 61.6383C137.564 59.6791 134.804 56.9163 134.704 54.4062C134.804 52.5491 133.952 49.1333 136.36 48.4803C141.028 47.5773 140.074 54.9598 139.02 57.822C139.071 57.822 139.273 57.1689 139.321 56.9163C140.627 53.2022 143.839 49.5848 143.791 45.6181C143.288 43.9599 142.235 40.5468 144.492 39.7432C145.898 39.6411 146.451 41.3987 146.301 42.5543C146.349 42.8043 145.898 43.1079 146.451 43.2584C146.852 44.965 144.745 46.7226 144.342 48.4803C143.89 49.5338 143.538 50.641 142.837 51.544C144.29 49.5338 149.612 47.5262 150.063 51.1409C149.813 54.9088 145.145 56.3143 142.235 54.4573C141.732 54.1052 141.63 54.5056 141.53 54.8093C139.273 59.327 137.314 63.9979 135.204 68.5693C145.196 60.6331 144.995 75.9008 134.554 71.5309C133.299 71.8319 132.998 75.0462 132.293 76.2529C130.939 79.8165 129.885 83.5333 128.176 86.8981C128.829 85.643 130.487 85.1915 131.691 84.6889C133.398 82.8803 135.457 81.5258 137.615 80.2196C141.229 77.86 141.63 72.9876 144.191 69.7223C146.5 67.0106 149.413 65.1024 152.374 63.0438C152.877 62.4418 153.729 63.1433 153.127 63.8984ZM127.977 86.847C128.128 86.847 127.926 86.8981 127.977 86.847ZM124.261 97.6454C125.215 96.2398 128.327 97.0918 128.278 96.0383C128.98 82.6303 126.47 90.1634 124.212 97.4438C124.062 97.7959 123.86 98.0969 124.261 97.6454ZM125.819 101.11C124.814 101.413 123.258 99.5024 123.057 101.161C122.304 103.472 121.702 105.883 120.898 108.14C122.355 105.931 123.96 103.27 125.819 101.11ZM119.944 111.255C119.393 113.163 118.337 115.775 117.735 118.035C119.893 117.13 118.99 113.365 119.944 111.255ZM109.302 125.216C107.093 125.719 101.221 123.811 104.432 127.074C104.935 127.979 106.542 129.283 104.432 128.982C103.731 128.329 103.379 127.375 102.828 126.622C100.769 123.459 95.5983 126.119 92.3357 125.216C89.7235 125.316 86.9123 125.668 85.8078 122.755C84.3538 120.344 84.7543 117.533 84.4022 114.921C82.7467 109.849 76.7213 107.89 74.6143 103.069C72.4563 99.3519 76.2698 94.6838 74.1118 91.3674C71.3006 88.3036 70.6476 84.439 70.5992 80.5206C70.7981 76.6533 70.2982 72.9876 70.9996 69.1203C72.1042 64.1994 74.0607 71.0284 73.8108 72.6355C74.9153 75.0973 76.0199 77.5563 77.326 79.9186C80.637 86.847 88.1674 80.4696 87.4149 92.824C90.4276 92.523 93.6391 93.426 95.3968 96.0893C93.4403 92.0715 91.9326 85.7935 89.624 81.3242C85.0042 81.5741 78.5811 80.6711 76.9229 75.3983C77.6754 70.2248 85.5578 73.0386 87.3155 75.7503C85.0553 73.0386 85.3079 66.3091 81.0401 66.2581C79.8361 66.4086 78.831 65.906 77.877 65.2529C74.0607 61.5388 80.7875 61.0846 81.9942 64.1994C80.336 61.2351 79.132 57.8704 77.5249 54.8577C77.275 54.3551 77.1245 54.1052 76.5225 54.5056C75.5173 55.3092 74.2112 55.0082 73.0583 55.4597C63.3188 55.4597 69.1936 44.4114 75.6678 50.9904C74.0123 48.3808 72.6551 45.3654 71.0507 42.6054C70.2471 41.2993 68.64 41.5492 67.385 41.1998C65.7778 40.4957 63.4693 39.7432 63.0688 37.8351C62.6173 34.9702 66.3315 35.8248 67.4844 37.2304C65.6784 34.8708 64.3723 32.2101 62.1658 30.1999C64.0713 29.3479 65.8289 33.1131 66.834 34.6208C65.9283 31.7559 68.6911 28.8454 69.6451 32.2101C69.1426 38.1361 67.0329 35.2228 71.3517 41.1488C72.8056 42.9574 73.6603 45.1155 74.6654 47.1741C74.2623 46.2201 74.0123 45.2149 74.1628 44.1614C74.2112 37.2814 79.382 43.6589 76.1704 47.7278C75.6678 51.1919 79.382 54.9088 80.4865 58.2735C81.7926 43.6078 91.0296 54.9598 82.6956 61.9903C82.0936 64.1 85.9099 68.1151 86.4608 70.7274C88.67 60.9852 94.3916 70.3269 88.5705 74.0921C87.3155 75.5998 92.3357 82.6787 92.5856 85.2909C92.2846 80.5717 98.861 75.5998 98.1085 83.2323C97.5548 85.2399 96.5524 86.847 94.6443 87.7527C92.8356 89.8113 97.657 96.9413 98.0063 99.9566C99.7129 100.61 100.167 100.86 100.869 99.0026C101.522 97.5459 103.93 96.2882 104.534 98.4489C105.185 100.709 104.233 103.12 102.876 104.877C103.881 108.041 103.68 111.607 104.935 114.719C105.287 113.064 107.394 109.798 108.6 112.612C109.1 114.418 108.498 116.528 107.496 118.084C107.394 118.186 107.445 118.336 107.345 118.436C108.549 119.992 111.008 123.51 109.302 125.216ZM92.3357 99.3519C100.568 101.26 91.5321 93.8291 87.8153 93.4771C85.9099 96.3393 92.3841 92.523 92.3357 99.3519ZM153.729 37.1309C152.073 35.8759 147.153 38.8886 147.905 40.6462C149.362 42.7048 152.724 41.9013 153.729 39.8426C154.331 39.1385 154.885 37.6819 153.729 37.1309ZM154.283 38.7891C154.283 38.7381 154.283 38.7381 154.283 38.7891ZM151.872 36.9294C151.923 36.9294 151.923 36.9294 151.872 36.9294ZM150.367 34.9218C150.517 35.0213 150.767 35.3733 150.969 35.0723C151.068 35.0723 151.068 34.7713 151.168 34.7203C154.18 27.8403 146.951 27.8403 150.367 34.9218Z" fill="#546C21"/>
<path d="M73.1093 78.6124C74.1118 78.4108 72.1553 76.0001 73.3082 75.2476C73.4103 74.995 72.9561 74.8956 72.8567 75.1482C72.7573 75.2476 72.7573 75.5486 72.5046 75.2987C72.5046 74.8956 71.9537 75.0461 71.8543 75.3471C70.5992 75.4492 70.3976 77.3062 71.9026 76.4516C71.9026 77.2068 71.9537 78.9134 73.1093 78.6124ZM110.96 119.341C108.348 118.035 109.302 123.206 110.96 121.349C111.46 120.898 111.46 119.742 110.96 119.341ZM102.223 54.8576C103.078 54.2045 101.118 54.1051 101.573 54.656C101.772 54.7071 102.024 54.7071 102.223 54.8576ZM111.21 121.448C111.21 121.5 111.261 121.5 111.261 121.551C111.261 121.448 111.309 121.349 111.21 121.448ZM99.7129 93.1249L99.6645 93.0765C99.6645 93.1249 99.7129 93.1249 99.7129 93.1249ZM102.374 101.26C102.325 101.311 102.274 101.362 102.223 101.413C102.374 101.413 102.374 101.362 102.374 101.26ZM112.014 89.9106C112.062 90.0127 112.113 90.0611 112.215 90.1632C112.215 90.0127 112.113 89.9617 112.014 89.9106ZM125.317 107.538C125.317 107.49 125.266 107.538 125.317 107.538ZM109.503 118.135C109.654 118.487 110.256 119.239 110.355 118.436C110.205 118.084 109.353 117.232 109.603 116.979C110.307 116.326 108.7 116.127 109.1 115.324C109.202 114.92 108.799 114.52 109.001 114.066C109.052 113.966 108.95 113.867 108.901 113.867C108.047 113.364 109.001 113.112 107.646 113.313C107.243 113.063 107.896 112.811 107.595 112.51C107.445 112.109 106.843 112.158 106.843 111.607C106.692 111.354 106.289 111.607 106.692 111.405C107.746 109.798 106.542 110.451 105.588 110.653C105.185 110.602 103.779 110.854 104.384 111.505C104.884 111.808 104.282 111.556 104.083 111.757C104.233 113.262 104.534 116.025 106.19 117.03C107.496 119.992 107.394 116.678 107.445 117.533C107.947 118.135 108.248 117.834 107.797 117.232C108.348 117.482 108.901 117.783 109.503 118.135ZM149.864 66.309C149.762 66.4595 149.864 66.7094 149.864 66.8599C150.415 66.8116 150.517 66.1585 149.864 66.309ZM142.334 72.4338C142.536 72.3854 142.433 72.1328 142.283 72.1839C142.334 72.2833 142.334 72.4338 142.334 72.4338ZM77.9764 77.2552C78.0275 77.2552 78.0275 77.2068 78.0275 77.1557C77.928 77.1557 77.928 77.2068 77.9764 77.2552ZM90.6291 66.2579C90.6291 66.911 89.323 68.7197 90.828 67.9645C91.0296 67.513 91.129 67.6635 91.3816 67.7656C91.4811 67.5641 91.4811 67.5641 91.2311 67.5641C91.8331 67.2631 91.4811 66.7094 91.5805 66.2579C91.5805 65.6559 91.6826 66.6611 92.0347 66.8116C92.8356 67.3625 92.8356 65.9059 93.4886 65.7043C93.2387 65.5054 93.2387 65.7554 93.1366 65.9059C93.3892 65.0029 92.6851 65.0029 92.2336 64.4492C91.9326 63.5973 90.5781 63.7478 90.8791 64.7019C91.0806 65.2528 90.6775 65.7554 90.6291 66.2579ZM70.145 31.3554C69.4946 31.4064 70.0456 31.7074 70.3466 31.909C70.4487 31.5569 70.4487 31.5569 70.145 31.3554ZM104.333 128.079C103.228 128.229 103.529 128.783 104.432 128.882C104.685 128.38 105.287 127.829 104.333 128.079ZM96.6518 128.581C96.7029 128.581 96.6518 128.632 96.6518 128.581ZM140.477 45.8195C140.778 46.0694 141.028 45.5185 140.576 45.5185C140.224 45.5185 140.326 44.9138 139.974 44.9649C139.622 45.1154 139.974 46.1205 140.477 45.8195ZM76.5708 93.6274C77.0734 94.0306 77.025 93.3264 77.4765 93.2754C78.2774 93.1759 77.326 92.2729 77.4765 91.7704C76.9229 92.0714 76.4714 90.8647 76.071 91.6682C74.7648 92.8749 76.3209 92.3724 76.5708 93.6274ZM75.4663 92.5229C75.4663 92.5739 75.4663 92.5739 75.4663 92.5229ZM75.3668 92.6223L75.4179 92.5739C75.4179 92.5739 75.4179 92.5739 75.3668 92.6223ZM76.2215 99.2013C76.3209 99.3034 76.372 99.3034 76.4203 99.2013C76.3209 99.0508 76.2698 99.1019 76.2215 99.2013ZM97.3049 117.331C97.4554 117.232 97.6059 117.181 97.356 117.13C97.1544 117.081 97.0523 117.431 97.3049 117.331ZM82.2441 90.3648C82.0936 90.6658 82.4457 90.6658 82.4968 90.8647C82.3946 91.9209 83.0988 90.7652 83.5986 91.0662C83.6497 90.9668 83.7008 90.7652 83.5986 90.7652C83.0988 90.7652 82.5962 89.8112 82.2441 90.3648ZM89.9761 66.8116C89.925 66.8116 89.925 66.8599 89.925 66.911C90.0245 66.911 90.0245 66.8599 89.9761 66.8116ZM98.3584 120.997C98.3584 121.25 98.861 121.25 98.9604 121.099C98.912 120.795 98.4578 120.747 98.3584 120.997ZM98.0574 120.696C97.9069 120.645 97.8558 120.696 97.8075 120.795C97.958 120.846 98.0063 120.846 98.0574 120.696ZM73.8108 61.1356C73.7597 61.3855 74.0123 61.2861 74.1628 61.2861C74.1118 61.1356 73.9613 61.1356 73.8108 61.1356ZM86.2593 58.0207C86.4098 57.7197 85.9583 57.8702 85.9099 58.0718C86.0093 58.1739 86.1088 58.1229 86.2593 58.0207ZM86.5119 58.5744C86.5119 58.4239 86.4098 58.4239 86.3103 58.4749C86.3103 58.5233 86.4608 58.7249 86.5119 58.5744ZM69.543 47.6255C69.7446 47.475 69.9945 46.9241 69.7446 46.7736C69.3441 46.7736 69.242 47.4266 69.543 47.6255ZM87.8664 68.1661C87.5143 68.2171 87.6648 68.4671 87.8664 68.6176C88.369 68.9696 88.369 67.7146 87.8664 68.1661ZM98.6594 120.395C98.6594 120.395 98.7105 120.395 98.7105 120.446C98.7105 120.344 98.6594 120.344 98.6594 120.395ZM70.0966 46.5209C70.2982 46.0694 69.6451 46.0184 69.3925 46.3221C69.6451 46.4726 69.844 46.572 70.0966 46.5209ZM102.777 116.579C102.726 116.579 102.675 116.579 102.626 116.627C102.726 116.678 102.777 116.627 102.777 116.579ZM92.4862 126.571C92.5346 126.622 92.5856 126.721 92.6851 126.622C92.6367 126.522 92.5856 126.571 92.4862 126.571ZM77.2239 39.1894C77.2239 39.2405 77.2239 39.2405 77.2239 39.1894ZM74.5633 61.2861C74.6143 61.3371 74.6654 61.3855 74.7648 61.4876C74.7138 61.3855 74.6654 61.3371 74.5633 61.2861ZM94.7437 73.189C94.7437 73.189 94.6953 73.189 94.6953 73.1379C94.7437 73.2374 94.7437 73.2374 94.7437 73.189ZM125.717 105.78C129.834 103.821 124.865 103.171 125.618 104.576C126.271 105.229 125.416 105.178 125.717 105.78ZM125.215 107.288C125.016 107.288 124.814 107.288 124.613 107.288C124.814 107.589 125.467 107.589 125.215 107.288ZM124.513 106.836C124.564 106.987 124.715 106.836 124.715 106.785C124.664 106.785 124.564 106.785 124.513 106.836ZM124.763 106.785L124.814 106.734C124.763 106.734 124.763 106.734 124.763 106.785ZM115.225 104.426C115.126 104.375 115.026 104.426 115.026 104.525C114.873 104.977 115.779 104.625 115.225 104.426ZM136.561 58.3244C136.561 58.2734 136.561 58.1229 136.51 58.0718C136.309 58.1229 136.459 58.2734 136.561 58.3244ZM116.029 99.7039C116.029 99.7039 116.08 99.7039 116.08 99.7549C116.029 99.6528 116.029 99.6528 116.029 99.7039ZM144.694 61.8881C145.094 61.7886 144.745 61.5871 144.543 61.5387C144.29 61.7376 144.342 62.1407 144.694 61.8881ZM103.981 48.1281C103.93 48.0286 103.779 48.0797 103.83 48.1281C103.881 48.1791 103.981 48.1281 103.981 48.1281ZM111.863 90.4132L111.812 90.4642C111.911 90.4642 111.911 90.4642 111.863 90.4132ZM111.008 121.801C110.858 121.749 110.707 121.852 110.656 121.951C110.506 122.454 111.412 122.053 111.008 121.801ZM120.95 76.9542C120.799 76.8037 120.697 77.0563 120.748 77.2068C120.847 77.1557 120.898 77.0563 120.95 76.9542ZM120.697 77.2068C120.697 77.1557 120.697 77.1557 120.697 77.2068ZM106.843 105.479C106.692 105.329 106.641 105.53 106.641 105.63C106.741 105.63 106.792 105.53 106.843 105.479ZM140.576 111.456C140.678 111.354 140.477 111.255 140.477 111.405C140.426 111.556 140.477 111.556 140.576 111.456ZM140.477 111.556C140.477 111.607 140.375 111.607 140.477 111.556ZM140.375 111.658L140.426 111.607C140.375 111.607 140.375 111.607 140.375 111.658ZM143.941 103.773C143.89 103.773 143.839 103.722 143.941 103.773ZM122.403 116.377C122.403 116.477 122.403 116.528 122.403 116.627C122.605 116.579 122.506 116.477 122.403 116.377ZM87.165 90.5637C85.6573 84.5894 89.5246 88.7577 87.5654 85.8928C86.9123 85.4924 86.5119 84.9387 85.7083 85.5434C85.5578 85.6429 85.3563 85.5918 85.2058 85.4924C84.5043 84.6377 83.0988 84.6888 82.5451 83.5332C77.7265 83.1327 75.9688 79.2144 78.78 78.1609C79.7851 79.2144 80.9891 80.0179 82.4457 80.4694C84.2517 81.0741 86.1598 81.3751 88.068 81.3241C90.8791 79.1149 94.4938 94.9336 95.0958 95.4361C94.1928 92.9744 86.3103 92.6223 88.971 92.3213C88.971 91.8698 87.8664 92.0714 88.119 91.3189C88.2185 90.5637 87.3155 90.9668 87.165 90.5637ZM79.1831 79.0128C78.8821 79.1633 77.877 79.2654 78.6805 79.2144C78.8821 79.1633 79.0326 79.0639 79.1831 79.0128ZM68.5406 53.8041C68.1885 52.7479 66.9335 52.7479 67.9386 53.753C68.1375 54.5566 69.5941 54.656 68.5406 53.8041ZM84.2033 86.5459C83.8002 85.8928 82.6956 86.4464 83.2493 87.0001C83.7491 88.2041 83.1471 91.9209 84.7543 91.9209C85.6089 91.6199 83.4992 88.8061 84.8537 88.9082C86.4098 88.7066 83.4992 87.9031 84.2033 86.5459ZM79.734 88.1046C80.3871 86.3954 80.8386 86.949 79.0326 85.5918C79.2825 85.3929 79.7851 85.0892 79.3336 84.6888C78.3795 83.5332 76.8235 86.1454 76.8718 84.6888C75.77 84.0357 78.178 87.6021 78.479 88.4056C79.683 90.7142 79.4841 90.0611 79.734 88.1046ZM85.6573 57.3193C85.6089 57.5209 85.4584 57.9213 85.4584 58.0207C85.7083 57.7708 85.8078 57.5692 85.6573 57.3193ZM75.5684 82.8317C75.6168 82.8801 75.5173 82.6786 75.4663 82.6302C75.4663 82.7296 75.5173 82.7807 75.5684 82.8317ZM98.6594 124.864C97.6059 123.859 94.6443 126.119 92.5346 125.316C91.5805 125.517 88.971 122.857 89.022 124.01C89.7235 124.915 91.0296 124.413 91.6316 125.367C93.1876 125.668 92.3841 128.732 94.9453 126.721C95.0958 127.477 93.4403 128.783 94.7437 128.732C95.4478 129.084 96.1493 128.13 96.7029 128.581C96.8534 125.568 101.772 129.586 98.6594 124.864ZM74.0123 79.7169C74.1628 80.069 74.3644 80.4694 74.5149 80.8215C74.9153 80.0179 74.5633 77.9593 74.0123 79.7169ZM88.2185 93.6274C88.2695 93.6274 88.3179 93.6274 88.369 93.6274C88.3179 93.6274 88.2185 93.528 88.2185 93.6274ZM100.516 110.854C100.417 109.798 101.922 110.051 101.772 109.196C101.118 108.895 101.672 107.89 100.869 107.791C100.417 107.739 100.417 107.387 100.318 107.086C99.815 106.785 96.6518 105.028 98.5089 105.931C98.912 105.78 99.4119 106.183 99.764 106.433C102.524 108.04 101.118 104.375 99.3125 104.224C98.5089 103.923 97.657 104.275 96.9018 103.974C96.6008 103.773 96.2998 103.321 95.8483 103.472C95.2973 104.023 96.3508 104.224 96.2514 104.775C95.3968 105.579 94.5932 106.433 94.5421 104.877C94.6443 104.525 95.5983 104.474 94.8942 103.872C94.8942 103.622 95.1468 103.219 94.7948 103.12C93.9401 103.12 93.8918 102.416 93.5397 101.814C92.9861 100.456 95.5983 99.9565 94.5421 98.5482C94.1417 97.4947 92.6851 96.7422 92.7872 98.3977C91.9836 96.5917 94.5421 97.4947 94.9453 98.4999C98.4095 101.26 91.43 93.4259 88.721 93.7269C87.3638 94.2805 87.6165 93.528 87.5654 95.2856C93.3381 92.5229 93.8918 103.622 89.1215 104.977C90.9785 107.538 93.1366 112.058 95.0958 113.415C93.0882 106.936 99.9655 102.617 100.516 110.854ZM86.6113 96.2881C85.5578 95.9387 85.0042 95.6861 85.4584 97.0432C84.9558 96.5917 85.4584 95.4872 85.5578 94.8341C87.2133 93.7779 84.7543 90.9668 84.5527 93.8801C82.0936 95.8876 85.0553 98.5993 86.563 101.311C87.1139 101.061 86.5119 100.155 86.6113 99.6528C86.3103 98.5482 87.2133 96.8417 86.6113 96.2881ZM104.483 124.714C104.835 125.466 104.282 125.418 103.68 125.517C103.078 125.617 103.881 125.066 103.731 124.714C102.726 125.869 101.621 122.706 101.019 122.053C103.078 122.755 100.417 121.701 100.267 120.949C99.9145 120.344 98.0574 118.234 99.2614 119.089C98.9604 117.533 102.024 118.186 101.019 119.992C102.175 119.14 101.573 118.035 100.366 117.734C94.2411 116.88 98.4095 115.474 100.014 112.811C100.619 114.719 102.524 113.313 102.425 116.176C102.476 117.632 101.221 115.625 101.823 116.579C102.124 117.13 102.828 116.528 103.228 117.03C103.078 118.285 104.032 117.632 105.136 119.793C106.09 121.048 104.182 120.696 103.529 121.147C103.881 121.749 104.384 122.454 105.136 122.505C105.94 123.107 105.537 124.864 104.483 124.714ZM99.7129 119.642C99.815 119.691 99.9145 119.691 100.065 119.691C100.116 119.492 99.815 119.642 99.7129 119.642ZM104.384 124.714C104.182 124.614 103.93 124.614 103.731 124.714C103.981 124.864 104.182 124.714 104.384 124.714ZM82.6473 94.6836C84.6548 93.5764 82.9483 93.8801 82.6956 93.0765C82.5962 92.2219 81.9942 92.6734 81.4916 92.8749C81.7926 93.528 82.2952 94.0306 82.6473 94.6836ZM102.124 127.627C101.723 127.829 102.223 127.928 102.175 128.079C102.476 128.783 101.32 129.183 101.269 128.53C101.32 127.374 98.6594 127.025 100.215 126.071C99.4119 124.563 102.425 125.617 100.065 123.859C101.471 125.466 97.4043 124.413 99.764 123.609C100.869 122.706 102.073 126.071 102.876 126.772C103.478 127.726 102.024 126.471 102.124 127.627ZM100.014 123.66C99.9655 123.66 99.9145 123.66 100.014 123.66ZM100.014 123.76C100.116 123.859 100.065 123.811 100.014 123.76ZM74.7138 73.1379C74.7648 72.1839 73.7597 71.5308 74.1628 70.5257C74.2112 70.1763 74.3133 69.7221 74.8643 70.1252C75.4663 69.0207 75.2674 67.212 75.7189 65.9569C75.1653 64.5997 72.8567 63.7478 72.7573 61.8397C73.1093 59.8294 74.8159 63.1431 74.8159 62.7427C74.6654 61.7886 75.77 61.8397 75.77 62.6916C81.7416 71.0282 81.4916 59.6279 87.0145 75.2476C86.864 73.0385 75.4663 72.6354 79.7851 70.2247C79.6346 69.4211 78.78 68.7681 77.928 68.8702C77.7775 69.3217 77.5249 70.5257 78.0785 69.4211C78.5811 68.1661 80.1371 71.3803 76.8718 71.0793C77.0734 71.0282 77.4255 69.9747 77.275 69.8726C75.0148 66.8116 76.974 72.6354 76.2698 73.5894C75.5173 74.4951 73.9102 75.0971 74.7138 73.1379ZM77.5249 68.3676C77.877 68.7681 78.229 68.6176 77.9764 68.0666C77.3744 66.911 77.6754 67.4136 77.5249 68.3676ZM85.6573 62.0896C86.2109 62.9926 83.3998 63.3447 85.3563 64.7502C86.8129 63.4468 85.2058 62.0386 86.1088 61.5871C87.8664 60.8346 86.1598 64.7502 87.3638 64.5997C86.7135 64.2987 87.3638 63.8983 87.4149 64.5997C87.8664 64.5003 90.527 64.8013 89.272 65.4033C87.8664 65.6049 88.7694 65.5054 88.1674 66.5589C87.5143 67.5641 87.7159 66.008 87.165 67.9645C86.3103 68.3166 85.3563 68.3166 86.2109 69.4211C87.1139 67.3625 86.7618 69.6227 86.3614 70.6762C85.7594 68.0666 81.9431 64.0488 82.5962 61.9391C84.3538 60.0821 83.7008 62.7937 85.6573 62.0896ZM85.4073 64.8524C85.4073 64.9518 85.5068 65.0029 85.5068 65.0539C85.5578 64.9518 85.5068 64.9034 85.4073 64.8524ZM85.3563 58.3244C85.2568 58.2734 85.2568 58.4239 85.2058 58.5233C85.3079 58.4749 85.3563 58.4749 85.3563 58.3244ZM80.7391 86.648C81.0912 86.2449 82.4968 86.648 82.1447 86.1454C81.9942 85.7934 81.9431 85.1403 81.4406 85.2397C80.7875 85.3929 81.2901 86.347 80.7391 86.648ZM65.7778 32.8631C66.783 34.7201 66.8824 34.4191 66.6325 32.7609C65.7778 34.1181 65.88 30.6029 65.3263 30.7534C61.7627 29.6972 64.9259 30.9522 65.7778 32.8631ZM63.1683 32.1589C63.4693 32.4089 63.1172 33.2124 63.8724 33.113C64.6249 32.21 63.3698 31.5569 62.7168 31.0033C62.4158 30.7534 63.1172 31.8579 63.1683 32.1589ZM66.533 32.21C66.5814 33.0619 67.135 31.0544 67.436 30.8017C66.1299 29.7993 66.533 31.4548 66.533 32.21ZM75.5684 87.4005C75.6678 87.551 76.673 87.551 76.2698 87.6021C74.4638 88.3035 77.4765 88.8061 76.5708 90.0611C76.0199 91.1657 77.576 91.0662 77.6754 91.7704C77.627 92.6223 78.6805 92.0714 78.8821 92.6223C77.7775 91.9692 78.5811 94.2294 77.5249 93.9284C76.4203 93.7779 76.4203 94.6326 77.025 95.2346C76.9229 94.8825 77.2239 94.6836 77.5249 94.5815C81.6932 93.7269 82.0936 96.4412 78.831 91.2167C76.974 88.2041 75.3668 85.0892 73.9102 81.9261C74.3133 82.6786 71.4511 81.0231 72.5557 82.7807C74.6143 84.7882 73.1577 83.6837 73.4103 85.9439C72.8056 86.5459 73.7597 87.4005 74.3133 86.7474C74.4128 85.8928 75.3158 87.1989 75.5684 87.4005ZM69.1426 35.0722C69.543 35.0211 70.5992 35.1716 70.3976 34.5186C70.3466 33.8171 68.4895 31.909 70.3466 32.21C71.3517 32.6104 71.4511 34.4191 71.9537 33.8171C72.1553 33.6666 71.9026 33.2124 72.3058 33.2635C73.3082 32.9625 72.2547 34.4702 72.6068 34.9217C73.1577 35.7736 74.7138 35.2737 74.9664 36.0773C72.9588 39.09 76.0199 37.1819 76.8718 38.789C76.8235 39.1894 76.2215 38.8884 76.673 39.1894C77.025 40.3961 75.0658 39.0389 74.5149 39.993C73.6092 41.1486 74.0607 45.2659 74.4128 46.7736C74.3644 46.7736 72.4563 42.3042 71.3006 41.0976C70.2471 39.1894 67.385 37.1819 69.1426 35.0722ZM71.6016 38.1843C73.2598 38.1359 73.9613 37.8349 73.8618 35.9752C73.4587 36.3783 73.4587 37.1819 72.6551 36.8782C71.1501 36.3783 71.8543 37.2302 71.6016 38.1843ZM71.6016 38.2354C70.9996 38.7379 71.0507 37.6817 70.5992 37.8349C69.9945 38.2864 71.3006 38.789 71.6016 38.2354ZM65.3263 35.9241C66.0788 36.2278 66.8824 36.6282 67.436 37.2302C65.88 36.1257 64.5738 30.5007 63.4182 34.1181C63.3698 34.3681 63.6198 35.3732 63.0688 34.8196C61.9132 33.8655 62.6173 35.6231 62.1658 36.1257C62.8162 37.4318 63.6708 35.4726 65.3263 35.9241ZM67.2855 41.5491C66.834 41.4496 66.482 41.3986 66.3825 40.7966C71.9537 40.9981 72.7062 46.7225 75.4663 50.6892C74.8159 50.0872 70.145 47.3756 68.3901 50.2888C67.1834 47.9776 71.5022 47.8781 70.0966 45.8679C70.3976 45.2148 69.8951 46.0694 69.6451 45.5669C69.7446 44.9138 69.1936 44.9138 69.3441 45.1154C69.242 45.8195 68.0891 44.8144 68.0891 44.4112C67.987 43.9597 68.89 43.2072 68.288 43.0057C67.7881 42.8041 67.5865 41.8501 67.2855 41.5491ZM70.2982 45.5185C70.3466 45.4674 70.4487 45.4164 70.2982 45.4674C70.2471 45.5185 70.2982 45.5185 70.2982 45.5185ZM82.5962 103.821C85.0042 103.773 87.3638 105.329 88.8715 106.785C86.6113 104.426 85.4584 100.558 83.0477 98.6987C80.035 99.806 75.5173 95.0841 76.4203 98.2472C77.025 98.8009 77.6754 99.3034 77.928 100.206C78.0275 101.061 78.831 99.9565 78.4306 99.7039C80.0861 100.507 76.0199 100.658 76.4203 102.316C76.4714 103.018 78.229 102.467 78.9305 103.069C74.9664 101.814 77.7775 104.676 80.1371 104.525C80.7875 103.773 81.7416 103.923 82.5962 103.821ZM71.7038 61.3855C72.1553 58.7249 73.2598 62.0896 74.1628 60.633C74.3644 59.5795 74.0123 59.2785 73.4587 59.6279C74.1118 59.4774 73.8108 58.9775 73.9102 58.5233C74.2623 58.9775 74.0123 59.5284 74.2112 60.031C74.2623 60.3831 76.8235 62.9926 76.5708 61.7376C76.5708 61.6892 76.5708 61.6892 76.5225 61.6892C76.4203 61.6892 76.5708 61.5387 76.5708 61.6892C76.974 62.2912 76.372 63.3957 76.8718 63.7962C76.372 62.2912 77.877 61.7376 79.382 62.1407C81.9431 62.8421 82.2952 65.4033 80.7875 61.8397C79.8361 60.4314 78.1269 53.9546 76.4714 54.4571C75.2163 55.6611 68.89 54.8576 72.4563 57.0667C71.5506 57.4698 70.9002 58.0207 70.145 58.6738C69.5941 59.1764 70.6476 59.5795 70.5992 60.2326C70.1961 60.8856 70.9486 62.1407 71.7038 61.3855ZM65.7295 40.6971C65.3774 40.9471 65.2269 40.294 65.4768 40.3451C65.2269 40.1435 64.6733 40.6461 64.8238 41.1997C65.1275 41.6001 66.6835 40.595 65.7295 40.6971ZM96.2998 118.387C97.657 117.834 95.3457 117.232 94.9963 116.678C95.7972 116.127 91.2795 109.648 89.925 110.301C88.8205 110.954 85.5578 109.597 85.7083 110.752C85.8588 111.255 86.1598 111.959 85.4584 112.26C85.0042 113.012 86.1088 113.966 85.2058 114.619C84.8053 114.972 85.0042 115.222 85.3563 115.474C85.7594 115.977 85.3563 116.979 86.3614 117.181C87.5654 122.755 88.971 115.071 96.2998 118.387ZM104.483 97.6452C103.881 97.3953 104.534 99.1529 104.784 99.0508C105.185 98.6504 104.733 97.8952 104.483 97.6452ZM79.3336 45.5669C79.2825 45.3653 79.2315 45.4674 79.1831 45.5669C78.6295 45.5669 78.2774 45.0159 77.7775 44.8144C77.877 45.2659 77.928 45.4164 77.275 45.3169C75.8694 41.4496 80.5376 44.7149 81.9431 45.9189C82.0426 46.271 81.8437 46.572 81.5427 46.7225C81.9431 46.5209 82.0426 46.873 82.1447 47.174C81.0401 48.5796 82.7978 48.7811 83.2976 49.6868C83.5986 50.0872 83.1982 50.0362 82.9966 50.2377C82.4457 50.6892 82.0426 49.8373 81.5427 50.0362C81.8437 50.4393 81.9942 50.9902 82.6956 50.8908C83.5503 51.3423 81.5911 52.3985 81.9431 51.9443C81.4916 51.9954 81.1906 51.0924 80.7391 51.8449C79.8361 52.248 81.4916 53.0999 81.0912 53.7019C80.5376 55.2096 80.3871 56.7657 80.336 58.2223C79.1831 54.5055 72.9078 48.0286 77.8259 45.6179C78.229 44.7149 79.8361 46.6714 79.3336 45.5669ZM81.0912 50.0872C81.0401 50.0872 80.938 50.1383 81.0401 50.1867C81.0401 50.1867 81.0912 50.1383 81.0912 50.0872ZM79.6346 46.0184C80.2876 46.1205 80.9891 47.0235 81.5427 46.7736C80.938 46.4215 80.336 46.0694 79.6346 46.0184ZM97.0039 85.5918C97.1033 86.2449 98.4578 87.6504 97.657 87.9541C98.4578 88.1046 97.8075 89.7601 98.7615 89.3086C99.1109 88.8571 99.2614 89.7601 99.514 89.3597C99.815 88.8061 100.417 89.4081 100.516 89.8112C100.366 90.2627 99.7129 90.3137 99.514 90.8163C104.233 90.9668 96.9528 93.9795 98.7105 94.5304C99.213 95.1835 100.167 95.1351 99.764 96.0892C99.9145 96.7906 101.221 97.0916 101.723 96.9411C101.471 95.3851 103.078 95.2856 102.876 96.8927C97.0039 106.081 96.8534 94.5304 94.0906 89.2092C93.3892 87.3011 96.5524 87.1506 97.0039 85.5918ZM100.065 99.4539C100.267 99.1019 99.1109 96.8927 98.861 98.0484C99.1109 98.4488 99.7129 98.8519 100.065 99.4539ZM106.491 105.681C107.294 104.023 106.34 103.421 105.287 104.977C105.136 105.229 105.136 105.681 104.685 105.53C104.884 105.329 105.287 105.178 105.136 104.778C104.534 104.023 105.537 102.316 104.733 101.814C102.726 104.525 102.024 104.826 103.981 108.895C103.629 109.798 104.784 109.798 105.236 109.699C105.136 108.844 105.588 109.597 106.19 108.444C106.993 105.53 104.835 107.989 106.491 105.681ZM87.9175 121.951C87.767 121.852 87.7159 121.448 87.6165 121.801C87.5654 122.102 88.3179 122.403 87.9175 121.951ZM83.4992 95.6377C83.4481 95.4361 83.2976 95.3851 83.1471 95.334C82.9966 95.3851 83.4481 96.2881 83.4992 95.6377ZM83.6497 109.849C82.6473 109.347 82.0936 108.895 83.0477 110.051C83.9023 110.451 85.3079 110.352 83.6497 109.849ZM83.8002 60.7351C84.1012 60.9851 84.6038 61.235 84.6038 60.633C85.2058 59.8805 86.864 61.7376 87.7159 61.9902C88.7694 61.8881 87.466 62.3906 87.7159 62.8421C87.7159 63.0437 88.0169 63.1431 87.8664 63.4952C87.3155 65.0029 90.7286 63.8983 90.226 62.7937C87.0628 59.0769 87.9685 60.5819 87.5143 55.3601C87.5143 55.1586 87.5143 54.9597 87.6648 54.7581C88.721 53.8524 87.1139 53.5514 87.7159 53.0516C88.2695 52.1969 88.1674 50.8908 87.4149 50.0362C86.563 49.6357 85.9583 50.9419 85.0042 50.9902C84.9048 51.0413 84.6548 51.2429 84.7543 51.2912C86.6113 52.4469 86.0093 55.2096 85.7594 57.0183C87.2133 56.8678 86.4608 59.0259 86.8129 59.8294C84.6548 58.4239 85.6089 58.3728 83.8002 60.7351ZM93.1876 74.4441C92.3841 74.2936 92.9861 70.9799 91.3306 70.6762C90.7286 70.1763 90.2771 73.4389 88.5195 73.9926C87.3155 75.4492 91.1801 80.37 91.5321 82.5281C93.2387 87.6504 92.1852 81.7245 94.5932 79.9669C94.1928 78.7629 94.2922 77.4057 93.8918 76.3011C94.2922 76.0001 95.6467 76.9058 95.2463 75.6991C95.2973 73.4389 96.8534 72.1328 93.1876 74.4441ZM129.934 103.821C129.985 103.219 130.587 103.12 130.888 102.717C131.038 101.311 128.931 101.814 128.63 102.717C128.73 103.27 129.633 102.819 129.383 103.52C125.467 101.461 128.429 106.132 129.934 103.821ZM130.788 103.27C130.939 102.969 131.24 102.867 131.541 102.867C130.436 102.367 131.49 101.564 132.293 101.612C131.842 101.513 129.783 101.413 130.686 100.408C131.141 100.456 131.39 100.959 131.941 100.808C131.64 100.859 131.089 100.507 131.541 99.7549C131.791 98.8519 132.796 99.6528 133.347 99.2524C133.549 98.3977 132.847 99.0508 132.393 99.1529C132.092 97.8952 131.339 98.6987 130.487 98.4999C130.487 97.8952 130.536 97.3953 130.084 96.7906C129.684 96.1376 129.732 95.8876 130.337 95.334C130.587 95.0841 130.587 94.5304 131.089 94.9336C131.291 95.1351 131.743 94.9846 131.941 95.1351C133.097 97.5942 136.561 99.4029 134.452 102.316C133.196 103.722 131.541 112.209 131.442 108.745C130.888 104.826 129.431 107.086 130.788 103.27ZM131.893 96.7422C131.992 96.5917 132.143 96.4896 132.143 96.2881C132.393 95.8366 131.541 96.5917 131.893 96.7422ZM133.046 97.7957C132.998 97.8468 132.998 97.8468 133.046 97.8468V97.7957ZM146.15 89.5102C146.15 89.0076 145.395 90.0611 144.995 90.1632C146.048 92.5739 145.997 91.2678 146.15 89.5102ZM149.362 71.0793C146.048 73.8904 145.648 80.9209 143.086 84.7399C147.053 80.2706 149.461 88.153 149.311 80.9209C149.061 80.972 148.961 81.273 148.658 81.2246C148.257 81.1225 148.257 82.0766 147.857 81.5256C147.604 81.273 147.905 80.8215 147.604 80.6199C147.153 80.37 147.706 79.4159 148.007 79.5664C148.459 79.8164 148.056 81.4746 148.961 80.1684C149.813 79.7169 148.859 77.1047 148.158 78.4619C146.25 78.7118 148.056 76.8037 147.655 76.2527C147.604 75.7502 148.91 74.4951 147.857 74.092C148.206 73.9926 148.257 74.5435 148.609 74.4441C149.112 74.393 148.459 73.8421 148.76 73.49C149.112 73.0385 148.558 72.8369 148.709 72.3344C148.811 72.1328 149.512 72.5359 149.262 72.0844C148.811 71.5819 150.265 71.3803 149.362 71.0793ZM142.635 79.8164C142.536 79.3649 142.433 78.9134 142.433 78.4108C142.433 78.9134 141.831 79.7169 142.635 79.8164ZM124.763 108.844C125.064 107.438 123.659 107.438 124.462 108.642C124.564 108.844 124.664 108.844 124.763 108.844ZM131.39 94.1811C131.442 94.13 131.339 93.7779 131.24 93.829C131.189 93.9795 131.24 94.13 131.39 94.1811ZM131.893 87.3494C131.992 87.0995 132.143 86.949 132.444 86.949C132.998 86.8469 132.998 86.0944 133.6 85.9949C134.352 85.8444 134.352 84.4872 135.156 84.7399C136.059 84.8393 136.913 84.0357 137.714 83.6837C137.163 83.0306 137.865 82.6302 138.117 82.1276C138.117 81.2246 140.025 81.8266 140.477 81.4235C141.028 81.1225 141.178 80.5716 141.28 79.9669C141.831 79.4159 142.734 79.7169 142.385 80.5205C142.635 80.7221 143.035 80.7221 143.035 81.1225C142.837 81.4746 143.49 81.6761 143.186 82.0282C133.497 104.676 141.78 89.7117 131.893 87.3494ZM139.875 82.4797C138.268 81.3241 138.87 83.7347 140.176 82.9312C140.326 82.5791 140.074 82.5791 139.875 82.4797ZM138.62 116.678C138.819 116.729 138.719 116.579 138.62 116.477C138.62 116.579 138.62 116.627 138.62 116.678ZM143.64 103.12C142.183 102.566 143.035 104.324 142.635 105.127C142.536 105.579 141.78 106.232 142.686 106.232C142.837 105.681 143.589 105.38 143.387 104.727C142.885 104.074 144.29 103.722 143.64 103.12ZM136.51 122.303C133.449 123.107 136.11 121.147 134.903 121.599C133.798 122.252 130.837 122.505 129.934 121.599C128.829 121.448 128.63 125.216 128.378 126.221C128.98 126.622 130.436 126.823 130.788 126.17C130.737 125.367 131.691 127.073 133.648 124.813C132.998 125.367 133.196 126.119 134 125.517C133.299 124.061 135.809 124.864 136.561 124.211C137.314 123.66 138.168 121.951 136.51 122.303ZM139.824 110.4C139.12 112.007 140.576 111.556 140.224 112.461C140.477 113.012 140.877 114.017 139.974 114.017C140.275 115.122 139.372 114.972 138.62 115.372C136.661 113.214 132.194 114.469 130.536 117.482C132.594 114.719 131.893 105.53 135.959 108.293C138.367 108.844 140.224 107.035 141.882 108.943C142.885 110.25 139.523 109.046 139.824 110.4ZM137.365 111.255C137.163 111.255 137.163 111.456 137.314 111.556C137.314 111.456 137.314 111.354 137.365 111.255ZM138.168 110.954C138.018 110.903 137.714 111.255 137.967 111.255C138.018 111.104 138.066 111.005 138.168 110.954ZM138.217 111.658C138.117 111.857 138.018 111.908 138.268 111.808C138.518 111.757 138.367 111.658 138.217 111.658ZM139.273 112.058C138.921 112.41 138.819 113.012 139.372 113.214C139.222 112.862 139.574 112.359 139.273 112.058ZM143.941 93.9795C143.839 94.2294 143.989 94.2805 144.14 94.3799C144.191 94.8341 143.688 94.732 143.538 94.9846C143.035 96.0381 144.393 95.2856 143.49 97.3953C143.387 97.8952 143.035 97.7447 142.686 97.8468C143.288 98.5993 141.479 98.6987 142.484 99.2013C144.895 98.5482 143.288 101.663 141.732 100.859C144.14 103.773 139.222 98.2472 135.207 103.622C138.418 99.6044 138.418 87.6021 144.543 91.5177C144.643 91.8698 144.242 91.9209 143.989 91.9692C143.49 92.1224 144.342 92.6734 144.543 92.3213C145.949 92.3724 143.941 93.4769 143.941 93.9795ZM140.928 100.155C140.877 100.206 141.13 100.155 141.229 100.257C141.78 101.413 141.431 100.056 140.928 100.155ZM144.844 90.2627C144.492 90.6147 142.837 90.7652 143.791 91.1173C144.393 91.3189 145.395 90.9668 144.844 90.2627ZM147.102 70.3752C145.696 70.1252 146.451 71.9339 147.252 72.2349C147.857 71.1787 148.357 70.8777 147.102 70.3752ZM145.347 73.189C145.145 73.3395 144.793 73.6405 144.944 73.8904C145.196 74.4951 144.342 75.0971 145.296 75.4976C144.995 76.0512 144.591 76.5027 144.745 77.1557C144.543 77.7094 144.342 77.0052 144.492 78.0104C145.094 76.3011 147.252 73.5894 146.65 72.0844C145.747 71.0282 146.25 73.0869 145.347 73.189ZM127.475 126.119C126.771 125.818 124.513 128.027 125.365 125.568C125.717 125.568 125.317 125.216 125.266 125.015C125.768 124.512 125.97 123.76 126.572 123.308C126.169 123.107 125.819 123.859 125.416 123.558C124.664 122.806 125.317 123.158 125.115 122.354C124.914 121.801 123.761 121.25 123.258 121.25C122.906 120.949 123.159 120.344 122.656 120.094C121.853 119.492 123.258 119.492 123.61 119.691C124.312 120.344 124.965 120.997 125.618 121.701C125.266 120.898 127.174 121.199 125.618 120.597C125.618 120.244 125.016 120.446 124.865 120.645C123.71 120.597 123.86 118.737 123.309 118.538C122.855 118.788 122.304 118.234 122.403 117.834C122.554 117.533 123.358 117.984 122.855 117.431C122.656 116.78 124.664 116.076 124.715 116.88C124.814 116.829 124.763 116.729 124.763 116.678C124.312 115.875 123.057 116.127 123.508 114.37C123.71 114.117 123.61 114.066 123.358 114.066C122.554 114.77 121.702 113.966 122.656 113.262C123.057 112.461 124.312 112.862 124.462 111.959C123.659 112.26 124.161 111.204 123.911 111.155C123.159 110.854 123.61 110.25 124.062 110.099C123.508 110.051 123.96 109.597 124.11 110.099C124.462 110 124.613 109.648 124.914 109.497C125.166 110.4 127.625 112.762 125.317 112.109C126.22 113.614 127.225 112.109 128.176 113.415C128.679 114.219 130.436 114.52 130.036 115.724C129.431 117.533 129.031 119.492 128.579 121.25C128.026 122.755 127.776 124.413 127.475 126.119ZM124.613 111.908C124.865 111.808 125.064 112.109 125.317 112.058C125.516 112.109 124.715 111.607 124.613 111.908ZM125.666 121.752C125.717 121.801 125.768 121.903 125.868 121.951C125.919 121.801 125.717 121.852 125.666 121.752ZM121.148 103.872C121.299 97.8468 113.922 94.8825 117.585 102.918C117.133 103.321 116.781 102.918 116.733 102.467C117.585 99.6044 115.779 102.367 115.075 100.709C113.922 99.7549 116.179 100.507 116.08 99.7549C116.281 99.2524 115.929 99.3518 115.628 99.4029C113.167 99.9054 113.72 97.8952 115.978 97.9973C117.687 96.7422 113.669 94.8341 113.269 93.9284C113.669 92.7728 114.172 91.7193 114.524 90.3648C115.327 89.9617 117.434 91.5177 115.929 91.7193C116.883 91.9692 118.087 93.1249 117.988 91.6199C117.383 90.0127 118.138 89.0076 119.544 90.0611C120.498 93.7269 122.506 93.4259 124.062 94.2805C123.057 97.3953 122.253 100.658 121.148 103.872ZM117.786 92.8239C118.539 96.1886 115.929 92.6734 114.271 93.227C114.572 94.0789 115.276 93.3264 115.728 93.829C115.978 94.13 115.677 94.2294 115.978 94.3316C116.682 94.1811 118.036 94.9336 118.337 94.0789C118.939 93.2754 117.534 93.7779 117.786 92.8239ZM143.439 69.9237C142.433 68.9186 142.183 69.6227 141.53 70.5767C142.084 71.3292 143.237 70.5257 143.439 69.9237ZM127.977 86.7985C128.128 86.8469 127.926 86.8979 127.977 86.7985C127.977 86.8469 127.977 86.8469 127.977 86.7985ZM141.732 71.4314C142.334 71.1787 141.831 70.7783 141.431 70.7272C139.875 72.6864 136.459 72.4338 134.352 71.4314C131.339 75.3981 130.638 82.2271 128.026 86.7985C129.031 84.4872 133.497 85.3419 132.345 82.5281C132.293 82.2271 131.941 81.3241 132.546 81.9261C133.398 85.9439 142.785 76.2527 141.229 74.6456C140.525 74.2936 141.28 74.0409 141.329 73.7399C141.431 73.0385 140.678 72.1328 140.275 73.1379C140.627 73.8421 139.372 72.9874 140.326 72.8369C141.229 72.2349 142.084 73.5894 142.433 71.9823C142.484 71.2298 141.53 71.5819 141.13 71.5819C140.727 71.4314 141.581 71.5819 141.732 71.4314ZM139.673 51.2429C139.724 53.4009 139.773 55.9137 138.969 57.7708C140.678 52.5974 145.196 48.0797 143.035 42.4037C141.78 42.2532 142.183 43.7609 142.433 44.4623C142.183 43.7098 141.581 43.6587 141.53 44.5644C141.479 46.4215 139.02 45.7174 138.921 47.3756C137.564 49.0337 139.875 49.2326 139.673 51.2429ZM127.123 89.2092C126.722 89.9617 126.22 91.8187 126.873 90.1122C127.526 89.8112 128.327 90.3137 128.931 89.9106C129.783 88.8061 127.324 87.9541 127.123 89.2092ZM117.735 118.035C117.886 117.984 118.036 117.885 118.187 117.783C117.937 117.783 117.735 117.734 117.735 118.035ZM119.493 115.273C120.044 113.966 121.251 107.739 119.592 112.209C119.291 113.915 118.087 115.724 118.036 117.232C118.388 117.28 118.036 117.584 118.238 117.683C119.643 117.232 119.291 116.025 119.493 115.273ZM124.212 97.4437C130.385 94.8825 127.977 99.7549 128.88 91.8187C127.225 86.8979 125.215 93.9795 124.212 97.4437ZM155.186 35.2227C154.584 35.7252 152.925 35.9241 154.331 36.5288C154.481 37.9854 152.675 36.2762 151.872 36.9292C149.01 37.4318 145.296 41.5491 150.415 41.8501C150.918 41.9522 151.971 41.2991 151.821 42.2021C152.173 42.7557 150.969 46.271 150.415 44.5134C150.867 44.0108 150.367 43.0057 150.367 44.0108C150.415 44.5644 149.913 45.0643 150.716 45.2148C152.374 46.9724 148.658 45.6179 149.362 46.7225C149.563 48.1281 149.01 47.4266 148.408 47.9265C148.158 48.5796 147.053 48.9827 146.4 48.8832C148.658 49.1332 143.538 49.5336 142.785 51.2912C143.339 49.5336 146.752 44.9649 146.099 42.5031C146.701 38.8884 142.334 40.0924 144.14 39.1384C144.694 38.8884 143.387 38.4369 143.989 37.9854C144.342 37.6334 143.839 36.8782 144.643 36.7787C144.543 36.3272 143.288 36.4267 144.092 35.6742C144.191 35.5237 144.393 35.3221 144.591 35.4242C144.242 34.9217 144.944 34.8196 145.245 34.6207C145.798 33.113 146.65 34.8196 146.25 35.7252C146.451 35.8247 146.5 35.4242 146.65 35.3732C145.597 35.0722 147.604 33.5161 147.405 35.0722C149.16 34.4702 149.461 32.2584 148.408 30.9039C146.951 29.7993 150.316 28.0417 150.918 28.9957C150.969 28.6947 151.872 27.136 152.272 27.8401C152.374 28.0901 151.971 28.5442 152.525 28.5442C153.127 28.4932 152.724 27.2381 153.578 27.3886C155.186 28.4421 153.329 31.0544 155.135 31.8579C155.384 32.1589 155.887 34.4702 155.384 34.2686C154.984 34.0671 154.984 34.5696 155.384 34.5186C156.038 34.5696 155.234 34.8706 155.186 35.2227ZM151.622 36.5772C151.42 36.6282 151.52 36.1257 151.219 36.3272C150.969 36.7277 151.318 36.7277 151.52 36.8298C151.772 36.6793 151.971 36.5772 151.622 36.5772ZM152.525 30.6512C152.525 30.0492 151.068 29.6972 151.017 29.0441C150.969 29.9498 149.311 29.1946 149.512 31.2049C149.211 34.016 151.369 37.2813 151.721 32.6615C152.173 32.0595 151.369 29.5977 152.525 30.6512ZM152.323 35.7252C152.122 36.4267 151.821 36.6282 152.724 36.6282C153.329 36.5288 152.224 36.0262 152.323 35.7252ZM153.178 32.3605C153.076 32.5594 152.976 32.7609 152.775 32.8631C152.374 32.8631 152.374 31.9574 152.423 32.7609C152.573 33.3629 152.826 33.3629 153.178 32.8631C153.428 32.812 153.578 32.1079 153.178 32.3605ZM153.729 34.8196C153.63 34.9701 153.428 35.0722 153.277 35.1206C153.527 35.1716 153.678 35.0722 153.729 34.8196ZM119.794 82.8801C119.442 81.574 120.799 82.0282 121.401 81.4746C121.5 81.1225 120.95 81.4746 120.847 81.5256C119.544 81.9771 119.995 80.1174 121.1 80.37C122.102 80.3189 118.59 78.3597 121.049 77.6072C121.251 77.3062 121.449 76.9542 121.6 76.7042C121.148 77.1047 120.245 75.7502 121.049 76.0512C121.853 76.5027 121.753 72.9364 122.605 75.7502C121.801 74.1431 123.911 72.1839 124.564 74.1914C124.763 75.2476 123.911 74.1914 123.761 74.7451C123.761 75.2987 123.108 76.9058 124.011 76.5027C125.819 76.5027 124.062 74.7451 124.664 73.8421C125.717 72.6354 126.018 77.8599 128.88 79.467C130.186 82.5791 126.22 87.0001 125.618 90.3621C126.271 86.5459 121.801 82.1787 119.794 87.0484C119.243 87.7526 119.893 90.6658 119.192 89.3086C119.192 88.1046 118.138 88.8061 117.383 88.6045C116.733 87.9031 114.924 89.2576 116.531 87.1506C118.187 87.0995 116.281 87.1989 117.082 86.2449C117.786 84.9898 119.342 83.9847 119.794 82.8801ZM121.753 75.2987C121.801 75.3471 121.801 75.3471 121.853 75.3981C121.853 75.3471 121.801 75.3471 121.753 75.2987ZM121.952 79.9669C122.253 79.5154 122.506 78.4619 122.205 78.0104C122.054 77.7577 122.102 78.3114 121.5 78.4108C122.253 78.3597 121.853 79.5154 121.952 79.9669ZM115.427 128.681C112.516 129.183 113.067 126.923 111.761 125.517C111.812 125.066 112.113 122.403 112.715 123.558C112.667 123.408 112.766 123.158 112.968 123.056C111.159 122.204 112.315 118.839 111.761 117.081C111.812 116.477 113.067 116.627 112.616 115.926C112.264 114.972 110.759 115.474 111.511 114.267C112.113 113.867 112.264 112.41 112.968 113.816C113.118 112.461 114.121 113.313 113.922 112.359C113.72 112.158 113.922 112.308 113.922 112.461C113.067 113.515 109.302 112.66 111.21 111.255C111.06 110.653 110.458 110.099 111.61 109.949C112.414 107.989 112.315 108.191 114.422 108.393C113.317 107.839 112.766 105.229 114.623 105.428C115.075 106.081 115.075 106.081 115.728 105.78C115.427 105.53 114.975 105.78 114.723 105.479C114.674 104.576 116.682 104.826 117.034 103.472C118.138 102.015 118.59 105.53 119.694 106.183C120.998 108.14 118.689 110.502 118.74 112.612C117.886 104.426 110.759 108.594 116.631 114.168C117.636 114.671 117.937 115.222 117.383 116.227C117.284 116.931 116.582 116.278 116.781 115.775C116.832 115.071 117.837 115.522 117.335 115.122C116.381 114.719 116.832 116.829 116.281 116.326C115.126 116.477 115.427 118.436 116.582 117.783C116.733 119.341 115.225 122.755 115.075 124.663C115.177 125.869 113.922 128.431 115.427 128.681ZM112.968 123.007C113.016 122.956 113.067 122.905 113.118 122.857C113.167 122.755 113.016 123.007 112.968 123.007ZM114.723 120.898C115.478 119.992 114.172 119.642 113.72 118.989C113.97 119.54 113.669 120.395 112.917 119.742C112.866 120.747 114.021 121.852 113.167 122.806C113.419 122.604 113.468 123.107 113.669 123.107C113.871 122.505 114.623 123.007 114.873 122.454C115.677 121.903 114.924 121.551 114.723 120.898ZM122.656 125.517C121.6 124.563 120.998 122.553 119.643 123.66C119.243 123.007 119.995 123.459 120.044 123.257C121.299 122.454 119.493 121.951 118.74 121.752C115.276 117.783 116.33 126.622 115.526 128.632C116.029 129.234 116.733 128.53 116.531 127.829C118.59 128.831 117.335 129.183 120.546 128.732C121.148 128.53 120.348 127.778 121.251 127.877C122.154 127.627 122.807 128.732 123.559 128.28C125.516 127.477 123.508 126.321 122.656 125.517ZM145.094 55.2607C144.492 54.9086 142.885 55.1102 142.084 54.355C141.581 54.0056 141.479 54.4061 141.38 54.7071C139.12 59.2274 137.163 63.8983 135.054 68.4671C143.688 62.0386 141.431 71.5819 143.439 65.2528C142.987 64.7502 142.132 65.4544 141.63 65.5538C141.329 65.4033 141.982 66.4084 141.329 65.8064C141.079 65.4544 140.477 66.4595 140.525 65.8064C140.576 64.2987 138.018 65.4033 141.028 63.7478C141.53 63.2963 141.63 64.1993 142.033 64.4009C142.635 64.6508 143.237 63.8983 143.74 64.4492C144.092 64.8013 144.441 64.4492 144.342 64.0488C142.536 61.1356 145.446 62.4927 144.393 59.8805C142.536 56.4136 145.196 58.9775 144.793 56.9672C145.747 56.2147 144.342 56.3142 145.094 55.2607ZM127.072 101.01C120.95 99.9054 123.108 103.069 120.95 108.04C122.756 106.686 124.965 102.969 127.072 101.01ZM128.077 67.7146C131.743 67.7146 132.242 73.0385 131.39 75.3981C131.992 70.0258 139.12 62.8932 135.857 58.1229C135.357 56.9162 135.508 57.5209 134.855 57.9213C134.602 58.1229 134.202 57.7197 133.952 58.1229C134.403 59.3779 132.646 59.9316 132.143 61.1866C131.339 61.9391 132.495 62.1407 132.998 62.2401C134.151 62.5922 133.196 64.8524 132.194 64.1993C131.339 63.5973 130.385 65.1023 131.893 64.9518C132.092 64.9518 132.092 65.1534 131.941 65.2528C130.084 65.9569 131.291 67.4136 130.337 66.7605C129.783 66.5589 128.026 65.9059 128.077 66.9621C128.026 67.1609 127.174 67.9161 128.077 67.7146ZM147.556 54.7071C147.706 54.656 147.755 54.5566 147.755 54.4061C147.556 54.6076 146.951 54.8092 147.556 54.7071ZM104.083 62.5411C103.529 63.2963 103.328 64.1993 102.726 64.9007C102.575 65.6049 102.175 64.9518 101.922 65.0539C101.573 65.2044 101.269 64.8013 100.968 65.1023C100.769 66.5079 102.223 66.309 102.726 67.2631C103.58 64.5514 106.942 65.6559 108.549 67.5641C108.348 64.3498 108.95 60.5819 107.947 57.7708C105.738 58.1229 103.68 51.4928 102.626 55.0591C103.129 55.5106 104.634 56.1126 104.583 56.4647C102.927 56.6152 104.233 57.4187 104.432 58.2223C104.083 59.6279 103.129 58.2734 102.524 57.8702C100.769 55.2607 99.764 59.2785 104.131 61.1356C104.032 61.4366 104.233 61.7376 104.432 61.8881C103.93 61.9391 104.083 61.2861 103.629 61.1356C103.279 61.5387 102.223 61.9902 103.43 62.2912C103.731 61.9902 103.83 62.2401 104.032 62.3906C104.986 61.5871 105.588 63.1431 106.692 63.5462C106.641 64.0488 106.993 64.4492 106.942 64.8524C104.583 65.3549 105.639 63.3447 104.083 62.5411ZM109.503 45.0643C109.654 45.8195 109.401 46.0694 109.904 45.2659C113.82 42.1537 113.269 49.1842 110.355 50.3372C109.001 51.4928 110.458 58.1229 109.904 59.9799C110.256 58.2223 112.215 56.6662 113.922 57.4187C115.577 57.8702 114.172 60.934 115.577 60.633C116.128 59.2785 115.526 57.5209 116.029 56.3652C116.128 56.3142 116.08 56.4647 116.128 56.5157C116.23 56.6662 116.432 56.4647 116.281 56.3652C116.832 54.355 115.878 52.0948 115.177 50.0362C115.177 45.0159 114.172 47.5261 112.616 44.0619C111.911 42.9573 113.269 41.7506 112.565 40.896C111.963 40.1946 112.817 37.1308 112.113 36.8298C111.713 36.7277 111.662 36.4777 111.761 36.1257C111.662 33.414 111.309 37.9854 109.753 38.2354C108.751 40.0924 109.452 42.9062 109.503 45.0643ZM116.733 65.5054C116.08 65.0539 115.327 65.5538 114.572 65.4544C114.223 65.5054 113.419 65.1023 113.72 65.6049C113.269 66.5589 115.126 66.5079 115.276 66.0564C115.478 65.2044 117.636 66.911 117.434 67.5641C117.534 66.4595 117.082 66.0564 118.439 66.1585C119.544 66.0564 118.74 67.4136 118.59 67.9645C118.488 68.2655 118.087 67.8651 117.988 68.115C117.837 68.5181 118.99 68.5181 118.439 68.8702C117.434 69.3727 118.488 69.5716 118.638 70.1763C119.544 70.7783 119.743 72.2833 118.289 71.6302C116.432 71.4314 117.233 71.4314 117.284 70.1252C117.034 69.7732 116.932 69.4211 116.432 69.7732C117.082 69.4722 117.184 70.1763 116.932 70.6278C116.08 70.9799 116.781 71.3803 116.983 71.8318C117.284 72.0334 117.687 71.7834 117.988 72.0334C118.087 72.8369 119.743 73.7399 118.638 74.3446C117.837 74.3446 117.937 73.3395 117.534 73.5411C118.84 75.6991 113.419 71.5308 111.21 75.1966C108.901 79.9185 110.355 68.1661 110.054 66.7605C110.355 64.9034 113.97 65.6049 114.674 60.7351C115.628 61.1866 115.677 62.7937 114.572 62.7427C114.873 63.1431 115.577 63.2963 115.779 63.8983C115.478 64.3498 114.975 64.0488 114.723 63.8472C114.774 64.1482 115.677 64.1993 115.577 64.5997C116.281 64.0488 118.087 65.4544 116.733 65.5054ZM117.485 67.6151C117.534 67.6635 117.534 67.7146 117.485 67.814C117.585 67.7146 117.485 67.6635 117.485 67.6151ZM115.677 64.7019C115.779 64.7019 115.728 64.7502 115.677 64.7019ZM118.488 80.5716C118.539 77.8088 115.779 83.7347 118.388 81.4746C118.891 80.7704 118.138 80.7221 118.488 80.5716ZM111.46 95.6861C110.157 92.6734 109.753 98.5993 110.608 98.2983C111.06 98.0967 110.458 97.4437 110.96 97.4437C111.61 97.3953 110.807 96.2397 111.46 95.6861ZM109.202 91.7704C109.503 93.3775 109.856 97.5942 109.052 98.8009C107.845 98.5993 108.85 97.6963 108.649 96.9922C108.901 96.3902 109.001 96.5917 109.353 96.6912C109.052 95.9871 108.248 96.5917 108.248 95.5866C108.197 95.2856 107.996 95.1351 107.695 95.0841C106.993 94.5304 108.399 94.431 108.751 94.8825C108.149 94.2805 106.942 94.13 106.993 93.1249C107.294 91.9692 105.488 90.4132 106.542 89.8622C106.641 89.5102 105.838 89.3086 105.738 89.0076C105.335 88.1046 106.391 89.1071 106.391 88.6556C104.935 83.4821 107.496 89.9617 107.746 87.9541C107.544 87.551 108.299 87.1989 108.047 86.8979C107.695 86.8469 107.195 87.0995 107.144 86.5459C105.94 86.6964 105.838 85.0892 104.685 85.0892C103.58 84.8393 104.384 84.4872 104.131 83.6353C104.233 83.3316 104.282 83.0817 103.881 83.0306C102.978 82.8317 103.129 82.3292 103.529 81.7245C104.432 81.4746 104.733 82.6302 105.537 82.5281C105.335 82.3776 105.488 82.1276 105.639 82.0282C105.94 81.5256 104.583 81.273 104.333 80.671C104.333 81.574 104.333 81.574 103.779 81.4235C103.478 80.8726 102.927 81.574 102.575 81.0741C102.124 80.4211 103.328 80.1174 102.575 79.5664C102.124 79.0639 101.621 78.5129 102.274 77.7577C102.024 76.8547 100.619 75.0971 101.874 74.4951C101.823 73.9415 101.723 73.8421 102.476 73.6405C101.371 73.9415 102.726 72.4338 101.922 72.2349C100.769 72.7375 101.019 71.8318 101.371 71.0793C101.672 70.5767 101.823 71.2809 102.175 71.1787C101.874 70.7272 101.422 70.8777 100.968 70.7783C100.014 70.6762 99.764 69.4211 100.817 69.2222C102.124 68.8702 100.619 68.115 100.769 67.4136C103.228 65.0029 104.233 73.9415 107.544 74.2936C110.608 76.3011 108.248 87.7526 109.202 91.7704ZM102.274 71.2809C102.325 71.2809 102.325 71.3292 102.374 71.3292C102.374 71.2809 102.325 71.3292 102.274 71.2809ZM102.626 73.7399C102.626 73.6916 102.575 73.6916 102.524 73.7399C102.575 73.7399 102.626 73.7399 102.626 73.7399ZM105.738 82.6302C105.488 82.5281 106.09 82.9822 106.19 82.9822C106.34 82.7807 105.94 82.5791 105.738 82.6302ZM107.544 85.0892C107.195 84.9898 107.093 85.1914 107.394 85.4413C107.695 85.4413 107.445 85.3929 107.544 85.0892ZM108.348 85.4924C108.149 85.5434 107.646 85.4924 107.695 85.5434C107.947 86.0433 108.149 85.6939 108.348 85.4924ZM111.911 92.1224C112.565 91.6199 111.21 91.2167 111.46 90.5153C111.412 90.2627 111.61 89.9106 111.261 89.7601C111.309 89.5612 111.562 89.3086 111.261 89.2576C110.656 89.5612 110.656 89.2576 110.157 89.0076C110.205 90.8163 110.157 92.6223 110.157 94.431C112.817 96.1376 111.06 93.3775 111.911 92.1224ZM112.465 89.6096C112.667 89.3086 112.565 88.9566 112.715 88.6045C113.669 89.3086 114.975 88.6045 113.669 87.6504C114.572 88.2551 115.978 87.1506 114.873 86.4975C115.978 86.5969 116.281 85.5434 115.779 84.7399C114.572 86.3954 112.164 87.6021 110.355 86.2959C110.608 86.949 109.654 89.5612 111.06 88.5051C111.562 88.7066 111.61 90.1632 112.465 89.6096ZM100.318 50.6892C104.333 51.6944 98.861 53.2504 101.269 53.6536C102.274 52.6484 101.922 53.9546 102.726 54.0056C103.379 52.8984 102.675 53.7019 103.731 53.9546C100.366 43.0567 111.361 60.4825 107.595 43.3067C106.139 42.4547 106.09 40.1946 105.034 39.4904C103.58 40.5466 104.685 40.3961 104.182 41.4496C104.282 41.7506 104.534 41.8017 104.784 41.8017C105.386 42.0516 105.335 42.9062 106.241 43.0567C105.136 43.6587 101.221 42.9573 101.422 44.6639C100.667 46.3704 102.876 45.8679 103.779 46.572C102.876 46.3704 102.726 47.5261 103.629 47.5771C103.83 47.6255 104.131 47.6255 104.182 47.8781C104.282 48.5796 104.935 48.6306 105.287 48.9827C103.93 51.3423 103.279 46.7225 102.223 48.8322C102.073 50.4904 100.968 48.5312 100.267 49.1332C99.4119 49.2837 99.3635 50.6409 100.318 50.6892ZM109.654 34.2686C109.654 33.7661 109.904 33.6156 110.205 33.6156C109.856 33.3629 110.054 33.113 110.105 32.7609C110.406 32.812 110.355 33.2635 110.707 33.414C112.014 31.1054 109.302 31.5059 109.654 34.2686ZM105.988 35.2227C106.692 35.0722 106.289 33.9166 106.692 33.414C107.243 33.5161 107.093 34.016 106.894 34.317C107.345 34.2176 107.294 35.0211 107.044 35.1716C107.496 35.0722 107.797 34.5696 107.195 34.317C107.144 33.8655 107.243 33.3629 106.692 33.0619C106.894 32.7126 106.641 31.5569 107.093 31.7074C110.006 30.1003 108.149 34.016 107.947 36.9803C107.947 38.6385 107.896 37.4318 106.894 37.0797C107.496 36.6282 106.44 36.4777 106.09 36.6282C105.185 36.9292 105.639 34.9217 105.988 35.2227Z" fill="#D6DF74"/>
<path d="M143.791 155.198C143.288 162.629 143.339 170.162 142.484 177.545C140.877 186.384 133.449 193.968 124.11 193.766C109.503 193.062 87.9175 198.486 83.2976 179.453C81.9942 175.736 82.4968 171.971 82.0936 168.203C81.4406 163.484 81.6932 158.662 81.3922 153.94C80.5886 144.701 80.2366 135.41 79.9866 126.119C79.9356 125.568 80.1371 125.367 80.6881 125.367C90.828 125.165 100.968 125.216 111.159 125.165C122.304 125.066 133.398 125.316 144.543 125.367C146.15 124.765 144.643 132.346 144.844 133.601C144.492 140.785 144.14 147.966 143.791 155.198Z" fill="#FFF6EA"/>
</svg>
