<svg width="215" height="215" viewBox="0 0 215 215" fill="none" xmlns="http://www.w3.org/2000/svg">
<path d="M133.753 116.603C133.242 119.108 140.998 115.951 140.487 118.505C139.977 120.22 141.695 127.179 139.375 126.807C138.121 127.041 131.386 126.205 132.87 127.317C156.88 140.82 156.231 173.522 133.614 188.045C104.73 208.039 56.0594 185.076 67.205 147.637C69.7133 140.958 74.1735 134.927 79.2328 130.01C79.7463 129.22 85.1315 126.669 83.0873 126.761C73.0576 127.041 76.3559 127.317 75.8424 118.364C75.7963 116.511 80.3947 117.946 81.7871 117.531C85.0854 116.925 88.7062 117.343 92.1427 117.251C105.889 116.649 120.333 118.459 133.753 116.603Z" fill="#8C756A"/>
<path d="M103.894 71.4182C100.968 77.9587 96.0466 85.4736 98.6931 92.9424C99.6213 95.2169 99.7596 97.6758 99.9933 100.085C100.27 104.447 98.4594 108.854 98.8774 113.216C98.7392 114.144 99.8518 115.767 99.4831 116.231C94.9307 111.777 95.3027 103.798 94.9768 97.768C95.069 93.4065 92.5146 89.789 90.612 86.076C88.0577 78.2846 88.3836 74.0153 80.8128 69.4234C82.8108 62.185 73.66 56.0625 76.03 48.5937C76.448 46.4575 77.8404 44.5121 77.9786 42.3297C78.2123 40.753 77.8865 38.8965 78.3967 37.458C79.6969 36.4376 79.0945 34.6305 79.1867 33.192C79.1406 32.356 82.4388 35.0946 83.1334 34.9531C87.5936 36.8557 91.0762 40.6608 91.3066 45.6708C91.6325 47.8498 94.3283 48.2218 95.2105 50.1244C99.8518 57.2212 95.9511 61.8131 98.7392 65.3878C100.642 67.241 102.778 69.0054 103.894 71.4182ZM142.857 55.8288C130.504 55.0882 135.194 57.6392 126.975 59.5418C119.914 58.6136 115.922 65.108 117.778 71.4643C119.822 76.0561 112.811 77.2148 114.575 81.6223C115.876 95.681 109.559 92.9885 110.767 100.691C111.88 103.706 112.531 106.488 111.231 109.552C111.277 111.037 108.861 117.808 110.115 117.485C113.367 117.485 116.57 117.531 119.822 117.436C120.286 116.231 119.543 114.746 120.425 113.542C121.913 110.247 124.279 107.231 124.003 103.472C124.049 101.432 124.651 99.7166 126.044 98.186C126.787 96.2834 124.605 93.2682 125.813 90.9476C127.021 86.5862 131.712 84.3149 132.36 79.7198C133.242 77.2148 131.014 75.3616 130.642 73.1331C131.014 69.2358 133.522 65.48 136.402 62.929C137.331 61.9085 146.758 55.1804 142.857 55.8288ZM88.8477 111.497C86.3855 108.068 87.1295 103.104 83.5514 100.273C81.4645 98.5547 78.5382 97.9062 77.2841 95.263C74.8219 91.1813 72.0833 85.1938 66.787 84.6375C51.7408 87.0503 62.1424 76.1483 54.1108 77.4946C45.7038 79.9535 48.166 76.8922 43.4754 75.5459C40.5491 75.7303 38.2745 78.3768 36 79.7691C36.3226 80.7895 40.7367 77.8205 42.9652 78.6533C46.6782 78.7487 49.746 82.1786 50.9968 85.4275C51.3227 87.3301 51.2305 89.9733 53.6005 90.4835C56.3392 91.5039 59.8218 90.5757 61.912 92.9885C63.6303 95.0754 65.5328 97.2117 65.7205 99.9931C66.833 106.583 75.1017 104.634 78.4428 108.946C80.3947 111.451 81.4151 114.467 82.5771 117.343C91.0301 117.159 94.7431 120.313 88.8477 111.497ZM40.875 49.3344C44.5912 46.9216 48.6762 49.4265 52.7645 49.15C57.0831 49.1961 60.2398 52.6293 64.1865 53.7419C63.492 51.9315 60.8422 51.0987 59.3577 49.7985C57.4551 48.5477 55.6875 46.9677 53.459 46.3653C49.6966 44.9268 42.2212 46.8294 40.875 49.3344Z" fill="#6E7B1F"/>
<path d="M180.053 84.5915C177.13 85.3815 174.53 86.9121 171.742 88.1629C168.167 89.9273 164.312 87.3301 160.688 88.7225C155.349 89.6475 152.331 94.7989 147.36 96.1913C144.062 96.606 140.721 97.5804 138.631 100.319C135.984 103.008 135.566 106.488 135.148 110.062C134.589 112.241 133.848 114.421 133.707 116.649C132.686 118.782 123.397 116.926 120.566 117.531C117.778 116.001 121.725 111.083 122.656 108.716C124.605 105.329 122.702 100.503 126.185 97.768C127.113 96.606 129.342 97.0702 130.178 95.635C134.032 90.7633 137.607 84.4993 144.111 82.9226C147.176 82.1787 150.102 83.8048 153.167 83.6171C159.112 83.7126 164.73 77.8666 170.58 81.6224C174.25 85.4275 181.679 82.9687 180.053 84.5915ZM128.506 54.3904C125.579 56.2008 122.189 58.1495 120.52 61.2568C122.097 60.6545 123.492 59.634 125.257 59.7723C128.229 60.2825 130.504 58.9395 132.732 57.1752C136.913 54.2983 143.088 58.3338 146.294 54.4398C149.961 49.8446 153.861 42.1915 160.922 44.7425C164.915 47.2475 165.379 49.6142 170.906 49.8446C173.414 50.0783 175.504 51.9809 177.594 52.9552C178.151 51.5168 175.735 51.0527 174.948 50.2627C173.088 48.8242 171.88 46.553 169.605 45.7169C165.379 44.6965 161.294 43.4423 157.206 41.9578C150.751 39.1763 144.948 43.3502 140.303 47.4318C136.725 50.3088 132.548 52.2574 128.506 54.3904ZM73.5217 22.8925C74.6837 31.7536 80.7206 33.9788 87.5475 37.784C83.6929 34.9992 86.0136 28.9689 81.7871 26.6976C80.4869 25.8155 78.7225 25.5357 77.656 24.3309C76.5862 23.0768 72.1293 18.4388 73.5217 22.8925ZM119.266 61.8131C115.642 68.5413 119.868 72.0667 117.36 75.9179C116.248 77.3564 113.552 78.887 114.621 80.9739C115.316 83.2945 114.157 85.6119 114.714 87.8864C115.55 92.6659 109.421 95.8193 110.951 100.645C113.18 105.283 111.511 109.042 110.721 113.726C110.951 119.664 104.358 117.021 100.457 117.577C97.7154 117.113 93.5844 118.644 91.5403 116.833C90.1479 113.4 87.2677 110.619 86.7114 106.906C86.4777 103.844 84.3414 101.57 82.4849 99.529C82.3927 95.217 82.6232 89.5092 79.4204 86.3097C77.8404 85.2893 75.8423 84.6375 74.8219 82.9226C72.0832 79.2096 73.9397 74.3873 71.9417 70.4439C69.993 66.6848 69.6672 62.1851 67.2511 58.6597C65.3946 55.8289 64.0022 52.8137 60.8422 51.1909C55.0851 45.9012 47.1456 44.4167 40.6412 49.3805C31.4015 56.8493 39.8512 46.8295 42.7315 45.5325C54.7131 40.753 65.4867 47.0171 70.365 58.2878C74.868 71.6486 83.5514 67.1489 87.9655 76.7046C88.6601 78.469 89.2657 80.23 89.5422 82.0865C90.6581 88.1629 95.9511 92.7581 95.2105 99.2525C95.5331 105.375 95.6746 112.38 100.132 117.021C96.6489 112.613 99.8517 106.721 99.7135 101.711C99.8057 99.1604 99.6674 96.5139 98.6931 94.1505C95.1611 85.0095 101.665 75.9179 105.474 68.4952C106.866 65.7565 105.566 62.557 106.168 59.634C106.215 58.6136 106.494 57.6393 106.912 56.7571C108.443 52.7676 109.651 50.5885 111.787 47.6655C112.347 46.553 113.831 45.5325 114.529 44.2323C114.621 43.8143 114.852 43.4423 114.898 42.9782C114.575 38.2481 116.34 35.5555 118.894 33.1921C120.425 31.7075 122.005 31.4738 124.141 30.2691C125.069 29.805 126.88 27.718 127.624 26.6515C130.086 24.2387 132.176 23.8668 135.425 21.9642C135.984 21.2697 136.495 21.5923 135.705 22.1485C135.843 22.9385 135.658 23.6331 135.24 24.4692C133.802 28.0406 132.176 30.4534 130.688 33.7023C130.458 34.1664 130.27 34.6766 129.947 35.1408C128.598 37.6918 128.46 40.9835 126.88 43.9986C125.859 47.1093 124.931 47.6195 123.492 49.8446C121.679 53.6037 120.24 57.6393 119.266 61.8131ZM135.148 23.4948C135.287 23.3105 135.102 23.3566 135.102 23.5409L135.148 23.4948ZM135.194 22.0103C135.24 21.9642 135.333 21.9181 135.379 21.872C135.333 21.9181 135.287 21.9642 135.194 22.0103ZM133.196 23.0768C133.242 23.0768 133.335 22.9846 133.384 22.9385C133.335 22.9846 133.288 23.0307 133.196 23.0768ZM128.878 25.4435C128.924 25.4435 128.97 25.3974 129.016 25.3513C128.97 25.3974 128.924 25.3974 128.878 25.4435ZM127.624 26.5561C127.811 26.3718 127.995 26.1874 128.18 25.9998C127.949 26.1874 127.762 26.3257 127.624 26.5561ZM124.467 48.314C124.421 48.3601 124.375 48.4062 124.375 48.4522C124.421 48.4062 124.421 48.3601 124.467 48.314ZM126.511 27.9945C126.557 27.9485 126.649 27.9024 126.695 27.8102C126.649 27.8563 126.603 27.9024 126.511 27.9945ZM125.629 29.061C125.721 28.9689 125.905 28.8306 125.997 28.6924C125.859 28.8306 125.721 28.9228 125.629 29.061ZM124.697 29.7589C124.743 29.7589 124.839 29.6667 124.885 29.6206C124.839 29.6667 124.743 29.7128 124.697 29.7589ZM117.268 34.861C117.222 34.907 117.176 34.9992 117.084 35.0453C117.176 34.9992 117.222 34.9531 117.268 34.861ZM119.638 32.4943C119.684 32.4943 119.776 32.4021 119.822 32.356C119.776 32.4021 119.684 32.4482 119.638 32.4943ZM113.321 45.7169C113.367 45.6708 113.459 45.5786 113.506 45.5325C113.367 45.5786 113.321 45.6247 113.321 45.7169ZM113.506 45.5325C113.552 45.4832 113.647 45.391 113.693 45.3449C113.552 45.391 113.506 45.4371 113.506 45.5325ZM118.012 33.9788C118.058 33.9327 118.15 33.8405 118.196 33.7945C118.104 33.7945 118.058 33.8405 118.012 33.9788ZM118.196 33.7945C118.242 33.7484 118.338 33.6562 118.384 33.6101C118.288 33.6101 118.196 33.7023 118.196 33.7945ZM118.568 33.4225C118.614 33.3764 118.706 33.2843 118.752 33.2382C118.66 33.2382 118.568 33.3303 118.568 33.4225ZM118.752 33.2382C118.802 33.1921 118.894 33.0999 118.94 33.0505C118.802 33.0999 118.752 33.146 118.752 33.2382ZM119.45 62.139C119.542 62.139 119.589 62.0929 119.589 62.0008C119.496 62.0008 119.45 62.0468 119.45 62.139Z" fill="#BDCA3F"/>
<path d="M118.15 46.9215C110.629 58.7978 112.298 73.2252 110.767 86.54C108.91 96.7014 106.261 106.813 107.841 117.205C107.561 117.9 106.402 117.577 106.725 116.649C105.75 103.936 109.697 91.7836 110.533 79.1634C111.139 41.217 120.843 49.9367 135.148 23.0767C133.848 27.5764 130.04 32.7739 127.113 36.9477C124.279 40.5192 120.52 43.1196 118.15 46.9215ZM131.616 62.4187C132.034 61.4443 133.614 59.68 133.012 58.9394C129.806 64.736 124.885 69.5616 123.213 76.1021C121.82 81.0199 121.541 86.2174 119.868 91.0858C117.222 97.5342 118.288 104.539 117.084 111.221C116.896 112.287 114.621 118.272 116.524 117.251C116.758 114.144 118.384 111.359 118.522 108.298C118.753 105.421 118.568 102.498 118.94 99.6244C122.331 86.6782 122.979 73.1791 131.616 62.4187ZM83.4132 109.598C81.1386 100.691 72.3598 100.829 68.0411 94.7527C65.7205 89.6473 60.704 86.122 55.2694 85.1476C53.2286 84.779 52.9027 82.5505 51.5104 81.3457C49.6966 79.8151 47.4221 79.0712 45.4241 77.9125C44.9139 77.4484 39.8546 77.4945 41.5728 78.0047C45.378 77.8204 50.3484 80.5097 52.3925 83.7125C57.1292 88.6763 62.3301 84.779 67.577 95.6349C71.8956 101.524 80.6284 102.034 82.6232 110.572C83.6008 112.613 84.901 117.485 87.3599 117.485C85.9214 114.98 84.2032 112.521 83.4132 109.598ZM173.694 83.7585C172.114 83.5709 170.208 84.5913 168.444 84.4531C164.217 84.6835 160.04 83.2944 155.813 83.989C153.025 84.407 150.705 86.122 148.384 87.6065C144.948 90.3912 140.023 90.3452 136.913 93.5447C131.85 99.0187 128.134 105.977 125.721 113.077C125.487 113.956 124.095 118.644 125.859 117.205C126.185 115.164 126.834 113.216 127.577 111.313C131.014 104.078 134.032 94.3807 142.16 91.2734C146.988 90.1575 150.425 86.122 155.116 84.7329C161.199 83.2944 167.887 86.8659 173.694 83.7585ZM98.3211 95.7731C96.3692 88.8606 93.0742 82.4122 91.2144 75.4997C90.0064 70.3516 89.9142 65.0619 88.8477 59.8643C88.2421 54.9499 85.1314 50.9604 83.8312 46.273C83.2289 44.8807 82.2051 37.0399 82.113 39.4066C82.2973 44.9728 84.5291 50.0321 86.8497 54.996C89.2197 61.5826 88.7556 68.7255 90.194 75.5458C90.9379 79.6736 104.542 115.395 98.3211 95.7731ZM94.6049 116.415C85.2697 103.242 92.7944 94.3347 83.9695 81.9942C82.0208 79.0712 80.5791 75.6841 78.9102 72.8565C78.6304 72.2509 78.2584 71.5563 78.028 70.8618C77.5145 71.8361 78.8147 73.133 79.0945 74.0152C81.6028 80.6479 87.7779 86.6322 88.1499 94.1964C87.9195 103.008 89.1703 109.782 94.0486 117.251C94.9307 118.041 95.2566 117.251 94.6049 116.415ZM134.869 50.8649C133.289 51.4706 137.331 51.7932 137.841 51.6549C140.023 51.4212 142.206 50.8188 143.74 49.1039C144.158 48.1756 146.988 46.4113 146.386 45.9011C143.275 49.0578 139.743 52.3955 134.869 50.8649ZM80.3026 30.0813C81.0465 30.7331 84.2954 33.3763 84.6212 32.0761C83.321 31.6613 76.2143 26.1412 80.3026 30.0813ZM76.3098 24.9792C76.2604 24.9792 76.2143 25.0253 76.2143 25.0714C76.2604 25.0253 76.3098 25.0253 76.3098 24.9792Z" fill="#546C21"/>
</svg>
