<svg width="500" height="500" viewBox="0 0 500 500" fill="none" xmlns="http://www.w3.org/2000/svg">
<path d="M311.844 390.76C311.844 416.094 311.844 441.286 311.844 466.62C311.844 469.698 312.12 469.281 309.047 469.281C265 469.281 220.948 469.281 176.901 469.281C176.344 469.281 175.646 469.281 175.083 469.281C174.526 469.281 174.104 469 174.104 468.297C174.104 467.74 174.104 467.042 174.104 466.479C174.104 438.068 174.104 409.656 174.104 381.24C174.104 359.13 174.104 337.151 174.104 315.042C174.104 314.339 174.104 313.781 174.104 313.078C174.104 312.661 174.385 312.38 174.807 312.38C175.365 312.38 176.062 312.38 176.625 312.38C212.839 312.38 249.198 312.38 285.411 312.38C293.526 312.38 301.495 312.38 309.604 312.38C311.984 312.38 311.844 312.24 311.844 314.62C311.844 339.953 311.844 365.286 311.844 390.76Z" fill="#FFF6EA"/>
<path d="M136.49 231.063C136.49 229.802 137.469 229.802 138.307 229.661C140.406 229.104 142.365 229.802 144.463 230.083C145.859 230.224 147.26 230.5 148.516 230.922C157.604 233.302 166.417 232.599 174.807 227.984C182.635 223.781 191.026 222.245 199.698 222.245C202.354 222.245 205.151 222.526 207.807 222.104C210.745 221.682 213.542 220.703 216.198 219.302C220.109 217.344 223.885 215.245 228.359 214.964C229.62 214.828 229.338 214.266 228.781 213.568C227.943 212.448 227.104 211.328 227.521 209.786C227.385 208.948 226.963 208.109 226.406 207.406C225.005 205.589 223.609 203.771 222.349 201.667C220.672 198.729 219.411 195.651 218.292 192.573C217.594 190.75 217.036 189.073 216.474 187.255C215.359 184.036 213.677 181.234 211.302 178.854C209.203 176.755 207.385 174.656 205.708 172.276C204.448 170.458 202.911 168.776 201.375 167.099C199.557 165.141 198.156 162.76 196.901 160.38C195.922 158.281 195.5 156.182 195.219 153.802C194.802 148.901 196.198 144.146 198.016 139.667C198.995 137.286 200.255 134.906 201.375 132.526C201.516 132.25 201.792 131.828 201.932 131.547C204.87 128.188 208.646 128.047 212.698 128.75C214.099 129.026 215.359 129.589 216.474 130.286C221.51 133.646 226.542 133.229 231.719 130.849C234.516 129.589 237.172 128.188 239.687 126.651C240.526 126.089 242.068 126.51 242.344 125.25C242.484 124.271 241.646 123.432 241.088 122.589C237.87 116.714 236.474 110.271 238.151 103.833C239.828 97.2552 242.203 90.8177 245.281 84.8021C246.542 82.1406 248.5 80.0417 250.453 77.9427C253.672 74.4427 255.771 70.5261 256.328 65.625C257.307 56.3854 262.062 49.25 269.891 44.2083C271.849 42.9531 273.948 41.6927 276.047 40.4323C279.542 38.474 282.755 36.2344 285.411 33.1511C288.073 30.0729 291.568 27.974 294.922 25.7344C295.344 25.4531 295.76 25.1771 296.323 25.3177C296.458 25.3177 296.599 25.4531 296.74 25.5938C297.302 25.4531 297.578 25.1771 298 24.8958C300.656 22.9375 303.734 22.375 306.948 22.2344C308.625 22.2344 310.026 22.9375 311.281 23.9167C313.099 25.5938 314.078 27.8333 314.219 30.2135C314.359 31.7552 314.078 33.2917 313.802 34.6927C312.823 39.4531 311.703 44.2083 309.885 48.6875C308.349 52.4688 306.25 55.6875 303.312 58.4844C301.073 60.724 298.979 62.9636 297.021 65.4844C295.203 67.724 293.526 69.9636 291.984 72.3438C288.208 77.8021 284.016 83.1198 279.958 88.2969C273.948 95.9948 267.094 102.854 260.104 109.573C259.125 110.552 258.286 111.531 257.589 112.792C255.771 115.87 253.531 118.813 251.297 121.469C249.755 123.432 248.078 125.25 246.401 127.208C246.12 127.63 245.703 128.047 245.422 128.328C245.281 128.609 245.422 128.891 245.562 128.891C246.26 128.891 246.958 128.891 247.656 128.891C250.875 128.891 253.953 128.75 257.167 128.75C258.703 128.75 260.245 129.026 261.781 129.307C262.344 129.448 262.76 129.167 263.042 128.75C264.297 127.208 266.115 126.786 267.797 126.229C272.828 124.688 278.141 124.552 283.318 124.969C285.693 125.109 288.073 125.807 290.167 127.068C294.505 129.729 299.12 129.589 303.87 129.307C310.167 128.891 316.177 126.927 322.469 125.948C329.74 124.969 336.734 125.391 343.443 128.609C345.682 129.589 347.922 130.568 350.578 130.146C350.995 130.01 351.693 129.87 351.833 130.708C351.693 130.849 351.693 130.99 351.557 131.13C349.036 134.068 345.823 135.885 342.187 136.589C338.693 137.286 335.193 137.708 331.698 137.844C329.463 137.984 327.365 137.427 325.125 137.005C321.63 136.307 318.276 136.448 314.917 137.568C312.682 138.266 310.302 138.964 307.927 139.245C305.969 139.526 304.151 139.526 302.333 139.245C297.302 138.828 292.547 137.844 287.792 136.026C285.411 135.188 282.896 134.906 280.38 134.484C278.844 134.208 277.443 133.927 275.906 134.068C275.766 134.484 276.182 134.625 276.464 134.766C278.703 136.026 280.797 137.427 282.479 139.245C284.854 141.766 285.974 144.703 286.255 148.063C286.391 150.865 285.833 153.521 284.995 156.182C284.573 157.583 284.016 158.979 283.594 160.24C283.177 161.359 283.036 162.62 283.036 163.74C283.036 164.719 282.896 165.698 282.896 166.818C282.755 170.599 281.776 173.958 280.38 177.453C278.562 181.656 276.464 185.854 274.089 189.771C272.687 192.01 271.01 193.969 269.474 195.932C266.255 199.99 263.458 204.328 260.661 208.667C259.266 210.766 258.005 212.865 256.609 214.964C255.208 217.068 253.531 218.745 251.297 220.005C251.016 220.146 250.734 220.286 250.453 220.422C247.24 222.661 243.604 223.646 239.687 224.484C239.271 224.625 238.849 224.625 238.427 224.625C238.01 224.625 237.729 224.484 237.312 224.484C237.172 226.724 236.193 228.682 235.495 230.641C234.094 234.281 231.297 236.661 227.521 237.922C226.266 238.339 224.865 238.62 223.469 238.76C221.51 238.901 219.552 238.479 217.875 237.359C216.755 236.661 215.635 235.958 214.516 235.26C212.281 234 209.901 233.161 207.385 233.443C206.266 233.583 205.151 233.719 204.031 234.141C201.234 234.979 198.719 236.24 196.062 237.641C192.984 239.318 190.187 241.281 187.25 243.099C185.99 243.797 184.734 244.635 183.474 245.198C179.698 247.156 175.786 247.016 172.01 245.057C170.891 244.5 169.771 243.656 168.651 242.958C167.396 242.12 166.135 241.141 164.74 240.297C163.62 239.458 162.219 238.901 160.823 239.042C157.047 239.458 153.13 239.318 149.354 239.599C148.099 239.74 146.838 239.74 145.578 239.74C143.484 239.74 141.802 238.62 140.266 237.219C138.729 235.958 137.328 233.719 136.49 231.063ZM355.193 273.609C354.073 266.333 349.74 261.016 344.422 256.396C342.328 254.714 339.948 253.875 337.151 253.875C332.958 253.875 329.042 254.573 324.984 255.417C319.255 256.677 313.521 257.932 307.646 257.375C303.312 256.953 299.396 255.557 296.323 252.333C294.365 250.375 292.687 248.135 291.005 246.036C288.771 243.24 286.531 240.578 283.594 238.479C277.865 234.141 271.432 233.443 264.578 234.422C254.51 235.958 245.562 239.74 238.568 247.297C237.312 248.839 237.729 250.234 238.708 251.635C239.547 252.896 240.109 253.177 241.505 252.896C242.766 252.615 244.021 252.198 245.281 251.776C247.24 251.219 249.057 251.078 251.016 251.495C253.25 252.057 254.932 253.177 255.771 255.417C256.047 255.974 256.187 256.536 256.469 257.234C257.167 259.193 258.005 261.151 258.984 262.974C260.385 265.63 262.62 267.031 265.698 267.172C267.797 267.172 269.891 267.313 271.849 267.453C274.505 267.594 276.745 268.573 278.562 270.531C279.542 271.51 280.38 272.49 281.219 273.469C282.896 275.708 284.297 278.089 285.552 280.469C287.932 284.807 291.005 288.589 295.203 291.385C298 293.344 300.797 295.302 303.453 297.406C305.687 299.083 307.786 300.901 310.026 302.443C312.26 303.984 314.5 305.104 317.156 305.943C319.812 306.781 322.609 307.203 325.547 307.344C329.042 307.479 331.979 306.359 334.354 303.844C336.172 302.021 337.292 299.922 338.271 297.682C339.531 294.885 340.51 291.948 341.068 288.865C341.208 288.026 341.625 287.328 342.463 287.047C342.745 286.906 343.167 286.766 343.443 286.484C346.104 285.089 348.62 283.406 350.995 281.589C352.536 280.328 354.073 279.068 355.052 277.109C355.469 275.99 355.328 274.87 355.193 273.609ZM239.13 295.302C235.771 292.505 232.135 289.984 229.062 287.047C221.088 279.63 211.583 278.37 201.234 279.208C197.177 279.49 193.125 280.609 189.208 281.729C181.797 283.688 174.526 283.828 167.396 280.891C164.74 279.771 162.078 278.927 159.422 278.089C153.271 276.271 147.26 276.688 141.667 280.047C135.51 283.828 132.297 289.708 129.5 296.005C128.802 297.542 129.917 297.542 130.896 297.682C133.693 297.964 136.073 298.943 138.307 300.625C139.427 301.604 140.547 302.443 141.667 303.422C145.021 306.359 148.797 308.599 153.13 309.583C153.828 309.719 154.531 309.859 155.088 310C159.984 310.979 164.74 310.839 169.354 309.162C171.448 308.464 173.406 307.62 175.365 306.641C177.042 305.802 178.719 304.964 180.401 304.12C183.896 302.443 187.531 301.464 191.167 300.063C196.062 298.104 201.094 297.682 206.266 297.406C209.062 297.266 211.724 297.682 214.516 298.245C217.177 298.802 219.974 299.224 222.771 299.505C225.286 299.781 227.802 299.781 230.318 300.063C231.859 300.203 233.396 300.203 235.073 300.484C236.474 300.766 237.729 300.766 239.13 300.344C239.406 299.365 240.109 298.662 240.109 297.682C240.667 296.422 239.828 295.865 239.13 295.302ZM192.703 33.5729C193.963 36.0938 195.219 38.474 196.338 40.9896C198.016 44.7708 199.698 48.4115 201.516 52.0469C204.87 58.625 208.927 64.5052 214.24 69.8229C216.057 71.6458 217.875 73.6042 219.411 75.8438C219.552 76.2604 219.693 76.5417 220.109 76.6823C221.088 78.5 222.63 79.7604 223.885 81.3021C225.005 82.8386 226.266 84.2396 227.385 85.7813C227.943 86.6198 228.359 87.3177 228.922 88.1615C229.203 88.4375 229.479 88.7188 229.76 89C229.901 89 230.042 89.1406 230.042 89C230.177 88.8594 230.318 88.7188 230.318 88.5781C229.901 87.7396 229.62 86.9011 229.203 86.0573C228.641 85.0781 228.5 84.2396 228.5 83.1198C228.5 80.0417 228.5 76.9636 228.5 73.8854C228.5 73.3229 228.641 72.9011 228.5 72.3438C228.083 71.0833 228.224 69.8229 228.224 68.5625C228.224 68.0052 228.224 67.5833 228.083 67.0261C227.943 66.3229 227.802 65.625 227.802 64.9271C227.802 64.3646 227.802 63.8073 227.661 63.2448C227.385 62.2656 227.245 61.2865 227.104 60.3073C226.682 58.0677 226.406 55.6875 225.984 53.4479C224.724 47.5677 223.047 41.8333 220.391 36.5104C218.854 33.4323 217.312 30.3542 215.776 27.276C215.219 26.0156 214.38 24.8958 213.542 23.776C212.562 22.375 211.161 21.5365 209.484 21.1146C206.969 20.5573 204.312 20.6979 201.792 21.3958C198.437 22.375 195.641 24.0573 193.125 26.5729C191.583 28.1146 191.307 29.7969 192.005 31.7552C192.146 32.4531 192.422 33.0156 192.703 33.5729Z" fill="#BE756D"/>
<mask id="mask0_183_115" style="mask-type:luminance" maskUnits="userSpaceOnUse" x="108" y="13" width="251" height="286">
<path d="M108.464 13.6979H358.464V298.667H108.464V13.6979Z" fill="white"/>
</mask>
<g mask="url(#mask0_183_115)">
<path d="M140.964 101.036C139.011 97.6771 138.031 94.0365 138.448 90.2604C138.589 88.5781 139.011 86.7604 139.568 85.0781C140.964 80.599 143.063 76.401 145.302 72.3438C146.839 69.5417 148.516 66.8854 150.333 64.3646C151.875 62.125 153.693 60.1667 155.787 58.349C157.886 56.526 160.261 55.2656 162.922 54.4271C165.578 53.5885 168.375 53.026 171.307 53.026C173.688 53.026 175.787 53.5885 177.88 54.4271C180.677 55.4063 183.474 55.9688 186.271 56.1094C188.37 56.25 190.604 56.3854 192.563 56.9479C195.922 57.7865 198.859 59.4688 201.375 61.7083C203.193 63.3854 204.729 65.0677 206.13 67.026C208.365 69.9635 211.021 72.2031 214.24 74.0208C215.776 74.8646 217.313 75.7031 218.854 76.5417C219.412 76.8229 220.109 76.5417 220.672 76.9635C223.469 80.4635 226.682 83.6823 229.063 87.599C227.662 85.3594 227.802 82.9792 227.943 80.4635C228.083 72.625 227.386 64.9271 225.844 57.2292C225.563 56.1094 225.146 54.849 225.844 53.7292C226.406 53.3073 226.406 52.75 226.542 52.1875C227.104 49.1094 228.083 46.3125 229.479 43.3698C231.719 38.474 234.792 33.8542 238.292 29.7969C240.526 27.1354 242.906 24.7552 245.839 22.7969C246.818 22.099 247.938 21.6771 249.057 21.2552C251.297 20.5573 253.391 20.276 255.771 20.276C258.427 20.4167 261.224 20.276 263.88 20.276C265.136 20.276 266.396 19.9948 267.516 19.4375C268.912 18.7396 270.172 18.0365 271.573 17.4792C275.208 15.6563 278.979 14.5365 283.037 13.9792C284.573 13.6979 286.115 14.1198 287.651 14.8177C290.026 16.0781 291.984 17.8958 293.526 20.1354C294.781 21.8177 295.761 23.6354 296.88 25.4531C295.203 26.5729 293.526 27.8333 291.708 28.9531C290.167 29.9323 288.912 31.0521 287.651 32.3125C286.672 33.2917 285.693 34.2708 284.714 35.2552C283.037 37.0729 280.938 38.474 278.703 39.8698C276.047 41.5521 273.109 43.0885 270.453 44.7708C267.797 46.5885 265.276 48.5521 263.318 51.2083C262.62 52.1875 261.781 53.1667 261.083 54.2865C260.526 54.9896 260.104 55.8281 259.823 56.6667C258.844 59.0469 258.005 61.4271 257.589 64.0833C257.307 65.2031 257.307 66.3229 257.167 67.4427C257.026 69.5417 256.328 71.6458 255.208 73.4635C253.953 75.5625 252.552 77.3802 250.875 79.2031C247.797 82.5625 245.141 86.1979 243.886 90.6771C243.745 91.2396 243.464 91.9375 243.323 92.5C242.906 94.3177 242.203 96.1354 241.365 97.8177C240.667 99.3542 239.969 100.896 239.406 102.573C238.849 104.255 238.568 105.932 238.568 107.755C238.568 108.734 238.568 109.573 238.568 110.552C238.568 113.771 239.13 116.854 240.526 119.792C241.505 121.75 242.203 123.708 243.464 125.531C243.604 125.667 243.604 125.807 243.745 126.089C243.886 126.37 243.745 126.651 243.323 126.786C240.807 127.068 238.708 128.609 236.474 129.87C232.974 131.688 229.479 133.37 225.563 133.927C224.026 134.208 222.63 133.786 221.089 133.37C219.552 132.948 218.156 132.385 216.755 131.547C215.219 130.568 213.542 129.87 211.724 129.589C209.766 129.307 207.807 129.448 205.99 130.146C204.87 130.568 203.891 131.13 203.052 131.688C202.771 131.828 202.495 131.969 202.214 132.25C202.354 131.969 202.354 131.687 202.495 131.406C202.63 131.13 202.354 130.849 202.073 130.849C200.953 130.708 199.698 130.708 198.578 130.427C196.479 130.01 194.662 129.026 193.125 127.49C192.422 126.786 191.724 126.229 191.167 125.531C190.328 124.552 189.208 123.849 187.948 123.292C186.693 122.729 185.573 122.172 184.313 121.609C183.615 121.328 182.776 120.911 182.078 120.49C179.422 118.672 176.484 117.969 173.406 117.552C170.609 117.13 167.672 116.573 164.875 116.151C163.62 116.01 162.219 115.87 160.964 115.594C158.724 115.313 156.49 115.031 154.25 114.333C152.292 113.771 150.474 112.792 148.938 111.672C146.979 110.135 145.443 108.313 143.901 106.354C143.063 104.115 141.943 102.573 140.964 101.036ZM137.193 230.359C138.307 230.083 139.427 229.661 140.547 229.943C141.667 230.224 142.922 230.224 144.042 230.359C145.859 230.641 147.677 231.063 149.495 231.479C152.151 232.182 154.807 232.599 157.464 232.464C158.724 232.464 159.984 232.464 161.24 232.464C163.339 232.464 165.156 232.042 167.115 231.479C170.609 230.359 173.969 228.823 177.323 227.141C179.698 226.021 182.078 225.182 184.594 224.484C186.833 223.781 189.068 223.365 191.448 223.083C193.125 222.802 194.943 222.526 196.62 222.526C199.974 222.661 203.333 222.526 206.688 222.526C207.245 222.526 207.667 222.526 208.224 222.385C210.745 221.682 213.401 221.266 215.776 219.865C217.037 219.167 218.432 218.464 219.833 217.906C222.771 216.505 225.844 215.245 229.203 215.245C229.761 215.245 230.177 215.104 230.599 214.547C230.177 213.984 229.62 213.286 229.203 212.724C228.641 211.885 227.943 211.188 228.083 210.068C228.083 209.927 227.943 209.786 227.802 209.646C227.662 209.786 227.521 209.927 227.386 209.786C226.823 209.37 226.406 208.807 225.844 208.526C223.469 206.849 221.089 205.307 218.714 203.63C217.313 202.651 215.917 201.531 214.516 200.411C211.724 197.891 208.505 195.792 204.729 194.953C201.792 194.25 198.859 193.833 195.781 193.969C194.943 193.969 194.104 194.109 193.125 194.25C190.328 194.672 187.813 195.51 185.292 196.911C183.755 197.75 182.495 198.729 181.099 199.849C176.901 203.349 171.87 205.448 166.693 207.13C162.922 208.25 159.146 209.646 155.646 211.469C153.412 212.589 151.313 213.844 149.214 215.104C146.417 216.786 143.625 218.464 141.104 220.563C139.146 222.245 137.328 224.063 136.63 226.724C136.214 228.12 136.073 229.661 136.63 231.203C136.63 230.781 136.912 230.5 137.193 230.359ZM237.172 283.13C236.474 282.427 235.912 281.729 235.214 281.167C233.818 279.906 232.276 278.786 230.458 278.089C225.844 276.411 221.229 274.448 216.615 272.63C212.839 271.089 208.927 269.969 204.87 269.411C201.234 268.854 197.599 268.854 193.964 268.714C190.188 268.573 186.271 268.292 182.495 267.734C177.74 267.031 173.125 265.911 168.375 265.495C166.276 265.354 164.177 264.932 161.943 264.932C158.865 264.792 155.927 264.932 152.849 264.792C149.776 264.792 146.839 265.214 143.901 265.771C140.406 266.474 136.771 267.453 133.276 268.292C129.219 269.271 125.302 270.391 121.531 272.349C116.776 274.87 112.719 278.37 109.781 282.99C108.802 284.526 108.662 286.068 109.224 287.604C109.781 289.427 110.761 290.964 112.021 292.224C115.234 295.302 119.011 296.984 123.484 297.266C125.302 297.406 126.984 297.266 128.802 297.542C129.5 297.682 130.198 297.542 130.896 297.542C130.62 297.125 129.917 297.406 129.641 296.844C130.479 294.745 131.177 292.646 132.438 290.688C133.693 288.865 134.953 287.047 136.073 285.229C136.912 284.109 137.75 282.99 138.87 282.286C140.964 280.75 143.203 279.49 145.578 278.51C147.677 277.672 149.917 277.531 152.151 277.25C152.573 277.25 152.99 277.391 153.412 277.391C153.828 277.391 154.109 277.531 154.531 277.531C156.208 277.531 157.886 277.948 159.422 278.51C163.057 279.771 166.833 281.026 170.469 282.286C172.99 283.13 175.505 283.547 178.162 283.547C179.557 283.547 181.099 283.406 182.495 283.266C184.594 282.99 186.693 282.568 188.787 282.146C192.005 281.448 195.219 280.469 198.438 279.906C200.115 279.63 201.651 279.49 203.333 279.349C206.969 279.208 210.464 279.49 213.958 280.047C217.453 280.609 220.672 281.729 223.609 283.688C226.682 285.646 229.339 288.307 232.276 290.547C234.516 292.365 236.75 294.188 238.99 296.005C239.547 296.422 239.688 296.984 239.828 297.542C240.109 296.844 240.25 296.005 240.526 295.302C240.807 294.604 240.948 294.047 240.948 293.344C241.224 289.286 240.109 285.786 237.172 283.13ZM356.172 262.135C355.469 260.453 354.49 258.917 353.375 257.375C352.813 256.536 352.255 255.693 351.417 254.995C349.037 252.896 346.38 251.078 343.307 249.818C341.068 248.839 338.828 247.859 336.594 246.875C334.214 245.755 332.261 244.078 331.141 241.557C330.021 239.042 328.344 236.802 326.802 234.422C324.984 231.76 322.609 229.943 319.672 228.823C319.396 228.682 319.255 228.682 318.974 228.542C315.198 226.724 311.141 226.583 307.089 226.302C306.948 226.302 306.667 226.302 306.531 226.302C304.99 226.724 303.594 226.443 302.052 226.583C300.234 226.724 298.276 226.583 296.458 227C293.245 227.563 290.026 227.844 286.813 228.401C284.016 228.823 281.5 228.401 278.979 227C277.302 226.021 275.625 225.182 273.667 224.484C271.432 223.781 269.193 223.646 266.958 223.365C266.537 223.365 266.255 223.365 265.839 223.365C263.182 223.646 260.802 224.625 258.427 226.021C254.932 228.26 251.854 231.063 248.776 233.859C247.099 235.542 245.422 237.359 243.886 239.042C242.068 241.141 240.386 243.38 238.99 245.755C238.708 246.177 238.708 246.599 238.432 247.016C239.547 246.74 240.386 246.177 241.089 245.339C241.365 244.917 241.787 244.635 242.203 244.219C244.162 242.12 246.682 240.578 249.339 239.318C252.136 237.922 254.932 236.802 257.865 235.958C260.802 235.12 263.74 234.422 266.958 234.422C267.375 234.422 267.797 234.422 268.214 234.281C269.052 234 269.891 234 270.594 234.141C271.849 234.281 273.109 234.422 274.365 234.563C276.745 234.979 279.12 235.818 281.219 237.078C282.339 237.781 283.318 238.479 284.297 239.177C287.229 241.839 289.75 244.776 292.125 247.859C293.662 249.818 295.203 251.635 297.021 253.318C298 254.297 299.255 254.995 300.516 255.557C302.891 256.677 305.412 257.375 308.208 257.375C308.766 257.375 309.188 257.375 309.745 257.516C310.583 257.797 311.422 257.797 312.401 257.516C312.823 257.375 313.24 257.375 313.662 257.375C316.037 257.516 318.417 256.953 320.792 256.536C324.568 255.833 328.203 254.854 331.979 254.297C334.495 253.875 337.011 254.156 339.531 254.156C339.672 254.156 339.807 254.156 339.948 254.297C341.906 254.854 343.583 255.693 344.984 257.094C347.5 259.333 349.599 261.714 351.417 264.51C353.932 268.292 355.193 272.49 355.193 276.969C355.75 276.552 356.031 275.849 356.307 275.151C358.266 270.953 358.125 266.615 356.172 262.135ZM286.672 118.672C283.177 118.672 279.682 118.953 276.182 119.37C272.688 119.792 269.891 121.328 267.375 123.708C265.698 125.25 264.578 127.208 263.458 129.167C263.74 129.026 264.162 128.75 264.438 128.609C268.354 126.786 272.412 126.089 276.604 125.807C278.563 125.667 280.662 125.807 282.615 125.807C284.156 125.807 285.552 126.089 287.094 126.51C288.771 126.927 290.307 127.771 291.708 128.609C292.266 129.026 292.964 129.307 293.526 129.448C295.203 130.01 297.021 130.286 298.839 130.286C300.938 130.286 303.031 130.568 304.99 130.01C306.531 130.146 308.068 129.729 309.604 129.589C312.261 129.167 314.917 128.469 317.438 127.906C320.37 127.208 323.448 126.51 326.526 126.651C327.083 126.651 327.505 126.651 328.063 126.51C328.625 126.37 329.182 126.229 329.74 126.51C330.443 126.786 331.141 126.651 331.839 126.786C332.537 126.786 333.234 126.786 333.938 126.786C336.734 127.349 339.531 127.771 342.047 128.891C343.307 129.448 344.563 130.01 345.823 130.427C347.641 131.13 349.458 131.547 351.276 130.849C351.557 130.708 351.833 130.849 352.115 131.13C353.375 129.87 353.932 128.328 354.354 126.651C354.63 125.391 354.354 124.271 353.375 123.432C352.672 122.87 351.974 122.312 351.276 121.891C348.761 120.49 346.38 118.953 344.146 117.271C343.724 116.99 343.307 116.573 342.745 116.292C341.208 115.453 339.672 114.615 337.849 114.615C332.958 114.474 328.063 114.891 323.307 116.01C319.115 116.99 315.057 118.531 311.005 119.932C308.208 120.911 305.412 121.891 302.474 121.75C301.073 121.609 299.677 121.328 298.417 121.193C296.182 120.771 294.083 120.073 291.844 119.51C290.026 118.953 288.349 118.672 286.672 118.672ZM297.162 25.7344C297.021 25.5938 297.021 25.4531 296.74 25.4531C296.74 25.5938 296.88 25.7344 297.162 25.7344ZM352.255 131.13C352.115 131.266 351.974 131.406 351.974 131.547C352.115 131.547 352.255 131.406 352.255 131.13Z" fill="#B5675F" fill-opacity="0.62"/>
</g>
<path d="M304.292 319.938C303.734 320.219 303.172 320.5 302.615 320.776C283.177 330.714 263.88 340.51 244.443 350.448C244.161 350.589 243.885 350.729 243.604 350.87C243.182 351.151 242.625 351.151 242.203 350.87C240.667 350.031 239.13 349.328 237.729 348.49C219.693 339.255 201.792 330.156 183.755 320.917C183.057 320.635 182.495 320.219 181.797 319.938C181.797 319.521 182.078 319.521 182.354 319.521C182.917 319.521 183.333 319.521 183.896 319.521C223.328 319.521 262.901 319.521 302.333 319.521C303.031 319.521 303.734 319.521 304.432 319.521C304.292 319.656 304.292 319.797 304.292 319.938Z" fill="#5D3524" fill-opacity="0.79"/>
<path d="M174.104 365.708C174.104 365.568 174.104 365.427 174.104 365.427C174.104 365.286 174.245 365.286 174.385 365.146C174.667 365.005 174.943 364.865 175.224 364.724C179.698 362.906 184.313 361.646 189.068 360.807C189.349 360.807 189.63 360.807 189.766 360.807C191.448 360.385 193.125 360.385 194.802 360.25C200.813 359.969 206.688 360.948 212.422 362.484C217.453 363.885 222.349 365.427 227.385 366.964C232.135 368.505 236.891 369.766 241.786 370.604C241.927 370.604 242.068 370.745 242.344 370.885C242.484 370.885 242.484 370.885 242.625 370.885C243.323 370.885 244.021 370.885 244.583 371.167C247.099 371.302 249.615 371.583 252.135 371.724C254.37 371.865 256.469 371.865 258.703 371.724C261.224 371.583 263.599 371.302 265.979 371.026C271.151 370.188 276.047 368.927 280.938 367.245C287.229 365.146 293.385 362.625 299.536 359.969C303.031 358.427 306.531 357.026 310.167 355.906C310.583 355.771 311.005 355.63 311.422 355.63C311.422 355.63 311.563 355.771 311.703 355.906C311.703 356.047 311.703 356.188 311.703 356.328C311.563 356.609 311.281 356.609 311.141 356.75C309.885 357.167 308.625 357.589 307.37 358.01C303.313 359.547 299.396 361.229 295.344 362.906C288.771 365.568 282.198 368.083 275.484 370.047C270.172 371.583 264.859 372.422 259.266 372.844C254.792 373.125 250.177 372.984 245.703 372.286C244.724 372.146 243.745 372.286 242.906 371.865C242.203 371.865 241.505 371.865 240.948 371.583H240.807L240.667 371.443C238.99 371.443 237.453 370.885 235.911 370.464C231.156 369.344 226.542 367.807 221.792 366.266C217.036 364.724 212.281 363.328 207.385 362.349C202.63 361.37 197.88 360.948 193.125 361.229C192.563 361.229 192.146 361.229 191.583 361.229C190.469 361.786 189.208 361.646 188.089 361.786C183.615 362.625 179.281 363.745 175.083 365.427C174.807 365.568 174.385 365.708 173.969 365.844C174.245 365.844 174.104 365.708 174.104 365.708ZM174.526 328.198C175.365 328.474 176.203 328.755 177.042 328.896C179.839 329.734 182.354 330.995 184.734 332.953C185.99 334.073 187.391 335.052 188.786 336.036C191.307 337.854 193.682 339.953 195.781 342.333C198.859 345.693 202.495 348.208 206.688 350.031C213.12 352.828 219.693 354.51 226.682 355.068C229.063 355.208 231.438 355.63 233.677 356.328C236.333 357.167 238.99 358.01 241.505 358.99C244.021 359.828 246.682 360.385 249.479 360.385C250.318 360.385 251.297 360.385 252.135 360.25C253.25 360.109 254.37 359.969 255.49 359.688C259.125 358.99 262.479 357.729 265.839 356.328C272.411 353.667 278.422 349.891 283.318 344.714C285.693 342.193 288.349 339.953 291.005 337.714C292.688 336.313 294.505 335.193 296.323 334.214C299.536 332.677 302.891 331.276 306.25 330.016C307.646 329.453 309.047 328.896 310.443 328.198C310.724 328.057 311.146 327.917 311.422 327.635C311.703 327.495 311.703 327.219 311.563 326.938C311.422 326.656 311.146 326.656 311.005 326.797C309.188 327.635 307.37 328.333 305.552 329.036C303.172 330.016 300.938 330.854 298.557 331.833C295.203 333.234 291.984 335.052 289.328 337.573C286.813 339.813 284.297 342.052 281.917 344.432C279.958 346.391 277.865 348.208 275.625 349.75C269.193 353.948 262.203 356.891 254.651 358.427C250.318 359.266 245.839 359.13 241.646 357.448C239.271 356.609 236.75 355.771 234.375 355.068C231.859 354.229 229.339 353.807 226.823 353.667C225.563 353.531 224.167 353.391 222.906 353.25C216.615 352.271 210.464 350.448 204.729 347.651C202.354 346.531 200.255 345.13 198.438 343.172C197.599 342.333 196.76 341.63 196.063 340.792C194.245 338.833 192.286 337.151 190.188 335.474C188.51 334.214 186.833 333.094 185.151 331.693C181.938 329.036 178.302 327.917 174.385 326.938H174.245C174.104 326.938 174.104 327.078 173.969 327.219C173.969 327.354 173.969 327.495 173.969 327.635C174.104 328.057 174.385 328.198 174.526 328.198ZM237.172 282.146C237.172 282.849 237.453 283.406 237.87 283.828C238.432 284.25 238.849 284.807 238.99 285.505C238.849 286.208 239.271 286.625 239.688 287.047C241.089 289.286 241.365 291.667 241.224 294.188C240.526 296.005 240.25 298.104 239.406 299.922V300.063C239.271 300.484 238.99 300.484 238.708 300.625C238.151 300.766 238.01 301.042 238.151 301.604C238.432 303.563 238.708 305.661 238.708 307.62C238.849 310.281 238.708 313.078 238.708 315.74C238.708 318.401 238.849 321.057 238.99 323.719C238.99 324.979 239.688 325.958 240.385 326.938C241.224 328.057 241.927 327.917 242.625 326.656C243.464 324.979 243.745 323.156 243.885 321.339C244.021 318.677 244.161 316.021 244.302 313.359C244.302 311.401 244.443 309.443 244.302 307.479C244.021 304.401 243.745 301.323 243.464 298.245C243.323 296.703 243.182 295.167 243.182 293.766C243.182 288.724 243.182 283.547 243.182 278.51C243.182 272.911 243.182 267.313 243.182 261.714C243.182 260.453 243.182 259.333 243.323 258.073C243.464 256.536 243.604 254.995 243.745 253.318C243.745 252.755 243.604 252.615 243.042 252.615C242.484 252.755 242.068 252.755 241.505 252.896C240.385 253.177 239.688 252.755 239.13 251.917C238.708 251.354 238.432 250.797 238.151 250.375C238.151 249.818 238.151 249.396 238.151 248.839C238.292 248.417 238.568 248.135 238.568 247.719C239.969 244.917 241.786 242.401 243.885 240.021C244.302 239.458 244.583 239.042 244.583 238.339C244.583 236.802 244.583 235.26 244.865 233.859C245.141 230.922 245.141 228.12 245.281 225.182C245.281 224.766 245.422 224.484 245 224.062C244.161 224.203 243.182 224.344 242.344 224.625C242.203 224.625 241.927 224.625 241.786 224.766C241.505 225.042 240.948 225.042 240.526 225.182C238.99 225.464 239.271 225.604 239.13 226.724C239.13 228.401 238.99 229.943 238.849 231.62C238.568 233.443 238.432 235.401 238.432 237.219C238.432 238.901 238.432 240.578 238.292 242.26C238.292 243.38 238.292 244.359 238.292 245.479C237.87 246.599 238.01 247.859 238.01 248.979C238.01 249.536 238.01 249.958 238.01 250.516C238.01 250.938 238.01 251.219 237.87 251.635C237.87 256.396 237.87 261.156 237.729 265.911C237.729 266.891 237.729 267.87 237.729 268.99C237.031 273.193 237.313 277.667 237.172 282.146ZM175.505 418.615C177.042 418.615 178.719 418.75 180.26 418.615C183.755 418.474 187.25 417.495 190.469 416.375C194.245 414.974 197.88 413.292 201.651 411.755C211.724 407.417 222.068 404.198 232.839 402.234C234.656 401.958 236.474 401.536 238.151 401.255C238.708 401.255 239.13 401.255 239.688 401.115C242.906 400.698 245.979 400.135 249.198 399.719C254.37 399.016 259.682 398.458 264.859 397.755C268.911 397.339 272.828 396.5 276.604 395.38C282.057 393.839 287.229 391.74 292.125 389.078C293.526 388.38 294.781 387.401 296.042 386.422C297.021 385.443 298 384.464 298.276 383.063C298.417 382.5 298.557 382.083 298.276 381.521C298.276 381.24 298.276 380.964 297.859 380.823C297.302 379.984 296.323 379.703 295.484 379.703C294.083 379.563 292.688 379.563 291.286 379.703C287.51 379.844 283.875 380.682 280.099 381.521C273.25 383.063 266.536 384.599 259.547 385.583C253.531 386.422 247.521 387.12 241.365 386.979C235.635 386.839 230.042 386.141 224.448 384.323C221.51 383.344 218.714 382.359 215.917 381.521C214.516 381.104 213.12 380.542 211.724 380.542C210.88 380.12 210.042 380.12 209.203 380.12C207.385 379.703 205.568 379.844 203.75 379.844C203.052 379.844 202.354 379.703 201.651 380.12C201.234 379.984 200.813 380.12 200.396 380.26C198.719 380.401 196.901 380.682 195.359 381.24C193.266 381.521 191.448 382.224 189.49 382.922C188.37 383.203 187.391 383.479 186.411 384.042C183.615 385.021 181.099 386.141 178.443 387.542C178.021 387.682 177.464 387.823 177.042 388.099C176.063 388.802 174.807 389.078 173.969 390.057C173.969 390.057 173.969 390.198 174.104 390.198C175.365 390.057 176.203 389.219 177.323 388.802C177.88 388.521 178.443 388.24 179 387.958C181.656 386.839 184.313 385.719 186.969 384.599C188.089 384.323 189.208 383.901 190.328 383.479C192.286 382.922 194.245 382.359 196.339 381.943C197.74 381.661 199.135 381.521 200.536 381.24C201.094 381.104 201.651 381.104 202.214 380.823C203.609 380.823 205.151 380.823 206.547 380.682C207.948 380.823 209.344 380.964 210.745 381.104C214.38 381.943 217.875 383.203 221.37 384.464C228.5 387.12 235.771 388.24 243.323 388.24C246.401 388.24 249.479 387.958 252.552 387.682C258.844 387.12 265 386 271.151 384.74C275.766 383.76 280.38 382.641 284.995 381.802C287.932 381.24 290.87 380.823 293.802 380.823C295.063 380.823 296.323 380.964 297.438 381.661C298 382.922 297.438 384.042 296.74 385.021C295.901 386 295.063 386.839 293.943 387.542C292.266 388.661 290.448 389.641 288.49 390.62C280.099 394.677 271.151 396.917 261.922 397.896C258.286 398.318 254.51 398.74 250.875 399.156C246.542 399.719 242.203 400.276 237.87 400.979C237.453 400.979 237.031 400.979 236.609 401.255C235.635 401.115 234.656 401.536 233.677 401.677C227.104 402.797 220.531 404.333 214.099 406.438C208.646 408.255 203.193 410.495 198.016 412.734C194.802 414.135 191.583 415.531 188.229 416.51C184.875 417.495 181.516 418.193 178.021 418.193C177.042 418.193 176.063 418.052 175.083 417.911C174.667 417.911 174.385 418.052 174.385 418.474C174.385 418.75 174.526 418.891 174.807 419.031C174.943 418.615 175.224 418.615 175.505 418.615ZM195.083 432.75C199.135 432.609 203.193 432.188 207.245 431.208C212.281 430.089 217.036 427.99 221.651 425.609C227.802 422.25 234.094 418.891 240.25 415.391C250.734 409.516 261.781 405.453 273.391 402.656C279.12 401.255 284.995 400.557 290.87 399.719C292.406 399.438 293.802 399.438 295.344 399.016C295.62 399.016 296.042 399.016 296.323 399.016C299.818 398.458 303.313 397.755 306.807 396.917C308.349 396.5 310.026 396.078 311.563 395.656C311.844 395.521 312.12 395.099 311.984 394.958C311.844 394.677 311.563 394.677 311.281 394.818C311.141 394.818 311.005 394.818 310.865 394.958C306.109 396.359 301.214 397.198 296.323 398.036C295.344 398.177 294.365 398.036 293.526 398.599C293.245 398.599 292.964 398.599 292.823 398.599C291.005 398.875 289.052 399.156 287.229 399.438C283.734 399.995 280.24 400.417 276.745 401.115C264.578 403.495 252.833 407.693 241.927 413.573C235.495 417.073 229.063 420.714 222.63 424.208C218.995 426.172 215.219 427.99 211.302 429.25C207.109 430.651 202.771 431.349 198.438 431.771C193.823 432.188 189.208 431.906 184.594 430.927C181.797 430.37 179.141 429.531 176.344 428.828C175.922 428.688 175.365 428.688 174.807 428.552C174.667 428.552 174.526 428.688 174.526 428.828C174.526 428.969 174.526 429.109 174.526 429.109C174.667 429.25 174.943 429.391 175.083 429.531C176.063 429.807 177.042 430.089 178.021 430.37C183.615 431.906 189.208 432.891 195.083 432.75ZM311.703 456.12C311.563 455.984 311.281 455.844 311.005 455.844C309.885 455.422 308.766 455.141 307.646 454.724C299.255 451.922 290.589 450.526 281.641 450.661C278.141 450.661 274.786 450.802 271.292 451.083C267.797 451.365 264.438 451.646 260.943 452.063C253.953 452.901 247.099 454.161 240.25 455.563C228.359 457.943 216.615 460.464 204.729 462.839C199.557 463.818 194.521 464.661 189.208 465.078C186.969 465.219 184.734 465.219 182.635 464.802C181.375 464.521 179.979 464.24 178.859 463.542C177.042 462.422 176.344 461.021 177.74 458.922C178.443 457.802 179.422 456.682 180.536 455.844C182.917 453.885 185.432 452.344 188.229 451.224C193.823 448.844 199.833 447.724 205.849 447.443C210.182 447.167 214.38 447.167 218.714 447.167C223.745 447.167 228.781 446.323 233.536 444.927C239.271 443.385 244.724 441.146 250.177 438.906C258.844 435.266 267.516 431.906 276.464 428.969C277.302 428.688 278.005 428.552 278.703 428.13C279.12 427.99 279.401 427.99 279.823 427.849C289.891 424.63 299.958 421.693 310.167 419.031C310.443 419.031 310.724 418.891 310.865 418.891C311.146 418.75 311.563 418.75 311.422 418.333C311.281 418.052 311.005 418.052 310.724 418.193C310.443 418.333 310.167 418.333 309.745 418.474C299.255 421.13 288.771 424.208 278.422 427.432C278.005 427.568 277.724 427.568 277.443 427.849C277.026 427.99 276.604 427.99 276.182 428.13C268.214 430.651 260.385 433.589 252.693 436.807C247.099 439.047 241.365 441.427 235.635 443.245C230.599 444.786 225.563 445.906 220.25 446.047C217.875 446.188 215.495 446.188 213.12 446.188C209.203 446.188 205.292 446.323 201.516 446.745C197.036 447.302 192.703 448.286 188.51 449.964C185.573 451.083 182.776 452.625 180.26 454.583C178.719 455.844 177.464 457.104 176.484 458.781C175.224 461.021 175.786 463.12 178.021 464.521C179 465.078 179.979 465.5 180.958 465.781C183.333 466.339 185.714 466.62 188.089 466.479C192.146 466.198 196.063 465.781 200.115 464.938C209.063 463.26 218.016 461.443 226.964 459.62C237.729 457.38 248.635 455.005 259.547 453.604C264.297 453.042 269.052 452.484 273.807 452.344C277.302 452.203 280.797 452.203 284.438 452.203C288.349 452.203 292.406 452.625 296.323 453.323C300.099 454.021 303.734 455.005 307.505 456.12C308.766 456.542 310.026 456.964 311.281 457.24C311.422 457.24 311.703 457.24 311.703 457.104C311.844 456.542 311.984 456.26 311.703 456.12ZM309.464 437.505H309.604C310.302 437.505 311.005 437.229 311.563 436.948C311.563 436.948 311.703 436.807 311.703 436.667L311.563 436.526C310.865 436.667 310.167 436.667 309.604 437.089C309.323 437.089 309.188 437.229 308.906 437.229C307.927 437.37 306.807 437.505 305.828 437.927C305.411 437.927 305.13 437.927 304.708 438.068C304.01 437.927 303.313 438.068 302.755 438.349C300.938 438.484 299.255 438.625 297.438 438.625C292.823 438.625 288.208 438.625 283.734 438.766C280.24 438.766 276.745 438.766 273.25 438.906C272.411 438.906 271.432 438.766 270.594 439.188C267.234 439.188 264.021 439.885 260.802 441.005C260.385 441.146 260.104 441.286 259.823 441.427C258.984 441.844 258.984 442.688 259.682 443.245C260.245 443.667 260.943 443.948 261.5 444.083C263.042 444.505 264.719 444.646 266.396 444.646C269.474 444.786 272.411 444.786 275.484 444.786C279.401 444.927 283.318 445.203 287.094 445.344C294.781 445.625 302.615 445.625 310.302 445.625C310.724 445.625 311.005 445.625 311.422 445.484C311.563 445.484 311.703 445.344 311.703 445.068C311.703 444.786 311.563 444.646 311.422 444.646C310.865 444.646 310.443 444.505 309.885 444.505C306.391 444.505 303.031 444.646 299.536 444.505C296.599 444.505 293.802 444.505 290.87 444.365C288.771 444.224 286.531 444.224 284.438 444.083C279.26 443.807 274.089 443.667 269.052 443.526C266.958 443.526 264.719 443.526 262.62 443.104C261.922 442.964 261.224 442.828 260.661 442.547C260.526 442.547 260.526 442.406 260.385 442.266C260.245 441.984 260.526 441.984 260.661 441.844C260.943 441.708 261.365 441.568 261.641 441.427C263.599 440.724 265.698 440.307 267.656 440.026C270.594 439.604 273.667 439.469 276.604 439.328C277.026 439.328 277.443 439.188 277.865 439.188C278.141 439.188 278.422 439.328 278.563 439.328C283.458 439.328 288.349 439.328 293.245 439.188C296.74 439.047 300.099 439.047 303.594 438.49C304.151 438.625 304.708 438.49 305.271 438.208C305.552 438.208 305.688 438.068 305.969 438.068C307.089 438.068 308.068 437.786 309.047 437.37C309.323 437.505 309.464 437.505 309.464 437.505Z" fill="#8C756A"/>
<path d="M278.422 248.557C278.005 248.979 277.583 249.255 277.162 249.115C276.604 249.255 275.906 249.396 275.344 249.536C275.068 249.536 274.927 249.536 274.646 249.677C273.391 250.375 271.849 250.375 270.453 250.656C269.193 250.937 268.073 251.219 266.818 251.078C266.396 251.354 265.979 251.354 265.557 251.354C265.135 251.495 264.719 251.495 264.162 251.495C263.318 251.917 262.344 251.776 261.5 251.917C260.104 252.339 258.568 252.339 257.167 252.474C256.75 252.474 256.188 252.615 255.771 252.615C255.349 252.896 254.932 252.896 254.37 252.896C254.089 252.896 253.953 252.755 253.953 252.474C254.089 252.198 254.37 252.198 254.51 252.198C254.932 252.198 255.49 252.198 255.912 252.057C257.307 251.635 258.703 251.635 260.245 251.354C261.083 251.219 261.922 250.938 262.901 250.938C263.182 250.938 263.599 250.938 263.88 250.797C264.297 250.516 264.719 250.516 265.135 250.516C265.417 250.516 265.839 250.375 266.115 250.375C266.677 250.099 267.234 249.958 267.797 250.099C269.891 249.536 271.99 249.115 274.229 248.979C274.505 248.979 274.646 248.839 274.927 248.839C275.484 248.417 276.182 248.557 276.885 248.417C277.162 248.276 277.724 248.417 278.422 248.557ZM201.792 23.4948C201.932 23.9167 201.932 24.3333 202.214 24.6146C202.214 24.8958 202.214 25.1771 202.495 25.3177C202.63 26.2969 202.912 27.1354 203.333 27.974C203.891 30.2135 204.589 32.3125 205.568 34.4115C205.99 36.0937 206.547 37.7708 206.969 39.4531C207.667 42.1094 208.646 44.6302 209.901 47.151C211.724 50.7865 213.542 54.5677 215.776 57.9271C216.057 58.349 216.198 58.625 216.474 59.0469C218.854 63.6667 221.089 68.2865 222.63 73.1823C223.047 74.4427 223.609 75.8437 224.307 76.9635C225.146 78.5 226.125 80.0417 226.682 81.5833C226.964 82.1406 227.245 82.7031 227.802 83.1198C227.943 83.2604 228.224 83.2604 228.359 83.2604C228.5 83.1198 228.5 82.9792 228.5 82.7031C227.802 81.1615 227.245 79.3437 226.266 77.9427C225.005 75.9844 224.167 73.7448 223.469 71.6458C221.792 66.3229 219.412 61.2865 216.474 56.6667C214.656 53.5885 212.839 50.5104 211.302 47.2917C209.766 44.2083 208.505 41.1302 207.526 37.9115C207.109 36.5104 206.688 34.974 205.99 33.7135C205.292 31.7552 204.448 29.6562 203.75 27.6927C203.609 26.8542 203.193 26.1562 202.912 25.4531C202.771 25.0365 202.63 24.7552 202.495 24.3333C202.354 24.0573 202.214 23.776 202.214 23.4948C201.932 22.9375 201.651 22.5156 201.094 22.375V22.2344H200.953L201.094 22.375C201.234 22.7969 201.375 23.0781 201.792 23.4948ZM200.677 163.599L200.813 163.74C200.813 163.599 200.813 163.599 200.677 163.599ZM139.287 88.7188C140.688 88.5781 142.083 88.5781 143.484 88.1615C146.839 87.7396 150.193 86.901 153.13 85.0781C155.229 83.6823 157.328 82.1406 158.583 80.0417C158.865 79.6198 159.146 79.4792 159.703 79.6198C164.875 80.7396 169.912 82.5625 174.667 84.6615C174.807 84.8021 175.083 84.8021 175.224 84.9375C175.505 85.0781 175.646 85.3594 175.365 85.7812C174.807 86.6198 174.104 87.4583 173.406 88.2969C170.328 92.2187 166.557 95.2969 162.219 97.6771C160.542 98.5156 158.865 99.2187 157.328 100.057C155.37 100.755 153.271 101.318 151.313 102.016C150.896 102.016 150.474 102.016 150.193 102.297C150.193 102.297 150.193 102.297 150.057 102.297C149.776 102.297 149.635 102.297 149.354 102.438C148.375 102.573 147.396 102.714 146.417 102.854C145.162 103.135 143.76 102.995 142.505 103.417C144.182 103.693 146 103.693 147.677 103.276C148.656 103.276 149.776 103.276 150.755 102.854C153.412 102.573 155.927 101.594 158.307 100.615C159.844 100.333 161.24 99.4948 162.641 98.7969C167.672 96.4167 171.87 92.9167 175.083 88.2969C175.646 87.4583 176.203 86.6198 176.766 85.9219C177.604 86.0573 178.162 86.4792 178.719 86.7604C180.677 88.0208 182.776 89.4167 184.734 90.6771C187.948 92.9167 191.167 95.0156 194.662 96.8385C194.943 96.9792 195.359 96.9792 195.5 97.6771C194.521 99.0781 193.542 100.615 192.563 102.016C191.026 104.396 189.068 106.214 186.833 108.036C185.714 108.875 184.453 109.714 183.333 110.693C181.656 111.953 179.979 113.073 178.021 113.771C177.182 114.052 176.484 114.474 175.646 114.891C172.99 115.594 171.87 116.151 171.031 116.854C173.125 116.714 174.807 116.151 176.484 115.312C178.443 114.891 180.401 114.193 182.078 113.073C184.594 111.531 186.969 109.714 189.208 107.896C192.005 105.656 193.964 102.714 195.922 99.776C196.198 99.3542 196.479 98.9375 196.76 98.5156C196.901 98.2344 197.177 98.099 197.599 98.2344C197.74 98.2344 198.016 98.375 198.156 98.375C203.193 100.057 208.365 101.594 213.542 102.995C215.776 103.557 217.875 104.115 220.109 104.677C220.531 104.812 221.089 104.953 221.51 105.375C221.229 105.656 221.089 105.932 220.948 106.214C218.432 109.995 215.359 113.214 212 116.01C210.464 117.271 208.927 118.531 207.526 119.651C207.245 119.792 206.969 119.932 206.688 120.073C204.031 122.031 201.094 123.568 198.156 124.969C196.76 125.531 195.359 125.948 193.964 126.51C193.823 126.51 193.682 126.786 193.682 126.927C193.682 127.208 194.104 127.208 194.245 127.208C195.781 126.651 197.458 126.229 198.859 125.391C202.214 124.13 205.427 122.448 208.224 120.073C214.099 116.151 218.995 111.391 222.771 105.516C225.984 106.776 229.063 108.312 231.859 110.135C233.953 111.531 235.912 113.073 238.01 114.615C238.292 114.891 238.568 115.172 238.849 115.453H239.13C239.271 115.453 239.271 115.313 239.271 115.172C239.271 114.615 238.99 114.333 238.568 114.052C238.011 113.63 237.589 113.073 237.031 112.651C234.094 110.271 231.021 108.036 227.521 106.214C226.682 105.797 226.682 105.797 226.964 104.953C227.521 103.557 227.521 102.297 227.245 100.896C226.823 98.7969 226.542 96.8385 226.266 94.7396C225.984 92.9167 225.703 91.099 224.865 89.5573C224.026 86.4792 222.771 83.5417 221.089 80.8802C220.391 79.3437 219.552 77.9427 218.573 76.5417C218.432 76.401 218.292 76.2604 218.156 76.5417C218.156 76.6823 218.016 76.8229 218.156 76.8229C218.995 78.3594 219.833 79.901 220.672 81.3021C221.927 83.9583 223.047 86.6198 224.026 89.5573C224.167 89.9792 224.167 90.401 224.589 90.8177C224.724 91.3802 224.865 92.0781 225.005 92.6354C225.427 95.7187 225.984 98.7969 226.406 102.016C226.542 103.135 226.266 104.255 225.563 105.234C225.427 105.234 225.287 105.234 225.146 105.234C221.37 103.557 217.313 102.573 213.26 101.453C211.021 100.896 208.927 100.198 206.688 99.4948C205.708 99.2187 205.568 99.0781 205.849 97.9583C205.99 97.5365 205.99 97.1146 206.13 96.6979C206.547 94.4583 206.828 92.2187 206.828 89.9792C206.688 87.599 206.406 85.3594 205.849 83.1198C204.031 75.7031 201.094 68.7031 197.458 61.9844C196.901 60.8646 196.198 59.8854 195.219 59.0469C194.802 58.349 194.38 57.9271 193.682 57.5052C193.542 57.3698 193.401 57.2292 193.266 57.2292C193.125 57.2292 192.984 57.2292 192.703 57.3698C192.703 57.5052 192.844 57.6458 192.844 57.7865C192.844 57.9271 192.984 57.9271 193.125 57.9271C193.682 58.4844 193.964 59.0469 194.662 59.4687C195.359 60.5885 196.198 61.7083 196.76 62.8281C199.833 68.9844 202.354 75.2813 204.031 82C204.87 85.7813 205.427 89.5573 205.01 93.4792C204.729 95.1562 204.589 96.9792 204.313 98.6562C204.172 98.6562 204.031 98.7969 203.891 98.6562C199.557 97.3958 195.359 95.8594 191.583 93.4792C189.766 92.3594 187.948 91.099 185.99 89.8385C184.313 88.7187 184.453 89 184.453 86.901C184.453 84.6615 184.594 82.5625 184.172 80.3229C183.474 75.4219 182.078 70.8021 180.12 66.1875C179.557 64.9271 179.141 63.6667 178.443 62.6875C177.182 59.8854 175.505 57.5052 173.547 55.1302C173.266 54.7083 172.99 54.2865 172.708 54.0104C172.427 53.7292 172.01 53.1667 171.729 53.4479C171.307 53.8698 172.01 54.1458 172.287 54.5677C172.568 54.9896 172.99 55.2656 173.266 55.6875C174.526 57.6458 175.787 59.6042 176.901 61.5677C177.323 62.2656 177.604 63.1042 178.162 63.6667C178.443 64.224 178.583 64.7865 178.859 65.4844C181.099 70.6615 182.776 76.1198 183.333 81.8594C183.474 83.6823 183.615 85.6406 183.333 87.4583C183.333 87.8802 183.057 87.8802 182.776 87.7396C182.354 87.599 182.078 87.3177 181.656 87.0417C180.537 86.3385 179.422 85.9219 178.443 85.0781C177.464 84.2396 176.203 83.9583 175.083 83.5417C172.568 82.4219 169.912 81.5833 167.396 80.599C166.417 80.1823 165.297 80.0417 164.318 79.7604C164.037 79.6198 163.76 79.4792 163.76 79.0625C163.76 78.6406 163.62 78.3594 163.479 77.9427C162.5 74.3021 160.261 71.6458 157.047 69.8229C156.068 68.9844 154.948 68.5625 153.828 68.2865C152.849 67.724 151.875 67.4427 150.755 67.1667C150.474 66.8854 150.193 66.7448 149.776 66.8854C149.635 66.8854 149.495 67.026 149.495 67.026C149.495 67.1667 149.635 67.3021 149.635 67.3021C149.917 67.4427 150.057 67.4427 150.333 67.5833C151.313 68.0052 152.292 68.2865 153.271 68.7031C154.25 69.2656 155.229 69.6823 156.208 70.2448C156.625 70.526 157.047 70.8021 157.328 71.224C159.422 73.0417 161.104 75.1406 161.802 77.8021C162.219 79.3437 161.802 79.2031 160.682 78.9219C156.625 77.9427 152.573 77.5208 148.375 77.1042C146.979 76.9635 145.443 77.1042 144.042 77.2396C143.203 77.3802 142.922 77.9427 142.922 78.6406C143.063 78.9219 143.344 78.7812 143.484 78.7812C145.162 78.3594 146.839 78.224 148.516 78.5C151.031 78.7812 153.693 79.0625 156.208 79.3437C156.49 79.3437 156.766 79.4792 157.188 79.4792C157.464 79.6198 157.885 79.4792 158.026 79.901C157.885 80.0417 157.885 80.3229 157.745 80.4635C156.49 81.5833 155.511 82.8385 153.969 83.6823C151.453 85.2187 149.078 86.6198 146.141 87.1771C144.88 87.4583 143.625 87.8802 142.365 88.1615C141.385 88.0208 140.547 88.4375 139.708 88.5781C139.568 88.5781 139.568 88.7187 139.568 88.8594C138.87 88.7187 139.146 88.7188 139.287 88.7188ZM349.037 130.568C348.479 129.729 347.922 128.891 347.359 128.047C347.359 127.771 347.219 127.49 347.219 127.208C348.057 126.927 348.896 127.49 349.599 127.349C349.875 127.349 350.016 127.349 350.297 127.49C350.854 127.906 351.557 127.906 352.115 127.906C352.255 127.906 352.255 128.047 352.396 128.047C353.375 128.328 353.932 128.187 353.792 127.906C353.51 127.49 352.953 127.49 352.537 127.49C351.974 127.349 351.276 127.208 350.714 127.068C350.438 127.068 350.297 127.068 350.016 126.927C349.74 126.651 349.318 126.651 349.037 126.51C348.057 126.37 347.219 126.229 346.24 125.948C345.823 125.807 345.823 125.667 346.104 125.25C346.24 125.109 346.38 124.969 346.521 124.828C347.219 124.552 347.781 124.13 348.479 123.708C349.458 123.151 350.297 122.729 351.276 122.172C351.276 122.172 351.276 122.031 351.417 121.891C351.276 121.891 351.135 121.75 351.135 121.75C350.016 122.172 349.037 122.589 348.198 123.292C347.5 123.568 346.802 123.849 346.24 124.411C345.964 124.552 345.542 124.688 345.26 124.969C344.703 125.391 344.281 125.531 343.583 125.391C343.307 125.25 343.167 125.391 342.885 125.391C342.604 125.391 342.188 125.25 341.906 125.25C341.49 124.969 341.068 124.969 340.646 124.969C338.412 124.411 336.172 124.13 333.938 123.849C332.818 123.708 331.839 123.432 330.719 123.568C329.88 123.292 329.74 123.151 330.302 122.448C330.859 121.75 331.417 121.193 331.979 120.49C333.234 119.51 334.495 118.391 335.755 117.411C336.172 117.13 336.453 116.854 336.875 116.714C337.432 116.292 338.13 116.01 338.693 115.594C338.969 115.453 339.25 115.313 339.531 115.172C339.672 115.172 339.672 115.031 339.672 114.891C339.672 114.615 339.391 114.615 339.25 114.75C338.828 114.891 338.552 114.891 338.271 115.172C337.573 115.453 336.875 115.734 336.313 116.292C335.896 116.432 335.474 116.714 335.193 116.99C333.797 117.833 332.396 118.672 331.417 120.073C330.719 120.771 329.88 121.469 329.182 122.312C328.76 122.87 328.203 123.151 327.505 123.151C322.891 122.87 318.417 123.01 313.802 123.292C312.682 123.432 311.563 123.432 310.443 123.432C310.167 123.432 309.885 123.432 309.604 123.151C310.443 122.312 311.281 121.609 312.12 120.771C312.682 120.49 313.24 120.073 313.662 119.51C313.802 119.37 313.938 119.37 313.938 119.229C314.078 119.089 314.219 119.089 314.359 118.953C314.5 118.953 314.641 118.812 314.641 118.812C314.781 118.672 314.917 118.391 314.781 118.391C314.5 118.109 314.359 118.25 314.219 118.531C314.078 118.531 313.802 118.672 313.802 118.953C313.662 118.953 313.521 118.953 313.521 119.089C312.823 119.51 312.12 119.932 311.563 120.49C310.583 121.193 309.604 121.75 308.906 122.729C308.766 122.729 308.625 122.87 308.625 122.87C308.068 123.708 307.089 123.849 306.109 123.849C304.849 123.849 303.594 123.849 302.333 123.99C298.698 124.271 295.063 124.271 291.427 124.13C291.146 124.13 290.729 124.13 290.729 123.849C290.729 123.708 291.005 123.432 291.146 123.292C291.568 123.01 291.984 122.87 292.406 122.589C293.245 122.031 294.224 121.469 295.063 120.911C295.203 120.911 295.203 120.63 295.203 120.63C295.203 120.49 294.922 120.49 294.922 120.49C294.781 120.49 294.641 120.49 294.505 120.49C292.964 121.328 291.427 122.031 290.026 123.01C288.771 123.849 287.651 124.271 286.115 123.99C285.552 123.849 284.995 123.99 284.438 123.849C283.037 123.708 281.641 123.432 280.38 123.568C279.823 123.292 279.12 123.292 278.563 123.292C276.886 123.292 275.208 123.292 273.526 123.292C273.667 122.312 274.505 121.75 274.927 120.911C275.208 120.49 275.906 120.208 275.484 119.51C274.927 119.651 274.646 120.073 274.365 120.49C273.667 121.193 272.969 121.891 272.547 122.87C272.271 123.292 271.849 123.568 271.292 123.568C268.912 124.13 266.677 125.25 264.719 126.651C264.162 127.068 264.162 127.068 263.88 127.906C264.297 127.906 264.578 127.49 265 127.349C265.979 126.786 266.958 126.089 268.073 125.531C269.193 124.969 270.453 124.552 271.849 124.271C272.271 124.13 272.688 124.271 272.969 124.688C273.25 124.969 273.526 125.25 273.667 125.531C273.807 125.667 273.948 125.807 274.089 125.807C274.229 125.807 274.365 125.807 274.365 125.807C274.505 125.807 274.505 125.667 274.505 125.531C274.229 125.25 274.089 124.969 273.807 124.688C273.526 124.411 273.667 124.13 274.089 123.99C275.068 123.99 275.906 123.99 276.885 123.849C279.401 124.271 281.917 124.552 284.438 124.688C286.115 124.828 287.792 124.969 289.469 124.969C290.167 124.969 290.448 125.25 290.729 125.807C291.287 126.786 291.844 127.771 292.406 128.75C292.688 129.167 292.964 129.448 293.385 129.448C293.526 129.448 293.662 129.448 293.662 129.307C293.662 129.307 293.802 129.026 293.662 129.026C293.104 128.187 292.547 127.349 291.984 126.51C291.708 126.089 291.287 125.807 291.427 125.25C291.568 124.969 291.844 124.969 291.984 124.969C297.719 125.109 303.594 124.687 309.323 124.271C309.885 124.271 310.167 124.411 310.443 124.688C311.281 125.667 312.12 126.786 312.964 127.771C313.24 128.047 313.521 128.328 313.938 128.188C314.078 128.188 314.359 128.188 314.5 128.047C314.641 127.906 314.5 127.63 314.5 127.49C313.802 126.651 313.099 125.807 312.401 124.828C312.26 124.552 311.984 124.411 312.12 123.99C315.896 123.708 319.813 123.292 323.729 123.432C325.266 123.432 326.802 123.568 328.203 123.568C328.761 123.99 329.464 123.849 330.021 123.849C330.719 123.849 331.281 124.13 331.417 124.828C331.557 125.25 331.698 125.531 331.839 125.807C331.979 126.089 332.261 126.089 332.537 125.948C332.818 125.948 332.677 125.667 332.677 125.531C332.537 125.109 332.261 124.687 332.396 124.271C332.537 124.271 332.677 124.13 332.958 124.13C333.516 124.13 334.214 124.271 334.776 124.271C336.313 124.411 337.714 124.828 339.25 124.828C339.672 125.109 340.089 125.109 340.51 125.109C340.787 125.109 340.927 125.109 341.208 125.25C342.188 125.667 343.167 125.807 344.146 125.807C345.542 125.948 346.24 126.51 346.662 127.771C346.943 128.609 347.5 129.448 348.057 130.146C348.198 130.286 348.479 130.427 348.76 130.286C349.318 130.849 349.177 130.708 349.037 130.568ZM277.302 226.302C276.182 226.583 275.068 227 274.089 227.562C270.172 228.823 267.094 231.479 263.88 234C263.599 234.281 263.182 234.422 263.182 234.979C264.162 235.12 265 234.703 265.698 234C268.495 231.62 271.432 229.24 274.787 227.703C275.766 227.281 276.604 227 277.583 226.583C277.583 226.583 277.724 226.302 277.583 226.302C277.583 226.443 277.443 226.302 277.302 226.302ZM352.537 260.875C352.255 260.875 351.974 260.875 351.833 260.875C350.995 261.016 350.156 261.151 349.318 261.292C349.177 261.292 349.037 261.573 349.177 261.714C349.177 261.854 349.318 261.995 349.458 261.995C349.74 261.995 350.016 261.995 350.438 261.995C351.557 261.714 352.537 261.432 353.651 261.292C354.354 261.292 354.912 261.151 355.75 260.453C354.214 260.453 353.375 260.312 352.537 260.875ZM332.677 291.526C332.537 291.526 332.396 291.526 332.26 291.526C331.417 291.385 330.578 291.104 329.599 291.245C327.922 291.526 326.245 291.667 324.568 291.948C318.693 292.927 312.823 293.625 306.807 294.047C304.849 294.188 302.755 294.323 300.797 294.464C300.656 294.464 300.375 294.604 300.516 294.745C300.516 294.885 300.656 295.026 300.656 295.026C301.073 295.443 301.776 295.443 302.333 295.302C305.828 295.026 309.188 294.745 312.682 294.604C314.219 294.464 315.755 294.323 317.297 294.188C319.813 293.906 322.469 293.625 324.984 293.203C327.365 292.927 329.88 292.786 332.26 292.083C332.396 292.083 332.537 292.083 332.677 292.083C332.818 292.083 332.958 291.948 332.958 291.807C332.958 291.667 332.818 291.526 332.677 291.526ZM217.594 189.214C217.453 189.214 217.453 189.354 217.453 189.495C217.453 189.63 217.594 189.771 217.734 189.911C219.552 191.734 221.229 193.552 223.047 195.37C223.328 195.651 223.745 196.073 224.167 196.208C224.724 196.911 225.427 197.193 226.125 197.609C228.781 199.01 231.438 200.552 233.818 202.229C235.495 203.349 237.313 204.047 239.271 204.891C239.406 204.891 239.547 204.891 239.688 204.891C239.828 204.891 239.969 204.75 239.969 204.75C239.969 204.609 239.969 204.469 239.969 204.328C239.688 203.771 239.13 203.49 238.568 203.349C237.313 202.927 236.052 202.37 235.073 201.667C231.719 199.432 228.224 197.609 224.589 195.651C223.328 194.391 221.927 192.99 220.672 191.734C219.693 190.891 218.854 189.911 217.734 189.214C217.734 189.214 217.734 189.214 217.594 189.214ZM276.047 187.531C276.323 187.391 276.464 187.115 276.464 186.833C276.604 186.693 276.604 186.552 276.323 186.552C276.182 186.552 276.047 186.693 275.906 186.833C275.766 186.974 275.625 187.115 275.484 187.255C273.391 188.51 271.151 189.911 269.052 191.172C266.115 192.854 263.182 194.531 259.964 195.651C255.208 197.469 250.318 199.01 245.422 200.411C244.724 200.552 244.021 200.828 243.182 200.969C242.203 201.109 241.927 200.969 242.068 199.849C242.068 199.568 242.203 199.292 242.203 198.87C242.484 195.651 242.906 192.292 243.042 189.073C243.323 185.995 243.323 182.917 243.464 179.833C243.464 179.276 243.745 178.995 244.162 178.714C244.583 178.573 244.443 178.297 243.885 178.016C243.604 176.333 243.745 174.375 244.021 172.839C244.865 172.698 245.839 172.839 246.542 172.417C247.24 172.417 247.797 172.417 248.359 171.995C248.917 171.995 249.479 171.995 249.896 171.578H250.037L250.177 171.438C250.453 171.438 250.734 171.438 250.875 171.438C255.49 170.177 259.964 168.776 264.297 166.677C271.708 163.177 278.563 158.839 285.135 153.943C285.412 153.661 285.833 153.521 286.115 152.964C286.391 152.682 286.391 152.401 286.391 151.984C286.391 151.703 286.255 151.562 285.974 151.703C285.833 151.844 285.693 151.984 285.552 152.12C280.521 155.901 275.484 159.401 270.031 162.479C264.162 165.839 258.005 168.635 251.432 170.458C250.875 170.599 250.177 170.599 249.615 171.016C249.474 171.016 249.339 171.016 249.339 171.016C248.635 170.875 248.078 171.297 247.521 171.438C246.682 171.578 245.703 171.719 244.865 171.859C244.443 171.859 244.162 171.859 243.745 171.719C243.604 169.057 243.745 166.26 243.885 163.599C244.021 160.38 244.162 157.161 244.162 153.943C244.443 153.661 244.724 153.661 245 153.521C246.958 153.24 248.636 152.542 250.318 151.562C250.594 151.422 250.734 151.422 251.016 151.281C255.771 149.042 260.104 146.245 264.021 142.745C265.839 141.068 267.656 139.526 269.052 137.427C269.474 137.146 269.75 136.724 269.891 136.307C270.031 136.167 270.172 136.026 270.031 135.885C269.891 135.745 269.75 135.745 269.615 135.885C269.474 136.026 269.333 136.167 269.333 136.307C269.052 136.448 268.776 136.724 268.635 137.005C267.932 137.568 267.234 138.266 266.537 138.964C264.297 141.344 261.781 143.443 259.266 145.406C256.328 147.646 253.115 149.464 249.755 151.141C248.359 151.703 246.958 152.12 245.563 152.682C245.141 152.823 244.583 152.964 244.162 152.823V152.682C244.302 152.401 244.443 152.12 244.443 151.844C244.443 150.302 244.443 148.901 244.443 147.365C244.583 146.385 244.724 145.406 244.583 144.562C245 143.302 244.865 141.906 244.865 140.646C245 139.385 245 138.125 244.865 136.865C245 134.766 244.865 132.667 244.865 130.427C244.865 130.146 244.865 129.87 244.865 129.448C244.865 129.167 244.724 129.026 244.724 128.75C244.865 128.75 244.583 128.75 244.583 128.75C244.443 128.75 244.302 128.891 244.302 128.891C244.302 129.729 244.021 130.708 244.583 131.547C244.583 133.37 244.583 135.047 244.583 136.865C244.302 137.708 244.443 138.547 244.443 139.385C244.021 140.365 244.162 141.484 244.162 142.604C244.021 143.302 243.886 144.005 244.021 144.703C243.604 145.682 243.745 146.802 243.745 147.922C243.604 150.302 243.464 152.682 243.323 155.062C243.323 155.901 243.323 156.74 243.182 157.583C243.182 158.141 242.906 158.281 242.484 158C239.969 156.88 237.589 155.76 235.354 154.083C233.255 152.542 231.156 151.005 229.203 149.182C228.359 148.484 227.521 147.781 226.823 147.083C226.682 146.943 226.542 146.661 226.406 146.526C224.307 144.703 222.349 142.745 220.391 140.786C220.109 140.505 219.693 140.224 219.412 139.948C219.271 139.807 219.13 139.667 218.995 139.526C218.854 139.245 218.714 139.104 218.573 139.104C218.573 138.964 218.573 138.964 218.432 138.964C218.156 138.266 217.453 137.708 216.896 137.005C216.198 135.885 215.359 134.766 214.797 133.505C214.656 135.187 215.636 136.167 216.474 137.427C216.896 138.125 217.313 138.828 218.016 139.245C218.156 139.385 218.292 139.526 218.432 139.667C218.573 139.807 218.714 139.948 218.854 140.083C220.25 141.766 221.792 143.443 223.328 144.984C224.307 145.964 225.146 146.943 226.406 147.781C227.662 149.042 228.922 150.302 230.177 151.422C233.537 154.359 237.172 157.021 241.365 158.703C241.787 158.839 242.203 159.12 242.484 159.26C243.042 159.542 243.182 159.958 243.182 160.661C242.906 166.401 242.625 172.135 242.625 177.875C241.505 177.875 240.526 178.016 239.406 178.016C235.636 178.156 231.995 177.594 228.641 175.776C227.521 175.219 226.406 174.656 225.287 174.099C222.771 172.557 219.974 171.156 217.313 170.036C217.177 169.896 217.177 169.896 217.037 169.896C215.078 168.776 213.12 167.937 211.021 167.24C209.063 166.26 206.969 165.698 204.87 165.141C204.589 165.141 204.313 165 204.172 165C203.052 164.438 201.932 164.021 200.813 163.88C201.792 164.859 203.052 165.141 204.172 165.417C204.448 165.417 204.729 165.417 204.87 165.417C205.01 165.557 205.292 165.698 205.427 165.839C207.109 166.401 208.787 167.099 210.464 167.656C212.422 168.5 214.516 169.479 216.474 170.318C216.615 170.458 216.615 170.458 216.755 170.458C219.412 171.859 222.068 173.255 224.724 174.516C226.542 175.635 228.5 176.615 230.599 177.453C232.276 178.156 233.953 178.714 235.635 178.573C237.031 178.854 238.568 178.714 239.969 178.714C242.625 178.714 242.344 178.573 242.203 181.094C242.068 183.052 242.068 185.151 241.927 187.115C241.646 190.333 241.365 193.693 240.948 196.911C240.667 200.271 240.25 203.49 239.969 206.849C239.688 209.505 239.547 212.167 239.547 214.828C239.547 216.646 239.688 218.464 239.828 220.286C239.969 221.823 240.109 223.365 240.807 224.901C241.089 225.042 241.224 225.042 241.365 224.766C241.365 223.922 241.224 223.083 241.089 222.385C240.667 219.724 240.526 217.068 240.526 214.266C240.526 213.005 240.667 211.604 240.667 210.349C240.807 207.969 241.089 205.729 241.224 203.349C241.224 202.786 241.365 202.37 241.646 201.807C243.745 201.807 245.703 201.25 247.656 200.688C249.339 200.13 251.016 199.568 252.693 199.151C260.245 197.193 267.094 193.693 273.667 189.63C274.927 188.932 275.766 188.51 276.047 187.531ZM140.125 226.161C142.505 225.182 145.021 224.484 147.537 224.062C148.375 223.922 148.516 224.063 148.375 224.901C148.234 226.302 147.958 227.703 147.396 229.104C147.12 229.38 146.979 229.661 146.839 230.083C146.698 230.641 146.698 230.922 146.979 230.922C147.396 230.922 147.537 230.641 147.677 230.359C147.818 230.224 147.818 230.083 147.818 229.802C148.656 228.26 149.354 226.583 149.354 224.766C149.354 224.625 149.354 224.344 149.495 224.203C149.635 223.646 149.917 223.505 150.333 223.365C153.13 223.083 155.927 222.661 158.724 222.526C159.281 222.526 159.984 222.526 160.542 222.526C160.964 222.526 161.24 222.802 161.24 223.224C161.24 224.625 161.24 226.021 161.24 227.422C161.104 227.703 160.964 227.844 160.964 228.12C160.682 229.38 160.401 230.781 159.984 231.901C159.844 232.182 159.984 232.323 160.125 232.323C160.26 232.323 160.401 232.323 160.401 232.182C161.104 230.922 161.521 229.661 161.521 228.26C162.078 226.865 162.219 225.464 162.219 224.062C162.219 222.661 162.359 222.526 163.76 222.661C166.693 222.802 169.49 223.083 172.427 223.083C175.224 223.083 174.807 223.224 174.385 225.745C174.385 225.885 174.245 226.161 174.245 226.302C174.104 226.865 173.969 227.563 173.969 228.12C173.969 228.26 173.969 228.542 174.245 228.542C174.385 228.542 174.667 228.401 174.667 228.26C174.807 228.12 174.807 227.844 174.943 227.562C175.224 226.302 175.505 225.042 175.646 223.922C175.646 223.505 175.922 223.365 176.203 223.365C176.625 223.365 176.901 223.365 177.323 223.224C178.583 223.083 179.698 223.224 180.958 222.943C184.172 222.526 187.391 221.964 190.604 221.406C191.026 221.406 191.448 221.125 191.865 221.266C192.422 221.542 192.005 222.245 192.287 222.661C192.287 222.661 192.287 222.802 192.422 222.802C192.422 222.943 192.563 222.943 192.703 222.943C192.703 222.943 192.844 222.943 192.844 222.802C192.984 222.661 192.984 222.526 192.984 222.526C192.844 220.984 193.964 220.703 195.083 220.422C195.5 220.286 195.922 220.286 196.339 220.146C199.698 219.443 202.912 218.464 206.266 217.906C207.109 217.766 207.807 217.625 208.646 217.766C208.646 218.604 208.365 219.167 208.224 219.865C208.083 220.562 207.667 221.125 207.526 221.823C207.385 222.245 207.526 222.661 207.807 222.661C208.083 222.661 208.224 222.526 208.365 222.245C208.646 221.542 208.927 220.844 209.203 220.146C209.484 219.443 209.625 218.885 209.766 218.182C209.901 217.766 210.182 217.484 210.604 217.484C211.724 217.344 212.839 217.203 213.958 217.068C216.474 217.203 218.995 216.927 221.51 217.344C221.792 217.344 222.208 217.203 222.49 216.786C221.511 216.505 220.391 216.365 219.271 216.365C217.313 216.365 215.219 216.365 213.26 216.365C212.839 215.104 212.422 213.708 212 212.448C211.724 211.604 211.302 210.625 210.88 209.786C210.182 208.385 209.344 206.99 208.646 205.729C207.807 204.328 206.828 202.927 205.568 201.667C205.427 201.531 205.427 201.391 205.292 201.25C203.333 199.151 201.234 197.193 198.854 195.651C198.438 195.229 197.88 194.953 197.458 194.531C197.177 194.391 196.76 193.969 196.479 194.25C196.198 194.672 196.761 194.813 197.177 195.089C197.599 195.37 198.156 195.651 198.578 195.932C200.115 197.193 201.651 198.448 203.052 199.849C203.75 200.552 204.589 201.391 205.292 202.089C205.292 202.229 205.427 202.37 205.427 202.37C208.083 206.146 210.464 210.208 211.583 214.828C211.583 215.104 211.724 215.245 211.859 215.526C212.141 216.224 212 216.365 211.302 216.505C211.021 216.505 210.745 216.646 210.604 216.646C207.109 216.927 203.75 217.625 200.396 218.464C199.276 218.745 198.156 219.026 196.901 219.302C196.479 217.906 196.063 216.646 195.641 215.245C195.083 213.568 194.521 212.026 193.401 210.625C191.865 207.828 189.766 205.448 187.391 203.49C186.552 202.51 185.432 201.807 184.313 201.25C183.615 200.552 182.776 200.13 181.797 199.849C181.656 199.849 181.516 199.849 181.516 199.99C181.516 199.99 181.516 200.271 181.656 200.271C182.495 200.687 183.198 201.25 184.037 201.672C185.016 202.37 185.99 203.208 186.969 203.906C187.25 204.187 187.391 204.469 187.672 204.75C189.63 206.568 191.167 208.667 192.563 210.906C192.703 211.187 192.844 211.328 192.984 211.469C193.125 211.745 193.266 212.026 193.401 212.307C194.38 214.125 194.802 216.224 195.359 218.188C195.641 219.443 195.641 219.583 194.38 219.865C191.865 220.422 189.208 220.844 186.693 221.266C184.313 221.682 181.938 222.104 179.422 222.245C178.583 222.245 178.583 222.245 178.443 221.542C178.302 220.563 178.162 219.583 177.604 218.745C177.182 217.484 176.344 216.505 175.646 215.385C175.083 214.406 174.245 213.427 173.406 212.724C171.729 210.484 169.354 209.089 166.833 207.688C166.693 207.547 166.417 207.547 166.276 207.688C166.135 207.828 166.276 207.969 166.557 208.109C168.932 209.505 171.031 211.187 172.849 213.146C174.526 215.104 175.646 217.484 177.042 219.583C177.182 220.286 177.323 220.984 177.323 221.682C177.323 222.104 177.042 222.385 176.625 222.385C175.922 222.385 175.083 222.385 174.385 222.385C171.172 222.245 167.813 221.964 164.599 221.823C163.896 221.823 163.62 221.542 163.339 220.984C162.359 219.302 161.104 217.766 159.422 216.786C158.865 216.083 158.026 215.807 157.188 215.667C155.787 215.104 154.531 214.688 152.99 214.547C152.292 214.125 151.734 214.125 150.755 214.406C151.172 214.828 151.594 214.964 152.151 214.964C153.552 215.385 154.948 215.807 156.349 216.083C157.188 216.505 158.026 216.927 159.005 217.344C160.125 218.464 161.24 219.583 162.078 220.844C162.219 221.125 162.5 221.406 162.219 221.682C160.823 221.823 159.422 221.823 158.026 221.964C155.927 222.104 153.969 222.385 151.875 222.526C151.172 222.661 150.615 222.385 150.193 221.964C148.938 220.563 147.537 219.583 145.578 219.302C145.021 218.885 144.323 218.885 143.625 218.885C143.344 218.885 143.063 218.885 143.063 219.302C143.063 219.443 143.344 219.583 143.484 219.583C143.761 219.583 144.042 219.583 144.464 219.583C145.859 219.724 147.26 220.286 148.375 221.266C148.797 221.682 149.214 221.964 149.776 222.245C149.214 222.802 148.375 222.802 147.677 222.943C144.464 223.646 141.245 224.484 138.167 226.021C137.75 226.302 137.328 226.443 136.912 226.724C136.63 227 136.49 227.281 136.771 227.703C137.75 227.281 138.87 226.724 140.125 226.161ZM300.099 231.76C302.333 230.5 304.708 229.661 306.948 228.682C307.646 228.401 308.484 228.12 309.188 227.844C309.886 227.563 310.583 227.562 311.563 226.724C309.464 226.865 307.927 227.422 306.531 228.26C303.031 229.38 299.677 230.922 296.458 232.74C296.182 232.88 295.901 233.161 295.76 233.302C292.688 234.839 289.891 236.661 287.651 239.318C287.51 239.599 287.229 239.74 286.953 240.021C286.672 240.297 286.391 240.297 286.115 240.297C285.833 240.161 285.552 240.161 285.412 240.438C286.115 241.417 286.953 241.979 288.208 242.26C289.609 242.677 291.005 243.38 292.406 244.078C294.922 245.479 297.438 246.875 299.958 248.417C301.354 249.255 302.755 250.099 304.151 250.797C305.13 251.354 306.109 251.776 307.229 252.339C307.646 252.615 307.927 252.896 307.927 253.318C307.927 254.714 308.349 255.974 308.625 257.234C308.766 257.932 309.188 258.073 309.885 258.073C310.167 258.073 310.302 257.932 310.167 257.656C310.026 257.094 309.885 256.396 309.745 255.833C309.464 254.995 309.323 254.297 309.323 253.453C310.026 253.453 310.443 253.875 311.005 254.016C312.964 254.995 314.781 255.974 316.734 256.953C317.297 257.234 317.854 257.516 318.552 257.375C318.833 257.375 319.115 257.375 319.115 257.094C319.255 256.813 318.833 256.677 318.693 256.677C316.875 255.693 315.057 254.714 313.24 253.734C312.964 253.594 312.542 253.453 312.401 253.036C312.542 252.896 312.823 252.755 312.964 252.615C314.359 251.917 315.896 251.078 317.297 250.375C320.651 248.839 323.87 247.297 327.224 245.755C327.505 245.755 327.646 245.755 327.646 245.479C327.781 245.479 327.781 245.479 327.922 245.339C328.203 245.339 328.484 245.339 328.76 245.057C328.901 245.057 329.042 245.057 329.042 244.917C330.162 244.635 331.281 244.359 332.26 244.078C332.396 244.078 332.677 243.937 332.537 243.656C332.537 243.516 332.26 243.38 332.12 243.38C330.719 243.656 329.323 243.797 328.203 244.359C327.922 244.359 327.781 244.5 327.505 244.5C327.224 244.5 326.943 244.5 326.802 244.776C326.526 244.776 326.245 244.776 325.964 245.057C324.146 245.755 322.328 246.458 320.51 247.297C317.438 248.557 314.219 249.958 311.422 251.776C310.865 252.198 310.443 252.198 309.885 251.917C306.109 250.099 302.333 248.135 298.839 245.896C297.719 245.198 296.458 244.5 295.203 243.797C292.964 242.536 290.729 241.417 288.208 240.578C288.349 240.297 288.349 240.161 288.49 240.021C290.026 238.339 291.568 236.802 293.385 235.682C294.505 234.979 295.484 234.281 296.458 233.583C297.578 233.161 298.839 232.464 300.099 231.76ZM174.807 306.359C174.526 306.083 174.104 305.943 173.828 305.802C171.729 304.682 169.63 303.562 167.537 302.443C161.104 298.943 154.672 295.443 148.375 291.948C147.26 291.385 146.141 290.828 144.88 290.547C144.74 290.547 144.74 290.547 144.74 290.688C144.74 290.828 144.599 290.964 144.74 290.964C145.859 292.083 146.979 293.068 148.375 293.906C151.875 295.865 155.51 297.542 159.146 299.505C163.339 301.745 167.537 303.844 171.589 306.083C172.287 306.359 172.99 306.781 173.688 307.063C174.104 307.203 174.526 307.203 174.943 306.922C174.943 306.781 175.083 306.5 174.807 306.359ZM270.594 91.6562C271.568 86.1979 272.271 80.7396 272.547 75.1406C272.828 70.8021 272.828 66.3229 272.271 61.9844C272.271 60.3073 272.271 60.3073 271.708 59.3281C271.568 59.6042 271.568 59.8854 271.568 60.1667C271.568 62.125 271.432 64.0833 271.432 66.0469C271.432 71.3646 271.292 76.5417 270.87 81.8594C270.594 84.6615 270.313 87.4583 269.891 90.2604C269.615 92.5 269.193 94.875 268.912 97.1146C268.495 98.2344 268.354 99.3542 268.214 100.615C268.214 100.896 268.073 101.036 268.073 101.318C267.932 101.453 267.797 101.734 267.797 101.875C267.797 102.016 267.932 102.156 267.932 102.297C268.073 102.156 268.214 102.156 268.354 102.016C268.495 102.016 268.495 101.875 268.495 101.734C268.912 100.755 269.193 99.776 269.193 98.6562C269.75 96.4167 270.031 94.0365 270.594 91.6562ZM305.828 270.953C308.208 271.089 310.583 270.953 312.964 270.812C313.38 270.812 313.662 270.812 314.078 270.812C314.219 270.812 314.5 270.813 314.641 270.672C314.917 270.391 314.5 270.25 314.359 270.25C314.078 270.109 313.802 270.25 313.38 270.109C313.38 270.109 313.38 270.109 313.521 270.25C313.521 270.25 313.521 270.25 313.38 270.109C313.099 270.109 312.823 270.109 312.682 270.109C311.422 269.833 310.167 269.693 308.906 269.693C304.849 269.693 300.797 269.693 296.88 269.833C293.526 269.969 290.167 270.109 286.672 270.109C284.297 270.109 281.917 270.25 279.542 270.391C279.26 270.391 278.979 270.391 278.979 270.672C278.979 270.953 279.26 271.089 279.542 271.229C280.099 271.37 280.521 271.37 281.078 271.37C283.177 271.37 285.412 271.37 287.51 271.37C290.729 271.37 293.943 271.37 297.162 271.229C299.958 270.813 302.891 270.812 305.828 270.953ZM238.99 285.505C235.495 284.526 231.995 283.547 228.5 282.568C227.662 282.286 227.104 282.01 226.823 281.167C226.125 279.49 225.427 277.807 224.307 276.411C224.167 275.849 223.885 275.432 223.328 275.292C223.188 275.292 223.047 275.292 223.047 275.292L222.906 275.568C223.188 275.99 223.328 276.552 223.885 276.969C224.448 278.089 225.005 279.068 225.427 280.188C225.563 280.609 226.125 281.167 225.703 281.729C225.427 282.146 224.724 281.729 224.307 281.589C224.167 281.589 224.026 281.448 223.885 281.448C222.208 281.167 220.531 280.609 218.714 280.469C218.156 280.047 217.453 280.047 216.755 280.047C216.198 279.63 215.495 279.771 214.938 279.63C214.516 279.349 214.099 279.208 213.677 279.349C213.677 279.349 213.542 279.49 213.401 279.49C213.542 279.49 213.542 279.49 213.677 279.349C213.261 279.349 212.698 279.208 212.281 279.208C211.162 278.651 210.042 278.786 208.927 278.651C208.083 278.51 207.245 278.229 206.547 277.807C203.75 275.568 200.677 273.75 197.458 272.073C195.5 270.813 193.542 269.833 191.448 268.99C191.167 268.714 190.745 268.573 190.328 268.292C190.188 268.151 189.906 268.151 189.766 268.573C190.328 268.849 190.885 269.13 191.448 269.411C193.401 270.391 195.219 271.37 197.177 272.349C198.438 273.193 199.698 273.891 200.953 274.729C202.214 275.568 203.609 276.411 204.87 277.391C205.01 277.531 205.151 277.667 205.292 277.807L205.427 277.948C205.427 277.948 205.427 278.089 205.427 278.229C204.313 278.229 203.193 278.229 202.073 278.229C201.651 278.229 201.375 278.089 200.953 278.089C195.359 278.089 189.63 278.229 184.037 278.927C181.656 279.208 179.141 279.63 176.766 280.047C175.505 280.047 174.385 280.328 173.266 280.469C172.427 280.609 171.87 280.469 171.307 279.906C169.214 278.089 166.974 276.828 164.458 275.708C161.943 274.729 159.422 273.609 157.047 272.49C153.828 271.089 150.615 270.109 147.26 269.271C146.698 269.13 146.141 268.849 145.578 268.99C145.443 268.849 145.443 268.849 145.302 268.849C143.625 268.151 141.667 268.01 139.849 267.87C139.568 267.87 139.146 267.734 138.87 267.734C137.188 267.313 135.932 267.313 134.396 267.734C135.651 268.01 136.63 268.292 137.75 268.151C138.307 268.151 138.87 268.292 139.568 268.292C141.385 268.714 143.203 269.13 145.021 269.271C145.302 269.271 145.443 269.411 145.719 269.411C146 269.552 146.281 269.693 146.557 269.693C149.354 270.531 152.292 271.229 154.948 272.49C158.307 273.891 161.802 275.432 165.156 276.969C166.135 277.391 166.974 277.807 167.813 278.37C168.932 279.068 170.052 279.771 170.891 280.891C170.469 281.026 170.328 281.026 170.052 281.026C169.912 281.026 169.63 281.167 169.771 281.307C169.771 281.448 170.052 281.589 170.193 281.589C170.469 281.589 170.75 281.589 170.891 281.589C172.568 281.448 174.104 280.891 175.646 280.75C176.625 280.609 177.604 280.75 178.583 280.188C179.141 280.188 179.839 280.188 180.401 280.047C186.552 279.068 192.703 278.927 198.995 278.786C200.255 278.786 201.516 278.927 202.771 278.927C205.427 279.068 208.224 278.927 210.88 279.349C211.302 279.349 211.724 279.349 212.141 279.349C212.422 279.349 212.839 279.49 213.12 279.49C213.677 279.771 214.099 279.906 214.797 279.771C215.495 279.906 216.198 280.188 217.037 280.188C217.453 280.469 218.016 280.609 218.573 280.609C219.693 281.167 220.813 281.589 221.927 281.729C223.469 282.01 225.146 282.427 226.682 282.849C226.682 283.13 226.542 283.266 226.542 283.406C226.406 283.688 226.406 283.828 226.266 284.109C226.125 284.526 226.266 284.667 226.542 284.948C226.823 285.089 226.964 284.948 227.245 284.807C227.385 284.667 227.521 284.385 227.662 284.109C228.224 283.266 228.224 283.266 229.203 283.547C230.88 283.969 232.557 284.526 234.234 284.948C236.193 285.505 238.151 286.068 240.25 286.625C239.688 286.349 239.406 285.927 238.99 285.505ZM223.609 298.802C219.271 296.146 214.938 293.344 210.745 290.688C209.484 289.844 208.083 289.286 206.688 288.865C206.547 288.589 206.266 288.448 205.849 288.448C205.708 288.448 205.568 288.448 205.568 288.589C205.568 288.589 205.568 288.865 205.708 288.865C205.849 289.005 206.13 289.146 206.266 289.286C206.828 289.708 207.526 290.125 208.083 290.547C209.766 291.526 211.443 292.505 213.12 293.625C216.057 295.443 218.995 297.125 221.927 298.943C222.63 299.365 223.328 299.646 224.167 299.365C224.026 298.943 223.745 298.943 223.609 298.802ZM194.104 298.526C193.964 298.385 193.823 298.385 193.542 298.245C189.906 296.703 186.13 295.026 182.495 293.484C181.24 292.927 179.979 292.365 178.583 292.224C177.88 291.807 177.042 291.667 176.344 291.526C176.203 291.385 175.922 291.245 175.787 291.245C175.646 291.245 175.505 291.385 175.365 291.385C175.365 291.526 175.505 291.667 175.505 291.667C175.646 291.807 175.787 291.807 175.922 291.948C176.484 292.224 177.182 292.646 177.74 292.646C178.021 292.786 178.162 292.927 178.443 293.068C180.677 294.047 182.917 294.885 185.016 295.865C187.531 296.844 190.188 297.964 192.703 298.943C193.125 299.083 193.542 299.365 193.964 299.224C194.104 299.224 194.245 299.083 194.245 298.943C194.245 298.661 194.245 298.526 194.104 298.526ZM226.406 57.5052C226.406 57.7865 226.406 57.9271 226.542 58.2083C226.542 58.625 226.542 59.0469 226.823 59.4687C226.823 60.1667 226.823 60.724 227.245 61.2865C227.245 62.125 227.386 62.9635 227.662 63.6667C229.203 68.0052 230.74 72.3437 232.839 76.401C233.677 77.9427 234.656 79.3437 235.912 80.599C238.011 82.5625 239.969 84.6615 241.927 86.7604C241.646 87.0417 241.646 87.3177 241.646 87.599C241.505 87.7396 241.505 87.8802 241.505 87.8802C240.948 89.1406 240.526 90.5365 240.385 91.9375C239.969 93.1979 239.688 94.4583 239.688 95.7188C239.406 96.276 239.271 96.8385 239.406 97.3958C239.406 97.8177 239.271 98.375 239.271 98.7969C238.849 99.9167 238.849 101.177 238.99 102.297C239.406 102.297 239.406 102.016 239.547 101.734C239.688 101.453 239.828 101.036 239.688 100.615C239.688 100.333 239.688 100.057 239.688 99.9167C239.688 99.4948 239.828 98.9375 239.828 98.5156C240.109 97.9583 240.109 97.3958 240.109 96.8385C240.25 96.1354 240.25 95.2969 240.667 94.7396C241.089 94.599 241.365 94.7396 241.787 94.7396C241.927 94.7396 242.203 94.7396 242.344 94.599C242.484 94.4583 242.484 94.3177 242.484 94.0365C242.484 93.8958 242.484 93.7552 242.344 93.7552C242.068 93.7552 241.787 93.6198 241.646 93.6198C240.948 93.6198 240.948 93.0573 240.948 92.5C241.365 91.099 241.927 89.8385 242.068 88.2969C242.344 88.1615 242.344 87.8802 242.344 87.4583C242.625 86.901 242.906 86.3385 243.042 85.7812C243.885 82.9792 245 80.1823 246.12 77.5208C246.26 77.2396 246.401 76.9635 246.542 76.6823C246.682 76.1198 247.099 76.1198 247.521 76.1198C248.219 76.1198 249.057 76.2604 249.755 76.2604C250.594 76.2604 251.432 76.1198 252.412 75.9844C252.833 75.8437 253.115 75.5625 253.391 75.1406C253.531 75.1406 253.672 75 253.672 75C253.813 74.8646 253.813 74.724 253.813 74.5833C253.672 74.5833 253.531 74.4427 253.25 74.4427C253.115 74.4427 252.974 74.5833 252.833 74.724C251.016 75.1406 249.339 75.4219 247.38 75.1406C247.521 74.0208 248.078 73.1823 248.635 72.3437C249.755 70.1042 251.016 68.0052 251.995 65.7656C253.25 63.1042 254.37 60.4479 255.63 57.9271C257.589 53.5885 260.104 49.5312 263.318 45.8906C264.719 44.349 266.115 42.8125 267.656 41.4115C268.776 41.5521 269.75 41.5521 270.87 41.6927C271.432 41.6927 271.99 41.6927 272.547 41.6927C274.365 41.5521 275.906 40.8542 277.443 39.8698C277.583 39.8698 277.724 39.8698 277.724 39.7344C277.865 39.5937 277.865 39.4531 278.005 39.3125C277.865 39.3125 277.724 39.1719 277.583 39.1719C277.302 39.1719 277.162 39.3125 277.026 39.4531C275.344 40.0104 273.526 40.5729 271.708 40.8542C270.594 40.9896 269.474 40.8542 268.776 40.2917C269.052 40.0104 269.333 39.8698 269.615 39.5937C271.708 37.6302 273.948 35.9531 276.182 34.2708C278.422 32.5937 280.662 30.9167 282.755 29.2344C284.854 27.5573 286.953 25.7344 289.047 23.9167C290.448 22.6562 291.708 21.2552 292.688 19.7187C292.964 19.4375 292.823 19.1562 292.547 18.875C292.266 18.599 292.125 18.875 291.984 19.0156C290.307 21.2552 288.349 23.0781 286.115 24.8958C284.156 26.4375 282.198 28.1146 280.24 29.6562C277.302 31.8958 274.365 33.9948 271.568 36.2344C271.432 36.2344 271.292 36.2344 271.151 36.2344C270.594 35.8125 270.313 35.1146 270.031 34.5521C269.75 33.7135 269.615 33.0156 269.474 32.1719C269.615 30.0729 269.333 27.8333 269.891 25.7344C270.031 25.3177 270.031 24.7552 270.172 24.3333C270.172 24.0573 270.313 23.9167 270.313 23.6354C270.594 23.3542 270.594 22.9375 270.729 22.5156C271.292 21.1146 271.849 19.7187 272.271 18.3177C272.547 18.0365 272.688 17.6198 272.828 17.1979C272.828 17.0573 272.828 16.9167 272.688 16.9167C272.547 16.776 272.271 16.9167 272.271 17.0573C272.13 17.3385 271.99 17.6198 271.99 17.8958C271.432 19.2969 270.87 20.5573 270.453 21.9583C270.313 22.375 270.172 22.7969 270.172 23.0781C270.172 23.3542 270.031 23.4948 270.031 23.776C269.333 25.4531 268.912 26.9948 268.912 28.8125C268.636 31.6146 268.495 34.4115 270.313 36.7917C270.594 37.0729 270.313 37.3542 270.031 37.6302C269.052 38.474 268.073 39.4531 267.094 40.2917C261.641 45.3281 257.307 51.0677 254.37 57.9271C253.531 59.8854 252.552 61.9844 251.714 63.9479C251.573 64.224 251.573 64.6458 251.016 64.7865C250.453 64.5052 250.037 63.8073 249.615 63.3854C247.24 60.3073 245.979 56.8073 245.141 53.1667C244.865 51.7708 244.583 50.5104 244.302 49.1094C244.302 48.6875 244.302 48.4115 244.302 47.9896C244.302 45.3281 244.162 42.6719 244.583 40.0104C244.865 38.0521 245.422 36.2344 245.979 34.2708C246.26 33.2917 246.682 32.3125 246.682 31.3333C247.099 30.9167 246.958 30.3542 247.099 29.7969C247.521 28.5365 247.656 27.276 247.797 26.0156C248.359 24.6146 248.635 23.0781 248.776 21.5365C247.938 22.6562 247.797 23.9167 247.521 25.1771C247.24 26.4375 246.818 27.6927 246.682 28.9531C246.542 29.5156 246.401 30.2135 246.26 30.776C245.703 32.7344 245 34.6927 244.443 36.651C244.021 38.474 243.464 40.2917 243.604 42.1094C243.182 44.349 243.182 46.5885 243.323 48.8281C243.745 52.75 244.724 56.6667 246.401 60.3073C246.818 61.2865 247.38 62.2656 247.938 63.1042C248.636 64.224 249.615 65.2031 250.594 66.1875C249.615 68.1458 248.5 70.2448 247.521 72.2031C246.542 74.3021 245.563 76.2604 244.724 78.3594C243.886 80.4635 243.182 82.5625 242.344 84.8021C241.505 84.3802 240.948 83.6823 240.526 83.1198C239.13 81.7187 237.87 80.1823 236.474 78.9219C235.495 77.9427 234.656 76.8229 234.094 75.5625C232.698 72.901 231.438 70.1042 230.318 67.3021C229.479 64.9271 228.5 62.5469 227.662 60.3073C227.662 60.1667 227.662 60.026 227.662 59.8854C227.662 59.4687 227.662 59.0469 227.385 58.625C227.245 57.3698 227.104 56.1094 226.964 54.9896C226.964 53.7292 226.964 53.7292 226.266 52.8906C225.984 54.7083 225.844 56.1094 226.406 57.5052ZM136.912 281.729C136.63 281.729 136.214 281.729 135.932 282.01C135.651 282.01 135.234 282.146 134.953 282.146C134.672 282.146 134.396 282.146 134.115 282.427C133.417 282.427 132.854 282.708 132.297 282.849C129.781 283.266 127.401 284.25 125.167 285.089C122.787 285.786 120.552 286.766 118.313 287.745C118.031 287.885 117.755 288.026 117.474 288.026C115.375 289.005 113.276 289.984 111.323 291.245C111.458 291.385 111.458 291.385 111.458 291.385C113.698 290.688 115.797 289.427 117.891 288.448C118.172 288.448 118.453 288.307 118.594 288.026C120.828 287.188 123.208 286.484 125.443 285.37C127.823 284.667 130.198 283.828 132.578 283.13C133.135 283.13 133.552 283.13 133.974 282.708C134.255 282.708 134.396 282.568 134.672 282.568C134.813 282.568 134.953 282.568 135.094 282.568C135.51 282.568 135.932 282.568 136.349 282.286C136.63 282.286 136.771 282.286 137.052 282.146C137.469 282.146 137.891 282.146 138.307 281.87C138.87 281.87 139.287 281.729 139.568 281.026C138.87 281.167 137.891 281.589 136.912 281.729ZM252.412 120.349C252.552 118.391 252.693 116.432 252.552 114.474C252.552 113.214 252.552 111.953 252.552 110.552C252.552 109.432 252.693 108.172 252.271 107.052C252.271 105.932 252.271 104.812 252.271 103.693C252.271 99.9167 252.135 96.1354 251.854 92.5C251.854 91.9375 251.854 91.5208 251.854 90.9583C251.854 90.401 251.995 89.6979 251.714 89C251.432 89.8385 251.297 90.5365 251.297 91.2396C251.297 94.0365 251.297 96.8385 251.297 99.6354C251.297 100.057 251.297 100.333 251.573 100.755C251.573 104.396 251.854 108.036 252.135 111.672C252.135 113.073 251.995 114.615 252.412 116.01C251.995 117.552 252.136 118.953 252.412 120.349ZM291.984 68.4219C291.984 68.5625 291.844 68.8437 291.844 68.9844C290.729 71.3646 290.026 73.8854 289.188 76.2604C289.052 76.401 289.052 76.5417 288.912 76.6823C288.912 76.8229 288.912 77.1042 289.052 77.1042C289.188 77.1042 289.328 76.8229 289.188 76.6823C289.75 76.401 290.026 75.8437 290.167 75.4219C290.87 73.6042 291.708 71.7812 292.125 69.8229C292.266 69.6823 292.266 69.6823 292.266 69.5417C292.547 69.2656 292.688 68.9844 292.547 68.7031C292.688 68.4219 292.823 68.2865 292.823 68.0052C294.083 64.224 295.203 60.4479 295.901 56.526C296.323 54.7083 296.74 52.8906 296.74 50.9271C297.162 50.2292 297.021 49.6667 297.021 48.9687C297.021 48.2708 297.162 47.5677 297.162 46.8698C297.438 46.4479 297.438 45.8906 297.438 45.4687C297.438 44.9115 297.438 44.4896 297.438 43.9323C297.438 43.5104 297.578 43.0885 297.162 42.6719C297.021 43.5104 296.88 44.4896 296.74 45.3281C296.74 45.4687 296.74 45.6094 296.74 45.75C296.74 46.0312 296.599 46.4479 296.599 46.7292C296.323 47.151 296.323 47.5677 296.323 47.9896C296.182 48.8281 296.042 49.5312 295.901 50.3698C295.203 54.2865 294.641 58.2083 293.662 61.9844C293.245 63.8073 292.688 65.7656 292.125 67.5833C291.984 67.8646 291.844 68.1458 291.984 68.4219Z" fill="#BDCA3F"/>
</svg>
