<svg xmlns="http://www.w3.org/2000/svg" xmlns:xlink="http://www.w3.org/1999/xlink" width="500" zoomAndPan="magnify" viewBox="0 0 375 374.999991" height="500" preserveAspectRatio="xMidYMid meet" version="1.0"><defs><clipPath id="79467db950"><path d="M 114.6875 56 L 258 56 L 258 205 L 114.6875 205 Z M 114.6875 56 " clip-rule="nonzero"/></clipPath></defs><g clip-path="url(#79467db950)"><path fill="#546c21" d="M 250.1875 101.210938 Z M 256.679688 59.386719 C 246.539062 63.910156 239.386719 65.808594 236.542969 77.632812 C 235.082031 79.457031 234.0625 81.867188 231.945312 83.253906 C 229.097656 84.128906 227.347656 87.121094 225.085938 89.019531 C 222.605469 91.210938 222.023438 94.714844 221.292969 97.78125 C 220.5625 98.289062 220.636719 99.167969 220.488281 99.898438 C 219.761719 100.917969 219.539062 102.011719 219.46875 103.179688 C 219.175781 105.515625 219.542969 108 218.15625 110.117188 C 191.230469 133.984375 213.046875 131.796875 198.089844 149.460938 C 188.167969 159.386719 199.109375 175.152344 188.675781 184.421875 C 185.175781 174.789062 193.199219 171.359375 180.433594 158 C 170.363281 148.511719 180.652344 132.742188 171.382812 122.453125 C 166.789062 118.730469 161.023438 115.664062 157.957031 110.40625 C 155.695312 105.152344 158.394531 98.363281 155.257812 93.398438 C 151.828125 89.75 146.355469 89.457031 143.21875 85.445312 C 141.105469 82.671875 142.488281 78.800781 141.25 75.589844 C 137.457031 68.070312 129.429688 64.203125 121.839844 62.085938 C 119.726562 62.230469 116.003906 59.96875 114.835938 62.230469 C 114.980469 67.269531 117.242188 71.792969 118.339844 76.683594 C 119.214844 80.117188 121.476562 82.742188 124.25 84.859375 C 127.167969 88 120.527344 96.394531 126.074219 105.808594 C 129.867188 115.515625 139.9375 116.175781 139.132812 118.875 C 138.621094 121.503906 136.726562 123.621094 136.507812 126.320312 C 135.851562 131.574219 140.375 136.246094 142.34375 140.992188 C 150.441406 148.21875 156.207031 141.429688 155.769531 157.855469 C 155.914062 172.085938 173.71875 163.183594 177.511719 173.472656 C 179.992188 180.554688 178.898438 188.65625 184.371094 194.496094 C 186.125 196.539062 191.230469 204.132812 186.195312 204.132812 C 177.222656 204.132812 168.246094 204.132812 159.273438 204.132812 C 170.363281 205.738281 206.117188 204.132812 225.453125 204.714844 C 222.898438 202.890625 214.289062 204.570312 209.617188 204.203125 C 198.601562 203.621094 202.320312 186.832031 205.167969 180.042969 C 209.105469 170.917969 218.007812 166.90625 215.746094 155.664062 C 215.234375 144.496094 228.734375 142.085938 233.40625 133.984375 C 235.59375 129.3125 237.273438 124.351562 241.285156 120.992188 C 241.285156 119.09375 241.066406 117.050781 241.941406 115.296875 C 245.445312 110.917969 248.945312 106.464844 250.257812 101.066406 C 252.230469 97.851562 249.457031 93.253906 252.082031 90.40625 C 260.035156 85.226562 254.34375 75.152344 255.660156 67.558594 C 256.167969 66.171875 256.460938 64.640625 256.460938 63.253906 C 256.824219 62.230469 259.597656 58.65625 256.679688 59.386719 Z M 189.042969 58.21875 C 189.042969 57.851562 189.261719 57.195312 188.894531 56.976562 C 188.605469 57.269531 188.675781 57.925781 189.042969 58.21875 Z M 189.042969 58.21875 " fill-opacity="1" fill-rule="nonzero"/></g><path fill="#546c21" d="M 199.765625 93.179688 Z M 178.609375 73.035156 Z M 199.695312 148.21875 C 208.011719 139.386719 200.714844 132.304688 206.554688 122.160156 C 206.335938 117.488281 199.039062 115.664062 198.746094 110.917969 C 200.207031 103.621094 202.6875 94.421875 197.359375 88.144531 C 196.558594 86.394531 193.636719 84.933594 194.441406 82.671875 C 196.921875 77.488281 195.972656 70.480469 191.15625 66.902344 C 189.550781 65.003906 190.867188 54.566406 188.894531 56.683594 C 183.933594 62.816406 177.148438 69.75 178.679688 78.289062 C 180.066406 83.109375 172.988281 84.058594 173.355469 89.75 C 172.625 94.058594 172.332031 98.949219 174.375 103.035156 C 174.960938 106.175781 177.585938 108.730469 176.273438 111.941406 C 175.90625 112.890625 175.6875 114.058594 175.46875 114.933594 C 171.382812 123.546875 168.976562 118.730469 174.082031 128.074219 C 176.929688 135.152344 174.449219 142.597656 175.398438 149.898438 C 178.167969 160.335938 191.449219 165.519531 187.070312 179.023438 C 186.5625 180.992188 187.4375 183.621094 188.675781 185.082031 C 189.84375 182.964844 192.035156 181.648438 192.910156 179.3125 C 195.828125 168.949219 190.0625 156.320312 199.695312 148.21875 Z M 251.5 115.445312 C 250.84375 117.050781 250.039062 118.730469 249.09375 120.261719 C 248.144531 124.789062 246.609375 129.75 247.269531 134.570312 C 248.433594 139.605469 249.238281 145.589844 247.046875 150.410156 C 245.808594 154.859375 242.085938 157.925781 240.554688 162.234375 C 239.972656 165.445312 240.191406 168.949219 240.554688 172.234375 C 242.234375 185.226562 237.199219 183.695312 231.945312 193.109375 C 231.070312 197.269531 229.683594 201.722656 226.035156 204.644531 C 222.824219 205.152344 218.082031 203.839844 215.601562 205.152344 C 215.601562 209.898438 213.703125 212.234375 214.289062 205.8125 C 214.433594 202.746094 206.40625 206.6875 204.800781 203.546875 C 203.125 199.679688 201.882812 200.335938 199.476562 197.78125 C 197.722656 196.394531 197.433594 209.898438 196.777344 209.753906 C 193.492188 208.804688 198.890625 193.914062 199.765625 190.921875 C 200.644531 189.460938 198.527344 189.3125 197.945312 188.21875 C 196.191406 186.25 192.910156 181.359375 196.558594 179.824219 C 199.914062 179.386719 201.371094 183.695312 201.445312 186.46875 C 201.519531 186.320312 201.519531 186.03125 201.519531 185.738281 C 201.808594 182.964844 204.65625 179.75 202.832031 177.125 C 200.933594 174.132812 196.628906 168.511719 199.183594 165.300781 C 203.488281 164.132812 204.511719 170.628906 205.09375 173.695312 C 206.40625 169.09375 208.816406 162.964844 209.398438 159.242188 C 194.148438 157.125 209.324219 133.910156 211.660156 154.058594 C 212.535156 149.09375 218.300781 142.742188 216.402344 138.21875 C 211.953125 134.859375 206.554688 122.234375 215.234375 121.136719 C 220.5625 121.136719 221.292969 128.875 220.050781 132.304688 C 220.199219 132.085938 220.34375 131.648438 220.34375 131.210938 C 222.53125 124.714844 225.378906 118.4375 228.152344 112.160156 C 228.878906 109.3125 224.867188 105.296875 224.722656 101.648438 C 224.867188 98.949219 223.628906 93.984375 227.128906 93.035156 C 233.914062 91.722656 232.527344 102.453125 230.996094 106.613281 C 231.070312 106.613281 231.363281 105.664062 231.433594 105.296875 C 233.332031 99.898438 238 94.640625 237.929688 88.875 C 237.199219 86.464844 235.667969 81.503906 238.949219 80.335938 C 240.992188 80.1875 241.796875 82.742188 241.578125 84.421875 C 241.648438 84.785156 240.992188 85.226562 241.796875 85.445312 C 242.378906 87.925781 239.316406 90.480469 238.730469 93.035156 C 238.074219 94.566406 237.5625 96.175781 236.542969 97.488281 C 238.65625 94.566406 246.390625 91.648438 247.046875 96.902344 C 246.683594 102.378906 239.898438 104.421875 235.667969 101.722656 C 234.9375 101.210938 234.789062 101.792969 234.644531 102.234375 C 231.363281 108.800781 228.515625 115.589844 225.449219 122.234375 C 239.972656 110.699219 239.679688 132.890625 224.503906 126.539062 C 222.679688 126.976562 222.242188 131.648438 221.21875 133.402344 C 219.25 138.582031 217.71875 143.984375 215.234375 148.875 C 216.183594 147.050781 218.59375 146.394531 220.34375 145.664062 C 222.824219 143.035156 225.816406 141.066406 228.953125 139.167969 C 234.207031 135.738281 234.789062 128.65625 238.511719 123.910156 C 241.867188 119.96875 246.101562 117.195312 250.40625 114.203125 C 251.136719 113.328125 252.375 114.347656 251.5 115.445312 Z M 214.945312 148.800781 C 214.871094 148.875 215.164062 148.800781 214.945312 148.800781 Z M 209.542969 164.496094 C 210.929688 162.453125 215.453125 163.691406 215.382812 162.160156 C 216.402344 142.671875 212.753906 153.621094 209.472656 164.203125 C 209.253906 164.714844 208.960938 165.152344 209.542969 164.496094 Z M 211.808594 169.53125 C 210.347656 169.972656 208.085938 167.195312 207.792969 169.605469 C 206.699219 172.964844 205.824219 176.46875 204.65625 179.75 C 206.773438 176.539062 209.105469 172.671875 211.808594 169.53125 Z M 203.269531 184.277344 C 202.46875 187.050781 200.933594 190.847656 200.058594 194.132812 C 203.195312 192.816406 201.882812 187.34375 203.269531 184.277344 Z M 187.800781 204.570312 C 184.589844 205.300781 176.054688 202.527344 180.722656 207.269531 C 181.453125 208.585938 183.789062 210.480469 180.722656 210.042969 C 179.703125 209.09375 179.191406 207.707031 178.390625 206.613281 C 175.398438 202.015625 167.882812 205.882812 163.140625 204.570312 C 159.34375 204.714844 155.257812 205.226562 153.652344 200.992188 C 151.539062 197.488281 152.121094 193.402344 151.609375 189.605469 C 149.203125 182.234375 140.445312 179.386719 137.382812 172.378906 C 134.246094 166.976562 139.789062 160.191406 136.652344 155.371094 C 132.566406 150.917969 131.617188 145.300781 131.546875 139.605469 C 131.835938 133.984375 131.109375 128.65625 132.128906 123.035156 C 133.734375 115.882812 136.578125 125.808594 136.214844 128.144531 C 137.820312 131.722656 139.425781 135.296875 141.324219 138.730469 C 146.136719 148.800781 157.082031 139.53125 155.988281 157.488281 C 160.367188 157.050781 165.035156 158.363281 167.589844 162.234375 C 164.746094 156.394531 162.554688 147.269531 159.199219 140.773438 C 152.484375 141.136719 143.148438 139.824219 140.738281 132.160156 C 141.832031 124.640625 153.289062 128.730469 155.84375 132.671875 C 152.558594 128.730469 152.925781 118.949219 146.722656 118.875 C 144.972656 119.09375 143.511719 118.363281 142.125 117.414062 C 136.578125 112.015625 146.355469 111.355469 148.109375 115.882812 C 145.699219 111.574219 143.949219 106.683594 141.613281 102.304688 C 141.25 101.574219 141.03125 101.210938 140.15625 101.792969 C 138.695312 102.960938 136.796875 102.523438 135.121094 103.179688 C 120.964844 103.179688 129.503906 87.121094 138.914062 96.683594 C 136.507812 92.890625 134.535156 88.507812 132.203125 84.496094 C 131.035156 82.597656 128.699219 82.960938 126.875 82.453125 C 124.539062 81.429688 121.183594 80.335938 120.601562 77.5625 C 119.945312 73.398438 125.34375 74.640625 127.019531 76.683594 C 124.394531 73.253906 122.496094 69.386719 119.289062 66.464844 C 122.058594 65.226562 124.613281 70.699219 126.074219 72.890625 C 124.757812 68.726562 128.773438 64.496094 130.160156 69.386719 C 129.429688 78 126.363281 73.765625 132.640625 82.378906 C 134.753906 85.007812 135.996094 88.144531 137.457031 91.136719 C 136.871094 89.75 136.507812 88.289062 136.726562 86.757812 C 136.796875 76.757812 144.3125 86.027344 139.644531 91.941406 C 138.914062 96.976562 144.3125 102.378906 145.917969 107.269531 C 147.816406 85.953125 161.242188 102.453125 149.128906 112.671875 C 148.253906 115.738281 153.800781 121.574219 154.601562 125.371094 C 157.8125 111.210938 166.128906 124.789062 157.667969 130.261719 C 155.84375 132.453125 163.140625 142.742188 163.503906 146.539062 C 163.066406 139.679688 172.625 132.453125 171.53125 143.546875 C 170.726562 146.464844 169.269531 148.800781 166.496094 150.117188 C 163.867188 153.109375 170.875 163.472656 171.382812 167.855469 C 173.863281 168.804688 174.523438 169.167969 175.542969 166.46875 C 176.492188 164.351562 179.992188 162.523438 180.871094 165.664062 C 181.816406 168.949219 180.433594 172.453125 178.460938 175.007812 C 179.921875 179.605469 179.628906 184.789062 181.453125 189.3125 C 181.964844 186.90625 185.027344 182.160156 186.78125 186.25 C 187.507812 188.875 186.632812 191.941406 185.175781 194.203125 C 185.027344 194.351562 185.101562 194.570312 184.957031 194.714844 C 186.707031 196.976562 190.28125 202.089844 187.800781 204.570312 Z M 163.140625 166.976562 C 175.105469 169.75 161.972656 158.949219 156.570312 158.4375 C 153.800781 162.597656 163.210938 157.050781 163.140625 166.976562 Z M 252.375 76.539062 C 249.96875 74.714844 242.816406 79.09375 243.910156 81.648438 C 246.027344 84.640625 250.914062 83.472656 252.375 80.480469 C 253.25 79.457031 254.054688 77.339844 252.375 76.539062 Z M 253.179688 78.949219 C 253.179688 78.875 253.179688 78.875 253.179688 78.949219 Z M 249.675781 76.246094 C 249.75 76.246094 249.75 76.246094 249.675781 76.246094 C 249.75 76.246094 249.675781 76.246094 249.675781 76.246094 Z M 247.488281 73.328125 C 247.707031 73.472656 248.070312 73.984375 248.363281 73.546875 C 248.507812 73.546875 248.507812 73.109375 248.652344 73.035156 C 253.03125 63.035156 242.523438 63.035156 247.488281 73.328125 Z M 247.488281 73.328125 " fill-opacity="1" fill-rule="nonzero"/><path fill="#d6df74" d="M 135.414062 148.730469 Z M 250.257812 62.816406 Z M 135.195312 136.832031 C 136.652344 136.539062 133.808594 133.035156 135.484375 131.941406 C 135.632812 131.574219 134.972656 131.429688 134.828125 131.796875 C 134.683594 131.941406 134.683594 132.378906 134.316406 132.015625 C 134.316406 131.429688 133.515625 131.648438 133.371094 132.085938 C 131.546875 132.234375 131.253906 134.933594 133.441406 133.691406 C 133.441406 134.789062 133.515625 137.269531 135.195312 136.832031 Z M 179.117188 170.554688 Z M 127.679688 100.625 Z M 190.210938 196.03125 C 186.414062 194.132812 187.800781 201.648438 190.210938 198.949219 C 190.9375 198.292969 190.9375 196.613281 190.210938 196.03125 Z M 177.511719 102.304688 C 178.753906 101.355469 175.90625 101.210938 176.566406 102.011719 C 176.855469 102.085938 177.222656 102.085938 177.511719 102.304688 Z M 190.574219 199.09375 C 190.574219 199.167969 190.648438 199.167969 190.648438 199.242188 C 190.648438 199.09375 190.71875 198.949219 190.574219 199.09375 Z M 173.863281 157.925781 C 173.863281 157.925781 173.792969 157.855469 173.792969 157.855469 C 173.792969 157.925781 173.863281 157.925781 173.863281 157.925781 Z M 177.730469 169.75 C 177.660156 169.824219 177.585938 169.898438 177.511719 169.972656 C 177.730469 169.972656 177.730469 169.898438 177.730469 169.75 Z M 191.742188 153.253906 C 191.8125 153.402344 191.886719 153.472656 192.035156 153.621094 C 192.035156 153.402344 191.886719 153.328125 191.742188 153.253906 Z M 237.855469 168.074219 C 237.855469 168.074219 237.929688 168.074219 237.855469 168.074219 C 237.929688 168.074219 237.855469 168.074219 237.855469 168.074219 Z M 211.078125 178.875 C 211.078125 178.804688 211.003906 178.875 211.078125 178.875 C 211.078125 178.804688 211.078125 178.875 211.078125 178.875 Z M 188.238281 193.035156 Z M 188.09375 194.277344 C 188.3125 194.789062 189.1875 195.882812 189.332031 194.714844 C 189.113281 194.203125 187.875 192.964844 188.238281 192.597656 C 189.261719 191.648438 186.925781 191.359375 187.507812 190.191406 C 187.65625 189.605469 187.070312 189.023438 187.363281 188.363281 C 187.4375 188.21875 187.289062 188.074219 187.21875 188.074219 C 185.976562 187.34375 187.363281 186.976562 185.394531 187.269531 C 184.808594 186.90625 185.757812 186.539062 185.320312 186.101562 C 185.101562 185.519531 184.226562 185.589844 184.226562 184.789062 C 184.007812 184.421875 183.421875 184.789062 184.007812 184.496094 C 185.539062 182.160156 183.789062 183.109375 182.402344 183.402344 C 181.816406 183.328125 179.773438 183.695312 180.652344 184.640625 C 181.378906 185.082031 180.503906 184.714844 180.214844 185.007812 C 180.433594 187.195312 180.871094 191.210938 183.277344 192.671875 C 185.175781 196.976562 185.027344 192.160156 185.101562 193.402344 C 185.832031 194.277344 186.269531 193.839844 185.613281 192.964844 C 186.414062 193.328125 187.21875 193.765625 188.09375 194.277344 Z M 246.757812 118.949219 C 246.609375 119.167969 246.757812 119.53125 246.757812 119.75 C 247.558594 119.679688 247.707031 118.730469 246.757812 118.949219 Z M 235.8125 127.851562 C 236.105469 127.78125 235.957031 127.414062 235.738281 127.488281 C 235.8125 127.632812 235.8125 127.851562 235.8125 127.851562 Z M 142.269531 134.859375 C 142.34375 134.859375 142.34375 134.789062 142.34375 134.714844 C 142.199219 134.714844 142.199219 134.789062 142.269531 134.859375 Z M 160.660156 118.875 C 160.660156 119.824219 158.761719 122.453125 160.949219 121.355469 C 161.242188 120.699219 161.386719 120.917969 161.753906 121.066406 C 161.898438 120.773438 161.898438 120.773438 161.535156 120.773438 C 162.410156 120.335938 161.898438 119.53125 162.042969 118.875 C 162.042969 118 162.191406 119.460938 162.703125 119.679688 C 163.867188 120.480469 163.867188 118.363281 164.816406 118.070312 C 164.453125 117.78125 164.453125 118.144531 164.304688 118.363281 C 164.671875 117.050781 163.648438 117.050781 162.992188 116.246094 C 162.554688 115.007812 160.585938 115.226562 161.023438 116.613281 C 161.316406 117.414062 160.730469 118.144531 160.660156 118.875 Z M 130.886719 68.144531 C 129.941406 68.21875 130.742188 68.65625 131.179688 68.949219 C 131.328125 68.4375 131.328125 68.4375 130.886719 68.144531 Z M 180.578125 208.730469 C 178.972656 208.949219 179.410156 209.753906 180.722656 209.898438 C 181.089844 209.167969 181.964844 208.367188 180.578125 208.730469 Z M 169.414062 209.460938 C 169.414062 209.460938 169.414062 209.535156 169.414062 209.460938 C 169.414062 209.535156 169.488281 209.460938 169.414062 209.460938 Z M 233.113281 89.167969 C 233.550781 89.53125 233.914062 88.730469 233.257812 88.730469 C 232.746094 88.730469 232.894531 87.851562 232.382812 87.925781 C 231.871094 88.144531 232.382812 89.605469 233.113281 89.167969 Z M 138.621094 157.050781 Z M 140.226562 158.65625 C 140.957031 159.242188 140.886719 158.21875 141.542969 158.144531 C 142.707031 158 141.324219 156.6875 141.542969 155.957031 C 140.738281 156.394531 140.082031 154.640625 139.5 155.808594 C 137.601562 157.5625 139.863281 156.832031 140.226562 158.65625 Z M 138.621094 157.050781 C 138.621094 157.125 138.621094 157.125 138.621094 157.050781 Z M 138.476562 157.195312 C 138.476562 157.195312 138.550781 157.125 138.550781 157.125 C 138.550781 157.125 138.550781 157.125 138.476562 157.195312 Z M 139.71875 166.757812 C 139.863281 166.90625 139.9375 166.90625 140.007812 166.757812 C 139.863281 166.539062 139.789062 166.613281 139.71875 166.757812 Z M 170.363281 193.109375 C 170.582031 192.964844 170.800781 192.890625 170.4375 192.816406 C 170.144531 192.746094 169.996094 193.253906 170.363281 193.109375 Z M 148.472656 153.914062 C 148.253906 154.351562 148.765625 154.351562 148.839844 154.640625 C 148.691406 156.175781 149.714844 154.496094 150.441406 154.933594 C 150.515625 154.789062 150.589844 154.496094 150.441406 154.496094 C 149.714844 154.496094 148.984375 153.109375 148.472656 153.914062 Z M 159.710938 119.679688 C 159.636719 119.679688 159.636719 119.75 159.636719 119.824219 C 159.78125 119.824219 159.78125 119.75 159.710938 119.679688 Z M 171.894531 198.4375 C 171.894531 198.804688 172.625 198.804688 172.769531 198.585938 C 172.699219 198.144531 172.039062 198.074219 171.894531 198.4375 Z M 171.457031 198 C 171.238281 197.925781 171.164062 198 171.09375 198.144531 C 171.3125 198.21875 171.382812 198.21875 171.457031 198 Z M 136.214844 111.429688 C 136.140625 111.792969 136.507812 111.648438 136.726562 111.648438 C 136.652344 111.429688 136.433594 111.429688 136.214844 111.429688 Z M 154.308594 106.902344 C 154.527344 106.464844 153.871094 106.683594 153.800781 106.976562 C 153.945312 107.125 154.089844 107.050781 154.308594 106.902344 Z M 154.675781 107.707031 C 154.675781 107.488281 154.527344 107.488281 154.382812 107.5625 C 154.382812 107.632812 154.601562 107.925781 154.675781 107.707031 Z M 130.011719 91.792969 C 130.304688 91.574219 130.667969 90.773438 130.304688 90.554688 C 129.722656 90.554688 129.574219 91.503906 130.011719 91.792969 Z M 157.15625 121.648438 Z M 156.644531 121.648438 C 156.132812 121.722656 156.351562 122.085938 156.644531 122.304688 C 157.375 122.816406 157.375 120.992188 156.644531 121.648438 Z M 172.332031 197.5625 C 172.332031 197.5625 172.40625 197.5625 172.40625 197.636719 C 172.40625 197.488281 172.332031 197.488281 172.332031 197.5625 Z M 172.40625 197.636719 Z M 130.816406 90.1875 C 131.109375 89.53125 130.160156 89.457031 129.792969 89.898438 C 130.160156 90.117188 130.449219 90.261719 130.816406 90.1875 Z M 178.316406 192.015625 C 178.242188 192.015625 178.167969 192.015625 178.097656 192.085938 C 178.242188 192.160156 178.316406 192.085938 178.316406 192.015625 Z M 163.359375 206.539062 Z M 163.359375 206.539062 C 163.429688 206.613281 163.503906 206.757812 163.648438 206.613281 C 163.578125 206.46875 163.503906 206.539062 163.359375 206.539062 Z M 157.449219 158.65625 Z M 141.175781 79.53125 C 141.175781 79.605469 141.175781 79.605469 141.175781 79.53125 C 141.25 79.605469 141.175781 79.53125 141.175781 79.53125 Z M 137.308594 111.648438 C 137.382812 111.722656 137.457031 111.792969 137.601562 111.941406 C 137.527344 111.792969 137.457031 111.722656 137.308594 111.648438 Z M 166.640625 128.949219 C 166.640625 128.949219 166.570312 128.949219 166.570312 128.875 C 166.640625 129.019531 166.640625 129.019531 166.640625 128.949219 Z M 166.570312 128.875 Z M 211.878906 175.300781 Z M 211.660156 176.320312 C 217.644531 173.472656 210.421875 172.527344 211.515625 174.570312 C 212.464844 175.519531 211.222656 175.445312 211.660156 176.320312 Z M 210.929688 178.511719 C 210.640625 178.511719 210.347656 178.511719 210.054688 178.511719 C 210.347656 178.949219 211.296875 178.949219 210.929688 178.511719 Z M 210.273438 177.78125 Z M 209.910156 177.855469 C 209.984375 178.074219 210.203125 177.855469 210.203125 177.78125 C 210.128906 177.78125 209.984375 177.78125 209.910156 177.855469 Z M 210.273438 177.78125 C 210.273438 177.78125 210.347656 177.707031 210.347656 177.707031 C 210.273438 177.707031 210.273438 177.707031 210.273438 177.78125 Z M 196.121094 174.789062 Z M 196.410156 174.351562 C 196.265625 174.277344 196.121094 174.351562 196.121094 174.496094 C 195.898438 175.152344 197.214844 174.640625 196.410156 174.351562 Z M 227.421875 107.34375 C 227.421875 107.269531 227.421875 107.050781 227.347656 106.976562 C 227.054688 107.050781 227.273438 107.269531 227.421875 107.34375 Z M 227.421875 107.34375 Z M 197.652344 167.5625 Z M 197.578125 167.488281 C 197.578125 167.488281 197.652344 167.488281 197.652344 167.5625 C 197.578125 167.414062 197.578125 167.414062 197.578125 167.488281 Z M 239.242188 112.523438 C 239.824219 112.378906 239.316406 112.085938 239.023438 112.015625 C 238.65625 112.304688 238.730469 112.890625 239.242188 112.523438 Z M 180.066406 92.523438 C 179.992188 92.378906 179.773438 92.453125 179.847656 92.523438 C 179.921875 92.597656 180.066406 92.523438 180.066406 92.523438 Z M 191.449219 154.132812 Z M 191.523438 153.984375 C 191.523438 153.984375 191.449219 154.058594 191.449219 154.058594 C 191.59375 154.058594 191.59375 154.058594 191.523438 153.984375 Z M 190.28125 199.605469 C 190.0625 199.53125 189.84375 199.679688 189.769531 199.824219 C 189.550781 200.554688 190.867188 199.972656 190.28125 199.605469 Z M 204.730469 134.421875 C 204.511719 134.203125 204.363281 134.570312 204.4375 134.789062 C 204.582031 134.714844 204.65625 134.570312 204.730469 134.421875 Z M 204.363281 134.789062 C 204.363281 134.714844 204.363281 134.714844 204.363281 134.789062 C 204.363281 134.714844 204.363281 134.789062 204.363281 134.789062 Z M 184.226562 175.882812 C 184.007812 175.664062 183.933594 175.957031 183.933594 176.101562 C 184.078125 176.101562 184.152344 175.957031 184.226562 175.882812 Z M 233.257812 184.570312 C 233.40625 184.421875 233.113281 184.277344 233.113281 184.496094 C 233.039062 184.714844 233.113281 184.714844 233.257812 184.570312 Z M 233.113281 184.714844 C 232.964844 184.789062 233.113281 184.789062 233.113281 184.714844 C 233.113281 184.789062 233.113281 184.714844 233.113281 184.714844 Z M 232.964844 184.863281 C 232.964844 184.863281 233.039062 184.789062 233.039062 184.789062 C 232.964844 184.789062 232.964844 184.789062 232.964844 184.863281 Z M 238.148438 173.402344 C 238.074219 173.402344 238 173.328125 238.148438 173.402344 Z M 217.496094 170.480469 Z M 206.84375 191.722656 C 206.84375 191.867188 206.84375 191.941406 206.84375 192.085938 C 207.136719 192.015625 206.992188 191.867188 206.84375 191.722656 Z M 155.625 154.203125 C 153.433594 145.519531 159.054688 151.578125 156.207031 147.414062 C 155.257812 146.832031 154.675781 146.027344 153.507812 146.90625 C 153.289062 147.050781 152.996094 146.976562 152.777344 146.832031 C 151.757812 145.589844 149.714844 145.664062 148.910156 143.984375 C 141.90625 143.402344 139.351562 137.707031 143.4375 136.175781 C 144.898438 137.707031 146.648438 138.875 148.765625 139.53125 C 151.390625 140.410156 154.164062 140.847656 156.9375 140.773438 C 161.023438 137.5625 166.277344 160.554688 167.152344 161.285156 C 165.839844 157.707031 154.382812 157.195312 158.25 156.757812 C 158.25 156.101562 156.644531 156.394531 157.011719 155.300781 C 157.15625 154.203125 155.84375 154.789062 155.625 154.203125 Z M 144.023438 137.414062 C 143.585938 137.632812 142.125 137.78125 143.292969 137.707031 C 143.585938 137.632812 143.804688 137.488281 144.023438 137.414062 Z M 128.554688 100.773438 C 128.042969 99.238281 126.21875 99.238281 127.679688 100.699219 C 127.96875 101.867188 130.085938 102.011719 128.554688 100.773438 Z M 151.320312 148.363281 C 150.734375 147.414062 149.128906 148.21875 149.933594 149.023438 C 150.660156 150.773438 149.785156 156.175781 152.121094 156.175781 C 153.363281 155.738281 150.296875 151.648438 152.265625 151.796875 C 154.527344 151.503906 150.296875 150.335938 151.320312 148.363281 Z M 144.824219 150.628906 C 145.773438 148.144531 146.429688 148.949219 143.804688 146.976562 C 144.167969 146.6875 144.898438 146.246094 144.242188 145.664062 C 142.855469 143.984375 140.59375 147.78125 140.664062 145.664062 C 139.0625 144.714844 142.5625 149.898438 143 151.066406 C 144.75 154.421875 144.460938 153.472656 144.824219 150.628906 Z M 153.433594 105.882812 C 153.363281 106.175781 153.144531 106.757812 153.144531 106.902344 C 153.507812 106.539062 153.652344 106.246094 153.433594 105.882812 Z M 138.769531 142.964844 C 138.839844 143.035156 138.695312 142.742188 138.621094 142.671875 C 138.621094 142.816406 138.695312 142.890625 138.769531 142.964844 Z M 172.332031 204.058594 C 170.800781 202.597656 166.496094 205.882812 163.429688 204.714844 C 162.042969 205.007812 158.25 201.140625 158.324219 202.816406 C 159.34375 204.132812 161.242188 203.402344 162.117188 204.789062 C 164.378906 205.226562 163.210938 209.679688 166.933594 206.757812 C 167.152344 207.855469 164.746094 209.753906 166.640625 209.679688 C 167.664062 210.191406 168.683594 208.804688 169.488281 209.460938 C 169.707031 205.082031 176.855469 210.921875 172.332031 204.058594 Z M 136.507812 138.4375 C 136.726562 138.949219 137.019531 139.53125 137.238281 140.042969 C 137.820312 138.875 137.308594 135.882812 136.507812 138.4375 Z M 157.15625 158.65625 C 157.230469 158.65625 157.300781 158.65625 157.375 158.65625 C 157.300781 158.65625 157.15625 158.511719 157.15625 158.65625 Z M 175.03125 183.695312 C 174.886719 182.160156 177.074219 182.527344 176.855469 181.285156 C 175.90625 180.847656 176.710938 179.386719 175.542969 179.242188 C 174.886719 179.167969 174.886719 178.65625 174.742188 178.21875 C 174.011719 177.78125 169.414062 175.226562 172.113281 176.539062 C 172.699219 176.320312 173.425781 176.90625 173.9375 177.269531 C 177.949219 179.605469 175.90625 174.277344 173.28125 174.058594 C 172.113281 173.621094 170.875 174.132812 169.777344 173.695312 C 169.339844 173.402344 168.902344 172.746094 168.246094 172.964844 C 167.445312 173.765625 168.976562 174.058594 168.832031 174.859375 C 167.589844 176.027344 166.421875 177.269531 166.347656 175.007812 C 166.496094 174.496094 167.882812 174.421875 166.859375 173.546875 C 166.859375 173.183594 167.226562 172.597656 166.714844 172.453125 C 165.472656 172.453125 165.402344 171.429688 164.890625 170.554688 C 164.085938 168.582031 167.882812 167.855469 166.347656 165.808594 C 165.765625 164.277344 163.648438 163.183594 163.796875 165.589844 C 162.628906 162.964844 166.347656 164.277344 166.933594 165.738281 C 171.96875 169.75 161.824219 158.363281 157.886719 158.800781 C 155.914062 159.605469 156.28125 158.511719 156.207031 161.066406 C 164.597656 157.050781 165.402344 173.183594 158.46875 175.152344 C 161.167969 178.875 164.304688 185.445312 167.152344 187.417969 C 164.234375 178 174.230469 171.722656 175.03125 183.695312 Z M 154.820312 162.523438 C 153.289062 162.015625 152.484375 161.648438 153.144531 163.621094 C 152.414062 162.964844 153.144531 161.359375 153.289062 160.410156 C 155.695312 158.875 152.121094 154.789062 151.828125 159.023438 C 148.253906 161.941406 152.558594 165.882812 154.75 169.824219 C 155.550781 169.460938 154.675781 168.144531 154.820312 167.414062 C 154.382812 165.808594 155.695312 163.328125 154.820312 162.523438 Z M 180.796875 203.839844 C 181.308594 204.933594 180.503906 204.863281 179.628906 205.007812 C 178.753906 205.152344 179.921875 204.351562 179.703125 203.839844 C 178.242188 205.519531 176.636719 200.921875 175.761719 199.972656 C 178.753906 200.992188 174.886719 199.460938 174.667969 198.367188 C 174.15625 197.488281 171.457031 194.421875 173.207031 195.664062 C 172.769531 193.402344 177.222656 194.351562 175.761719 196.976562 C 177.441406 195.738281 176.566406 194.132812 174.8125 193.695312 C 165.910156 192.453125 171.96875 190.410156 174.300781 186.539062 C 175.179688 189.3125 177.949219 187.269531 177.804688 191.429688 C 177.878906 193.546875 176.054688 190.628906 176.929688 192.015625 C 177.367188 192.816406 178.390625 191.941406 178.972656 192.671875 C 178.753906 194.496094 180.140625 193.546875 181.746094 196.6875 C 183.132812 198.511719 180.359375 198 179.410156 198.65625 C 179.921875 199.53125 180.652344 200.554688 181.746094 200.628906 C 182.914062 201.503906 182.328125 204.058594 180.796875 203.839844 Z M 173.863281 196.46875 C 174.011719 196.539062 174.15625 196.539062 174.375 196.539062 C 174.449219 196.25 174.011719 196.46875 173.863281 196.46875 Z M 180.652344 203.839844 C 180.359375 203.695312 179.992188 203.695312 179.703125 203.839844 C 180.066406 204.058594 180.359375 203.839844 180.652344 203.839844 Z M 149.058594 160.191406 C 151.976562 158.582031 149.496094 159.023438 149.128906 157.855469 C 148.984375 156.613281 148.109375 157.269531 147.378906 157.5625 C 147.816406 158.511719 148.546875 159.242188 149.058594 160.191406 Z M 177.367188 208.074219 C 176.785156 208.367188 177.511719 208.511719 177.441406 208.730469 C 177.878906 209.753906 176.199219 210.335938 176.125 209.386719 C 176.199219 207.707031 172.332031 207.199219 174.59375 205.8125 C 173.425781 203.621094 177.804688 205.152344 174.375 202.597656 C 176.417969 204.933594 170.507812 203.402344 173.9375 202.234375 C 175.542969 200.921875 177.292969 205.8125 178.460938 206.832031 C 179.335938 208.21875 177.222656 206.394531 177.367188 208.074219 Z M 174.300781 202.308594 C 174.230469 202.308594 174.15625 202.308594 174.300781 202.308594 C 174.230469 202.308594 174.300781 202.308594 174.300781 202.308594 Z M 174.300781 202.453125 C 174.449219 202.597656 174.375 202.527344 174.300781 202.453125 Z M 137.527344 128.875 C 137.601562 127.488281 136.140625 126.539062 136.726562 125.078125 C 136.796875 124.570312 136.945312 123.910156 137.746094 124.496094 C 138.621094 122.890625 138.332031 120.261719 138.988281 118.4375 C 138.183594 116.464844 134.828125 115.226562 134.683594 112.453125 C 135.195312 109.53125 137.675781 114.347656 137.675781 113.765625 C 137.457031 112.378906 139.0625 112.453125 139.0625 113.691406 C 147.742188 125.808594 147.378906 109.238281 155.40625 131.941406 C 155.1875 128.730469 138.621094 128.144531 144.898438 124.640625 C 144.679688 123.472656 143.4375 122.523438 142.199219 122.671875 C 141.980469 123.328125 141.613281 125.078125 142.417969 123.472656 C 143.148438 121.648438 145.410156 126.320312 140.664062 125.882812 C 140.957031 125.808594 141.46875 124.277344 141.25 124.128906 C 137.964844 119.679688 140.8125 128.144531 139.789062 129.53125 C 138.695312 130.847656 136.359375 131.722656 137.527344 128.875 Z M 141.613281 121.941406 C 142.125 122.523438 142.636719 122.304688 142.269531 121.503906 C 141.394531 119.824219 141.832031 120.554688 141.613281 121.941406 Z M 153.433594 112.816406 C 154.238281 114.128906 150.152344 114.640625 152.996094 116.683594 C 155.113281 114.789062 152.777344 112.742188 154.089844 112.085938 C 156.644531 110.992188 154.164062 116.683594 155.914062 116.464844 C 154.96875 116.027344 155.914062 115.445312 155.988281 116.464844 C 156.644531 116.320312 160.511719 116.757812 158.6875 117.632812 C 156.644531 117.925781 157.957031 117.78125 157.082031 119.3125 C 156.132812 120.773438 156.425781 118.511719 155.625 121.355469 C 154.382812 121.867188 152.996094 121.867188 154.238281 123.472656 C 155.550781 120.480469 155.039062 123.765625 154.457031 125.296875 C 153.582031 121.503906 148.035156 115.664062 148.984375 112.597656 C 151.539062 109.898438 150.589844 113.839844 153.433594 112.816406 Z M 153.070312 116.832031 C 153.070312 116.976562 153.214844 117.050781 153.214844 117.125 C 153.289062 116.976562 153.214844 116.90625 153.070312 116.832031 Z M 152.996094 107.34375 C 152.851562 107.269531 152.851562 107.488281 152.777344 107.632812 C 152.925781 107.5625 152.996094 107.5625 152.996094 107.34375 Z M 146.285156 148.511719 C 146.796875 147.925781 148.839844 148.511719 148.328125 147.78125 C 148.109375 147.269531 148.035156 146.320312 147.304688 146.464844 C 146.355469 146.6875 147.085938 148.074219 146.285156 148.511719 Z M 124.539062 70.335938 C 126 73.035156 126.144531 72.597656 125.78125 70.1875 C 124.539062 72.160156 124.6875 67.050781 123.882812 67.269531 C 118.703125 65.734375 123.300781 67.558594 124.539062 70.335938 Z M 120.746094 69.3125 C 121.183594 69.675781 120.671875 70.84375 121.769531 70.699219 C 122.863281 69.386719 121.039062 68.4375 120.089844 67.632812 C 119.652344 67.269531 120.671875 68.875 120.746094 69.3125 Z M 125.636719 69.386719 C 125.707031 70.625 126.511719 67.707031 126.949219 67.339844 C 125.050781 65.882812 125.636719 68.289062 125.636719 69.386719 Z M 138.769531 149.605469 C 138.914062 149.824219 140.375 149.824219 139.789062 149.898438 C 137.164062 150.917969 141.542969 151.648438 140.226562 153.472656 C 139.425781 155.078125 141.6875 154.933594 141.832031 155.957031 C 141.761719 157.195312 143.292969 156.394531 143.585938 157.195312 C 141.980469 156.246094 143.148438 159.53125 141.613281 159.09375 C 140.007812 158.875 140.007812 160.117188 140.886719 160.992188 C 140.738281 160.480469 141.175781 160.191406 141.613281 160.042969 C 147.671875 158.800781 148.253906 162.746094 143.511719 155.152344 C 140.8125 150.773438 138.476562 146.246094 136.359375 141.648438 C 136.945312 142.742188 132.785156 140.335938 134.390625 142.890625 C 137.382812 145.808594 135.265625 144.203125 135.632812 147.488281 C 134.753906 148.363281 136.140625 149.605469 136.945312 148.65625 C 137.089844 147.414062 138.402344 149.3125 138.769531 149.605469 Z M 129.429688 73.546875 C 130.011719 73.472656 131.546875 73.691406 131.253906 72.742188 C 131.179688 71.722656 128.480469 68.949219 131.179688 69.386719 C 132.640625 69.96875 132.785156 72.597656 133.515625 71.722656 C 133.808594 71.503906 133.441406 70.84375 134.027344 70.917969 C 135.484375 70.480469 133.953125 72.671875 134.464844 73.328125 C 135.265625 74.566406 137.527344 73.839844 137.894531 75.007812 C 134.976562 79.386719 139.425781 76.613281 140.664062 78.949219 C 140.59375 79.53125 139.71875 79.09375 140.375 79.53125 C 140.886719 81.285156 138.039062 79.3125 137.238281 80.699219 C 135.921875 82.378906 136.578125 88.363281 137.089844 90.554688 C 137.019531 90.554688 134.246094 84.058594 132.566406 82.304688 C 131.035156 79.53125 126.875 76.613281 129.429688 73.546875 Z M 133.003906 78.070312 C 135.414062 78 136.433594 77.5625 136.289062 74.859375 C 135.703125 75.445312 135.703125 76.613281 134.535156 76.171875 C 132.347656 75.445312 133.371094 76.683594 133.003906 78.070312 Z M 133.003906 78.144531 C 132.128906 78.875 132.203125 77.339844 131.546875 77.5625 C 130.667969 78.21875 132.566406 78.949219 133.003906 78.144531 Z M 123.882812 74.785156 C 124.976562 75.226562 126.144531 75.808594 126.949219 76.683594 C 124.6875 75.078125 122.789062 66.902344 121.109375 72.160156 C 121.039062 72.523438 121.402344 73.984375 120.601562 73.179688 C 118.921875 71.792969 119.945312 74.347656 119.289062 75.078125 C 120.234375 76.976562 121.476562 74.128906 123.882812 74.785156 Z M 126.730469 82.960938 C 126.074219 82.816406 125.5625 82.742188 125.417969 81.867188 C 133.515625 82.160156 134.609375 90.480469 138.621094 96.246094 C 137.675781 95.371094 130.886719 91.429688 128.335938 95.664062 C 126.582031 92.304688 132.859375 92.160156 130.816406 89.238281 C 131.253906 88.289062 130.523438 89.53125 130.160156 88.800781 C 130.304688 87.851562 129.503906 87.851562 129.722656 88.144531 C 129.574219 89.167969 127.898438 87.707031 127.898438 87.121094 C 127.75 86.464844 129.0625 85.371094 128.1875 85.078125 C 127.460938 84.785156 127.167969 83.398438 126.730469 82.960938 Z M 131.109375 88.730469 C 131.179688 88.65625 131.328125 88.582031 131.109375 88.65625 C 131.035156 88.730469 131.109375 88.730469 131.109375 88.730469 Z M 148.984375 173.472656 C 152.484375 173.402344 155.914062 175.664062 158.105469 177.78125 C 154.820312 174.351562 153.144531 168.730469 149.640625 166.027344 C 145.261719 167.636719 138.695312 160.773438 140.007812 165.371094 C 140.886719 166.175781 141.832031 166.90625 142.199219 168.21875 C 142.34375 169.460938 143.511719 167.855469 142.929688 167.488281 C 145.335938 168.65625 139.425781 168.875 140.007812 171.285156 C 140.082031 172.304688 142.636719 171.503906 143.65625 172.378906 C 137.894531 170.554688 141.980469 174.714844 145.410156 174.496094 C 146.355469 173.402344 147.742188 173.621094 148.984375 173.472656 Z M 133.152344 111.792969 C 133.808594 107.925781 135.414062 112.816406 136.726562 110.699219 C 137.019531 109.167969 136.507812 108.730469 135.703125 109.238281 C 136.652344 109.019531 136.214844 108.292969 136.359375 107.632812 C 136.871094 108.292969 136.507812 109.09375 136.796875 109.824219 C 136.871094 110.335938 140.59375 114.128906 140.226562 112.304688 C 140.226562 112.234375 140.226562 112.234375 140.15625 112.234375 C 140.007812 112.234375 140.226562 112.015625 140.226562 112.234375 C 140.8125 113.109375 139.9375 114.714844 140.664062 115.296875 C 139.9375 113.109375 142.125 112.304688 144.3125 112.890625 C 148.035156 113.910156 148.546875 117.632812 146.355469 112.453125 C 144.972656 110.40625 142.488281 100.992188 140.082031 101.722656 C 138.257812 103.472656 129.0625 102.304688 134.246094 105.515625 C 132.929688 106.101562 131.984375 106.902344 130.886719 107.851562 C 130.085938 108.582031 131.617188 109.167969 131.546875 110.117188 C 130.960938 111.066406 132.054688 112.890625 133.152344 111.792969 Z M 124.46875 81.722656 C 123.957031 82.085938 123.738281 81.136719 124.101562 81.210938 C 123.738281 80.917969 122.933594 81.648438 123.152344 82.453125 C 123.59375 83.035156 125.855469 81.574219 124.46875 81.722656 Z M 168.902344 194.644531 C 170.875 193.839844 167.515625 192.964844 167.007812 192.160156 C 168.171875 191.359375 161.605469 181.941406 159.636719 182.890625 C 158.03125 183.839844 153.289062 181.867188 153.507812 183.546875 C 153.726562 184.277344 154.164062 185.300781 153.144531 185.738281 C 152.484375 186.832031 154.089844 188.21875 152.777344 189.167969 C 152.195312 189.679688 152.484375 190.042969 152.996094 190.410156 C 153.582031 191.140625 152.996094 192.597656 154.457031 192.890625 C 156.207031 200.992188 158.25 189.824219 168.902344 194.644531 Z M 180.796875 164.496094 C 179.921875 164.132812 180.871094 166.6875 181.234375 166.539062 C 181.816406 165.957031 181.160156 164.859375 180.796875 164.496094 Z M 144.242188 88.800781 C 144.167969 88.507812 144.09375 88.65625 144.023438 88.800781 C 143.21875 88.800781 142.707031 88 141.980469 87.707031 C 142.125 88.363281 142.199219 88.582031 141.25 88.4375 C 139.207031 82.816406 145.992188 87.5625 148.035156 89.3125 C 148.179688 89.824219 147.890625 90.261719 147.453125 90.480469 C 148.035156 90.1875 148.179688 90.699219 148.328125 91.136719 C 146.722656 93.179688 149.277344 93.472656 150.003906 94.789062 C 150.441406 95.371094 149.859375 95.296875 149.566406 95.589844 C 148.765625 96.246094 148.179688 95.007812 147.453125 95.296875 C 147.890625 95.882812 148.109375 96.683594 149.128906 96.539062 C 150.371094 97.195312 147.523438 98.730469 148.035156 98.070312 C 147.378906 98.144531 146.941406 96.832031 146.285156 97.925781 C 144.972656 98.511719 147.378906 99.75 146.796875 100.625 C 145.992188 102.816406 145.773438 105.078125 145.699219 107.195312 C 144.023438 101.792969 134.902344 92.378906 142.050781 88.875 C 142.636719 87.5625 144.972656 90.40625 144.242188 88.800781 Z M 146.796875 95.371094 C 146.722656 95.371094 146.574219 95.445312 146.722656 95.515625 C 146.722656 95.515625 146.796875 95.445312 146.796875 95.371094 Z M 144.679688 89.457031 C 145.628906 89.605469 146.648438 90.917969 147.453125 90.554688 C 146.574219 90.042969 145.699219 89.53125 144.679688 89.457031 Z M 169.925781 146.976562 C 170.070312 147.925781 172.039062 149.96875 170.875 150.410156 C 172.039062 150.628906 171.09375 153.035156 172.480469 152.378906 C 172.988281 151.722656 173.207031 153.035156 173.574219 152.453125 C 174.011719 151.648438 174.886719 152.523438 175.03125 153.109375 C 174.8125 153.765625 173.863281 153.839844 173.574219 154.570312 C 180.433594 154.789062 169.851562 159.167969 172.40625 159.96875 C 173.136719 160.917969 174.523438 160.847656 173.9375 162.234375 C 174.15625 163.253906 176.054688 163.691406 176.785156 163.472656 C 176.417969 161.210938 178.753906 161.066406 178.460938 163.402344 C 169.925781 176.757812 169.707031 159.96875 165.691406 152.234375 C 164.671875 149.460938 169.269531 149.242188 169.925781 146.976562 Z M 174.375 167.125 C 174.667969 166.613281 172.988281 163.402344 172.625 165.082031 C 172.988281 165.664062 173.863281 166.25 174.375 167.125 Z M 183.714844 176.175781 C 184.882812 173.765625 183.496094 172.890625 181.964844 175.152344 C 181.746094 175.519531 181.746094 176.175781 181.089844 175.957031 C 181.378906 175.664062 181.964844 175.445312 181.746094 174.863281 C 180.871094 173.765625 182.328125 171.285156 181.160156 170.554688 C 178.242188 174.496094 177.222656 174.933594 180.066406 180.847656 C 179.554688 182.160156 181.234375 182.160156 181.890625 182.015625 C 181.746094 180.773438 182.402344 181.867188 183.277344 180.191406 C 184.445312 175.957031 181.308594 179.53125 183.714844 176.175781 Z M 156.71875 199.824219 C 156.5 199.679688 156.425781 199.09375 156.28125 199.605469 C 156.207031 200.042969 157.300781 200.480469 156.71875 199.824219 Z M 150.296875 161.578125 C 150.222656 161.285156 150.003906 161.210938 149.785156 161.136719 C 149.566406 161.210938 150.222656 162.523438 150.296875 161.578125 Z M 150.515625 182.234375 C 149.058594 181.503906 148.253906 180.847656 149.640625 182.527344 C 150.882812 183.109375 152.925781 182.964844 150.515625 182.234375 Z M 150.734375 110.847656 C 151.171875 111.210938 151.902344 111.574219 151.902344 110.699219 C 152.777344 109.605469 155.1875 112.304688 156.425781 112.671875 C 157.957031 112.523438 156.0625 113.253906 156.425781 113.910156 C 156.425781 114.203125 156.863281 114.347656 156.644531 114.859375 C 155.84375 117.050781 160.804688 115.445312 160.074219 113.839844 C 155.476562 108.4375 156.792969 110.625 156.132812 103.035156 C 156.132812 102.742188 156.132812 102.453125 156.351562 102.160156 C 157.886719 100.84375 155.550781 100.40625 156.425781 99.679688 C 157.230469 98.4375 157.082031 96.539062 155.988281 95.296875 C 154.75 94.714844 153.871094 96.613281 152.484375 96.683594 C 152.339844 96.757812 151.976562 97.050781 152.121094 97.121094 C 154.820312 98.800781 153.945312 102.816406 153.582031 105.445312 C 155.695312 105.226562 154.601562 108.363281 155.113281 109.53125 C 151.976562 107.488281 153.363281 107.414062 150.734375 110.847656 Z M 164.378906 130.773438 C 163.210938 130.554688 164.085938 125.738281 161.679688 125.296875 C 160.804688 124.570312 160.148438 129.3125 157.59375 130.117188 C 155.84375 132.234375 161.460938 139.386719 161.972656 142.523438 C 164.453125 149.96875 162.921875 141.355469 166.421875 138.800781 C 165.839844 137.050781 165.984375 135.078125 165.402344 133.472656 C 165.984375 133.035156 167.953125 134.351562 167.371094 132.597656 C 167.445312 129.3125 169.707031 127.414062 164.378906 130.773438 Z M 217.789062 173.472656 C 217.863281 172.597656 218.738281 172.453125 219.175781 171.867188 C 219.394531 169.824219 216.332031 170.554688 215.894531 171.867188 C 216.039062 172.671875 217.351562 172.015625 216.988281 173.035156 C 211.296875 170.042969 215.601562 176.832031 217.789062 173.472656 Z M 219.03125 172.671875 C 219.25 172.234375 219.6875 172.085938 220.125 172.085938 C 218.519531 171.359375 220.050781 170.191406 221.21875 170.261719 C 220.5625 170.117188 217.570312 169.972656 218.882812 168.511719 C 219.542969 168.582031 219.90625 169.3125 220.707031 169.09375 C 220.269531 169.167969 219.46875 168.65625 220.125 167.5625 C 220.488281 166.25 221.949219 167.414062 222.75 166.832031 C 223.042969 165.589844 222.023438 166.539062 221.363281 166.6875 C 220.925781 164.859375 219.832031 166.027344 218.59375 165.738281 C 218.59375 164.859375 218.664062 164.132812 218.007812 163.253906 C 217.425781 162.304688 217.496094 161.941406 218.375 161.136719 C 218.738281 160.773438 218.738281 159.96875 219.46875 160.554688 C 219.761719 160.847656 220.417969 160.628906 220.707031 160.847656 C 222.386719 164.421875 227.421875 167.050781 224.355469 171.285156 C 222.53125 173.328125 220.125 185.664062 219.980469 180.628906 C 219.175781 174.933594 217.058594 178.21875 219.03125 172.671875 Z M 220.636719 163.183594 C 220.78125 162.964844 221 162.816406 221 162.523438 C 221.363281 161.867188 220.125 162.964844 220.636719 163.183594 Z M 222.3125 164.714844 C 222.242188 164.789062 222.242188 164.789062 222.3125 164.789062 C 222.3125 164.789062 222.3125 164.714844 222.3125 164.714844 Z M 241.359375 152.671875 C 241.359375 151.941406 240.261719 153.472656 239.679688 153.621094 C 241.210938 157.125 241.136719 155.226562 241.359375 152.671875 Z M 246.027344 125.882812 C 241.210938 129.96875 240.628906 140.1875 236.90625 145.738281 C 242.671875 139.242188 246.171875 150.699219 245.953125 140.1875 C 245.589844 140.261719 245.445312 140.699219 245.003906 140.628906 C 244.421875 140.480469 244.421875 141.867188 243.839844 141.066406 C 243.472656 140.699219 243.910156 140.042969 243.472656 139.75 C 242.816406 139.386719 243.621094 138 244.058594 138.21875 C 244.714844 138.582031 244.128906 140.992188 245.445312 139.09375 C 246.683594 138.4375 245.296875 134.640625 244.277344 136.613281 C 241.503906 136.976562 244.128906 134.203125 243.546875 133.402344 C 243.472656 132.671875 245.371094 130.847656 243.839844 130.261719 C 244.347656 130.117188 244.421875 130.917969 244.933594 130.773438 C 245.664062 130.699219 244.714844 129.898438 245.152344 129.386719 C 245.664062 128.730469 244.859375 128.4375 245.078125 127.707031 C 245.226562 127.414062 246.246094 128 245.882812 127.34375 C 245.226562 126.613281 247.339844 126.320312 246.027344 125.882812 Z M 236.25 138.582031 C 236.105469 137.925781 235.957031 137.269531 235.957031 136.539062 C 235.957031 137.269531 235.082031 138.4375 236.25 138.582031 Z M 210.273438 180.773438 C 210.710938 178.730469 208.667969 178.730469 209.835938 180.480469 C 209.984375 180.773438 210.128906 180.773438 210.273438 180.773438 Z M 219.90625 159.460938 C 219.980469 159.386719 219.832031 158.875 219.6875 158.949219 C 219.613281 159.167969 219.6875 159.386719 219.90625 159.460938 Z M 220.636719 149.53125 C 220.78125 149.167969 221 148.949219 221.4375 148.949219 C 222.242188 148.800781 222.242188 147.707031 223.117188 147.5625 C 224.210938 147.34375 224.210938 145.371094 225.378906 145.738281 C 226.691406 145.882812 227.933594 144.714844 229.097656 144.203125 C 228.296875 143.253906 229.316406 142.671875 229.683594 141.941406 C 229.683594 140.628906 232.457031 141.503906 233.113281 140.917969 C 233.914062 140.480469 234.132812 139.679688 234.28125 138.800781 C 235.082031 138 236.394531 138.4375 235.886719 139.605469 C 236.25 139.898438 236.832031 139.898438 236.832031 140.480469 C 236.542969 140.992188 237.492188 141.285156 237.050781 141.796875 C 222.96875 174.714844 235.007812 152.964844 220.636719 149.53125 Z M 232.238281 142.453125 C 229.902344 140.773438 230.777344 144.277344 232.675781 143.109375 C 232.894531 142.597656 232.527344 142.597656 232.238281 142.453125 Z M 230.414062 192.160156 C 230.703125 192.234375 230.558594 192.015625 230.414062 191.867188 C 230.414062 192.015625 230.414062 192.085938 230.414062 192.160156 Z M 237.710938 172.453125 C 235.59375 171.648438 236.832031 174.203125 236.25 175.371094 C 236.105469 176.027344 235.007812 176.976562 236.324219 176.976562 C 236.542969 176.175781 237.636719 175.738281 237.34375 174.789062 C 236.613281 173.839844 238.65625 173.328125 237.710938 172.453125 Z M 227.347656 200.335938 C 222.898438 201.503906 226.765625 198.65625 225.011719 199.3125 C 223.40625 200.261719 219.101562 200.628906 217.789062 199.3125 C 216.183594 199.09375 215.894531 204.570312 215.527344 206.03125 C 216.402344 206.613281 218.519531 206.90625 219.03125 205.957031 C 218.957031 204.789062 220.34375 207.269531 223.1875 203.984375 C 222.242188 204.789062 222.53125 205.882812 223.699219 205.007812 C 222.679688 202.890625 226.328125 204.058594 227.421875 203.109375 C 228.515625 202.308594 229.757812 199.824219 227.347656 200.335938 Z M 232.164062 183.035156 C 231.140625 185.371094 233.257812 184.714844 232.746094 186.03125 C 233.113281 186.832031 233.695312 188.292969 232.382812 188.292969 C 232.820312 189.898438 231.507812 189.679688 230.414062 190.261719 C 227.566406 187.125 221.074219 188.949219 218.664062 193.328125 C 221.65625 189.3125 220.636719 175.957031 226.546875 179.972656 C 230.046875 180.773438 232.746094 178.144531 235.15625 180.917969 C 236.613281 182.816406 231.726562 181.066406 232.164062 183.035156 Z M 228.589844 184.277344 C 228.296875 184.277344 228.296875 184.570312 228.515625 184.714844 C 228.515625 184.570312 228.515625 184.421875 228.589844 184.277344 Z M 229.757812 183.839844 C 229.539062 183.765625 229.097656 184.277344 229.464844 184.277344 C 229.539062 184.058594 229.609375 183.914062 229.757812 183.839844 Z M 229.828125 184.863281 C 229.683594 185.152344 229.539062 185.226562 229.902344 185.082031 C 230.265625 185.007812 230.046875 184.863281 229.828125 184.863281 Z M 231.363281 185.445312 C 230.851562 185.957031 230.703125 186.832031 231.507812 187.125 C 231.289062 186.613281 231.800781 185.882812 231.363281 185.445312 Z M 238.148438 159.167969 C 238 159.53125 238.21875 159.605469 238.4375 159.75 C 238.511719 160.410156 237.78125 160.261719 237.5625 160.628906 C 236.832031 162.160156 238.804688 161.066406 237.492188 164.132812 C 237.34375 164.859375 236.832031 164.640625 236.324219 164.789062 C 237.199219 165.882812 234.570312 166.027344 236.03125 166.757812 C 239.535156 165.808594 237.199219 170.335938 234.9375 169.167969 C 238.4375 173.402344 231.289062 165.371094 225.453125 173.183594 C 230.121094 167.34375 230.121094 149.898438 239.023438 155.589844 C 239.167969 156.101562 238.585938 156.175781 238.21875 156.246094 C 237.492188 156.46875 238.730469 157.269531 239.023438 156.757812 C 241.066406 156.832031 238.148438 158.4375 238.148438 159.167969 Z M 233.769531 168.144531 C 233.695312 168.21875 234.0625 168.144531 234.207031 168.292969 C 235.007812 169.972656 234.5 168 233.769531 168.144531 Z M 239.460938 153.765625 C 238.949219 154.277344 236.542969 154.496094 237.929688 155.007812 C 238.804688 155.300781 240.261719 154.789062 239.460938 153.765625 Z M 242.742188 124.859375 C 240.699219 124.496094 241.796875 127.125 242.960938 127.5625 C 243.839844 126.027344 244.566406 125.589844 242.742188 124.859375 Z M 240.191406 128.949219 C 239.898438 129.167969 239.386719 129.605469 239.605469 129.96875 C 239.972656 130.847656 238.730469 131.722656 240.117188 132.304688 C 239.679688 133.109375 239.09375 133.765625 239.316406 134.714844 C 239.023438 135.519531 238.730469 134.496094 238.949219 135.957031 C 239.824219 133.472656 242.960938 129.53125 242.085938 127.34375 C 240.773438 125.808594 241.503906 128.800781 240.191406 128.949219 Z M 214.214844 205.882812 C 213.191406 205.445312 209.910156 208.65625 211.148438 205.082031 C 211.660156 205.082031 211.078125 204.570312 211.003906 204.277344 C 211.734375 203.546875 212.027344 202.453125 212.902344 201.796875 C 212.316406 201.503906 211.808594 202.597656 211.222656 202.160156 C 210.128906 201.066406 211.078125 201.578125 210.785156 200.410156 C 210.492188 199.605469 208.816406 198.804688 208.085938 198.804688 C 207.574219 198.367188 207.941406 197.488281 207.210938 197.125 C 206.042969 196.25 208.085938 196.25 208.597656 196.539062 C 209.617188 197.488281 210.566406 198.4375 211.515625 199.460938 C 211.003906 198.292969 213.777344 198.730469 211.515625 197.855469 C 211.515625 197.34375 210.640625 197.636719 210.421875 197.925781 C 208.742188 197.855469 208.960938 195.152344 208.160156 194.863281 C 207.5 195.226562 206.699219 194.421875 206.84375 193.839844 C 207.0625 193.402344 208.230469 194.058594 207.5 193.253906 C 207.210938 192.308594 210.128906 191.285156 210.203125 192.453125 C 210.347656 192.378906 210.273438 192.234375 210.273438 192.160156 C 209.617188 190.992188 207.792969 191.359375 208.449219 188.804688 C 208.742188 188.4375 208.597656 188.363281 208.230469 188.363281 C 207.0625 189.386719 205.824219 188.21875 207.210938 187.195312 C 207.792969 186.03125 209.617188 186.613281 209.835938 185.300781 C 208.667969 185.738281 209.398438 184.203125 209.035156 184.132812 C 207.941406 183.695312 208.597656 182.816406 209.253906 182.597656 C 208.449219 182.527344 209.105469 181.867188 209.324219 182.597656 C 209.835938 182.453125 210.054688 181.941406 210.492188 181.722656 C 210.859375 183.035156 214.433594 186.46875 211.078125 185.519531 C 212.390625 187.707031 213.851562 185.519531 215.234375 187.417969 C 215.964844 188.585938 218.519531 189.023438 217.9375 190.773438 C 217.058594 193.402344 216.476562 196.25 215.820312 198.804688 C 215.015625 200.992188 214.652344 203.402344 214.214844 205.882812 Z M 210.054688 185.226562 C 210.421875 185.082031 210.710938 185.519531 211.078125 185.445312 C 211.367188 185.519531 210.203125 184.789062 210.054688 185.226562 Z M 211.585938 199.535156 C 211.660156 199.605469 211.734375 199.753906 211.878906 199.824219 C 211.953125 199.605469 211.660156 199.679688 211.585938 199.535156 Z M 205.019531 173.546875 C 205.238281 164.789062 194.515625 160.480469 199.839844 172.160156 C 199.183594 172.746094 198.671875 172.160156 198.601562 171.503906 C 199.839844 167.34375 197.214844 171.359375 196.191406 168.949219 C 194.515625 167.5625 197.796875 168.65625 197.652344 167.5625 C 197.945312 166.832031 197.433594 166.976562 196.996094 167.050781 C 193.417969 167.78125 194.222656 164.859375 197.503906 165.007812 C 199.988281 163.183594 194.148438 160.410156 193.566406 159.09375 C 194.148438 157.414062 194.878906 155.882812 195.390625 153.914062 C 196.558594 153.328125 199.621094 155.589844 197.433594 155.882812 C 198.820312 156.246094 200.570312 157.925781 200.425781 155.738281 C 199.546875 153.402344 200.644531 151.941406 202.6875 153.472656 C 204.074219 158.800781 206.992188 158.363281 209.253906 159.605469 C 207.792969 164.132812 206.625 168.875 205.019531 173.546875 Z M 200.132812 157.488281 C 201.226562 162.378906 197.433594 157.269531 195.023438 158.074219 C 195.460938 159.3125 196.484375 158.21875 197.140625 158.949219 C 197.503906 159.386719 197.066406 159.53125 197.503906 159.679688 C 198.527344 159.460938 200.496094 160.554688 200.933594 159.3125 C 201.808594 158.144531 199.765625 158.875 200.132812 157.488281 Z M 237.417969 124.203125 C 235.957031 122.742188 235.59375 123.765625 234.644531 125.152344 C 235.449219 126.246094 237.125 125.078125 237.417969 124.203125 Z M 214.945312 148.730469 C 214.871094 148.875 215.164062 148.800781 214.945312 148.730469 C 214.945312 148.800781 214.945312 148.800781 214.945312 148.730469 Z M 234.9375 126.394531 C 235.8125 126.027344 235.082031 125.445312 234.5 125.371094 C 232.238281 128.21875 227.273438 127.851562 224.210938 126.394531 C 219.832031 132.160156 218.8125 142.085938 215.015625 148.730469 C 216.476562 145.371094 222.96875 146.613281 221.292969 142.523438 C 221.21875 142.085938 220.707031 140.773438 221.585938 141.648438 C 222.824219 147.488281 236.46875 133.402344 234.207031 131.066406 C 233.183594 130.554688 234.28125 130.1875 234.351562 129.75 C 234.5 128.730469 233.40625 127.414062 232.820312 128.875 C 233.332031 129.898438 231.507812 128.65625 232.894531 128.4375 C 234.207031 127.5625 235.449219 129.53125 235.957031 127.195312 C 236.03125 126.101562 234.644531 126.613281 234.0625 126.613281 C 233.476562 126.394531 234.71875 126.613281 234.9375 126.394531 Z M 231.945312 97.050781 C 232.019531 100.1875 232.089844 103.839844 230.921875 106.539062 C 233.40625 99.019531 239.972656 92.453125 236.832031 84.203125 C 235.007812 83.984375 235.59375 86.175781 235.957031 87.195312 C 235.59375 86.101562 234.71875 86.027344 234.644531 87.34375 C 234.570312 90.042969 230.996094 89.019531 230.851562 91.429688 C 228.878906 93.839844 232.238281 94.128906 231.945312 97.050781 Z M 213.703125 152.234375 C 213.121094 153.328125 212.390625 156.027344 213.339844 153.546875 C 214.289062 153.109375 215.453125 153.839844 216.332031 153.253906 C 217.570312 151.648438 213.996094 150.410156 213.703125 152.234375 Z M 200.058594 194.132812 C 200.277344 194.058594 200.496094 193.914062 200.714844 193.765625 C 200.351562 193.765625 200.058594 193.695312 200.058594 194.132812 Z M 202.613281 190.117188 C 203.414062 188.21875 205.167969 179.167969 202.757812 185.664062 C 202.320312 188.144531 200.570312 190.773438 200.496094 192.964844 C 201.007812 193.035156 200.496094 193.476562 200.789062 193.621094 C 202.832031 192.964844 202.320312 191.210938 202.613281 190.117188 Z M 209.472656 164.203125 C 218.445312 160.480469 214.945312 167.5625 216.257812 156.027344 C 213.851562 148.875 210.929688 159.167969 209.472656 164.203125 Z M 254.492188 73.765625 C 253.617188 74.496094 251.207031 74.785156 253.25 75.664062 C 253.46875 77.78125 250.84375 75.296875 249.675781 76.246094 C 245.515625 76.976562 240.117188 82.960938 247.558594 83.398438 C 248.289062 83.546875 249.820312 82.597656 249.601562 83.910156 C 250.113281 84.714844 248.363281 89.824219 247.558594 87.269531 C 248.214844 86.539062 247.488281 85.078125 247.488281 86.539062 C 247.558594 87.34375 246.828125 88.070312 247.996094 88.289062 C 250.40625 90.84375 245.003906 88.875 246.027344 90.480469 C 246.320312 92.523438 245.515625 91.503906 244.640625 92.230469 C 244.277344 93.179688 242.671875 93.765625 241.722656 93.621094 C 245.003906 93.984375 237.5625 94.566406 236.46875 97.121094 C 237.273438 94.566406 242.234375 87.925781 241.285156 84.347656 C 242.160156 79.09375 235.8125 80.84375 238.4375 79.457031 C 239.242188 79.09375 237.34375 78.4375 238.21875 77.78125 C 238.730469 77.269531 238 76.171875 239.167969 76.027344 C 239.023438 75.371094 237.199219 75.515625 238.367188 74.421875 C 238.511719 74.203125 238.804688 73.910156 239.09375 74.058594 C 238.585938 73.328125 239.605469 73.179688 240.042969 72.890625 C 240.847656 70.699219 242.085938 73.179688 241.503906 74.496094 C 241.796875 74.640625 241.867188 74.058594 242.085938 73.984375 C 240.554688 73.546875 243.472656 71.285156 243.183594 73.546875 C 245.734375 72.671875 246.171875 69.457031 244.640625 67.488281 C 242.523438 65.882812 247.414062 63.328125 248.289062 64.714844 C 248.363281 64.277344 249.675781 62.011719 250.257812 63.035156 C 250.40625 63.398438 249.820312 64.058594 250.625 64.058594 C 251.5 63.984375 250.914062 62.160156 252.15625 62.378906 C 254.492188 63.910156 251.792969 67.707031 254.417969 68.875 C 254.78125 69.3125 255.511719 72.671875 254.78125 72.378906 C 254.199219 72.085938 254.199219 72.816406 254.78125 72.742188 C 255.730469 72.816406 254.5625 73.253906 254.492188 73.765625 Z M 249.3125 75.734375 C 249.019531 75.808594 249.164062 75.078125 248.726562 75.371094 C 248.363281 75.953125 248.871094 75.953125 249.164062 76.101562 C 249.53125 75.882812 249.820312 75.734375 249.3125 75.734375 Z M 250.625 67.121094 C 250.625 66.246094 248.507812 65.734375 248.433594 64.785156 C 248.363281 66.101562 245.953125 65.003906 246.246094 67.925781 C 245.808594 72.011719 248.945312 76.757812 249.457031 70.042969 C 250.113281 69.167969 248.945312 65.589844 250.625 67.121094 Z M 250.332031 74.496094 C 250.039062 75.515625 249.601562 75.808594 250.914062 75.808594 C 251.792969 75.664062 250.1875 74.933594 250.332031 74.496094 Z M 251.574219 69.605469 C 251.425781 69.894531 251.28125 70.1875 250.988281 70.335938 C 250.40625 70.335938 250.40625 69.019531 250.476562 70.1875 C 250.695312 71.0625 251.0625 71.0625 251.574219 70.335938 C 251.9375 70.261719 252.15625 69.238281 251.574219 69.605469 Z M 252.375 73.179688 C 252.230469 73.398438 251.9375 73.546875 251.71875 73.617188 C 252.082031 73.691406 252.300781 73.546875 252.375 73.179688 Z M 203.050781 143.035156 C 202.539062 141.136719 204.511719 141.796875 205.386719 140.992188 C 205.53125 140.480469 204.730469 140.992188 204.582031 141.066406 C 202.6875 141.722656 203.34375 139.019531 204.949219 139.386719 C 206.40625 139.3125 201.300781 136.464844 204.875 135.371094 C 205.167969 134.933594 205.457031 134.421875 205.675781 134.058594 C 205.019531 134.640625 203.707031 132.671875 204.875 133.109375 C 206.042969 133.765625 205.898438 128.582031 207.136719 132.671875 C 205.96875 130.335938 209.035156 127.488281 209.984375 130.40625 C 210.273438 131.941406 209.035156 130.40625 208.816406 131.210938 C 208.816406 132.015625 207.867188 134.351562 209.179688 133.765625 C 211.808594 133.765625 209.253906 131.210938 210.128906 129.898438 C 211.660156 128.144531 212.097656 135.738281 216.257812 138.074219 C 218.15625 142.597656 212.390625 149.023438 211.515625 153.910156 C 212.464844 148.363281 205.96875 142.015625 203.050781 149.09375 C 202.25 150.117188 203.195312 154.351562 202.175781 152.378906 C 202.175781 150.628906 200.644531 151.648438 199.546875 151.355469 C 198.601562 150.335938 195.972656 152.304688 198.308594 149.242188 C 200.714844 149.167969 197.945312 149.3125 199.109375 147.925781 C 200.132812 146.101562 202.394531 144.640625 203.050781 143.035156 Z M 205.898438 132.015625 C 205.96875 132.085938 205.96875 132.085938 206.042969 132.160156 C 206.042969 132.085938 205.96875 132.085938 205.898438 132.015625 Z M 206.1875 138.800781 C 206.625 138.144531 206.992188 136.613281 206.554688 135.957031 C 206.335938 135.589844 206.40625 136.394531 205.53125 136.539062 C 206.625 136.464844 206.042969 138.144531 206.1875 138.800781 Z M 196.703125 209.605469 C 192.472656 210.335938 193.273438 207.050781 191.375 205.007812 C 191.449219 204.351562 191.886719 200.480469 192.761719 202.160156 C 192.691406 201.941406 192.835938 201.578125 193.128906 201.429688 C 190.5 200.191406 192.179688 195.300781 191.375 192.746094 C 191.449219 191.867188 193.273438 192.085938 192.617188 191.066406 C 192.105469 189.679688 189.917969 190.410156 191.011719 188.65625 C 191.886719 188.074219 192.105469 185.957031 193.128906 188 C 193.347656 186.03125 194.804688 187.269531 194.515625 185.882812 C 194.222656 185.589844 194.515625 185.808594 194.515625 186.03125 C 193.273438 187.5625 187.800781 186.320312 190.574219 184.277344 C 190.355469 183.402344 189.480469 182.597656 191.15625 182.378906 C 192.324219 179.53125 192.179688 179.824219 195.242188 180.117188 C 193.636719 179.3125 192.835938 175.519531 195.535156 175.808594 C 196.191406 176.757812 196.191406 176.757812 197.140625 176.320312 C 196.703125 175.957031 196.046875 176.320312 195.679688 175.882812 C 195.609375 174.570312 198.527344 174.933594 199.039062 172.964844 C 200.644531 170.847656 201.300781 175.957031 202.90625 176.90625 C 204.800781 179.75 201.445312 183.183594 201.519531 186.25 C 200.277344 174.351562 189.917969 180.410156 198.453125 188.511719 C 199.914062 189.242188 200.351562 190.042969 199.546875 191.503906 C 199.402344 192.527344 198.382812 191.578125 198.671875 190.847656 C 198.746094 189.824219 200.207031 190.480469 199.476562 189.898438 C 198.089844 189.3125 198.746094 192.378906 197.945312 191.648438 C 196.265625 191.867188 196.703125 194.714844 198.382812 193.765625 C 198.601562 196.03125 196.410156 200.992188 196.191406 203.765625 C 196.339844 205.519531 194.515625 209.242188 196.703125 209.605469 Z M 193.128906 201.359375 C 193.199219 201.285156 193.273438 201.210938 193.347656 201.140625 C 193.417969 200.992188 193.199219 201.359375 193.128906 201.359375 Z M 195.679688 198.292969 C 196.777344 196.976562 194.878906 196.46875 194.222656 195.519531 C 194.585938 196.320312 194.148438 197.5625 193.054688 196.613281 C 192.980469 198.074219 194.660156 199.679688 193.417969 201.066406 C 193.785156 200.773438 193.855469 201.503906 194.148438 201.503906 C 194.441406 200.628906 195.535156 201.359375 195.898438 200.554688 C 197.066406 199.753906 195.972656 199.242188 195.679688 198.292969 Z M 207.210938 205.007812 C 205.675781 203.621094 204.800781 200.699219 202.832031 202.308594 C 202.25 201.359375 203.34375 202.015625 203.414062 201.722656 C 205.238281 200.554688 202.613281 199.824219 201.519531 199.535156 C 196.484375 193.765625 198.015625 206.613281 196.847656 209.535156 C 197.578125 210.410156 198.601562 209.386719 198.308594 208.367188 C 201.300781 209.824219 199.476562 210.335938 204.144531 209.679688 C 205.019531 209.386719 203.855469 208.292969 205.167969 208.4375 C 206.480469 208.074219 207.429688 209.679688 208.523438 209.023438 C 211.367188 207.855469 208.449219 206.175781 207.210938 205.007812 Z M 239.824219 102.890625 C 238.949219 102.378906 236.613281 102.671875 235.449219 101.574219 C 234.71875 101.066406 234.570312 101.648438 234.425781 102.085938 C 231.140625 108.65625 228.296875 115.445312 225.230469 122.085938 C 237.78125 112.742188 234.5 126.613281 237.417969 117.414062 C 236.761719 116.683594 235.519531 117.707031 234.789062 117.851562 C 234.351562 117.632812 235.300781 119.09375 234.351562 118.21875 C 233.988281 117.707031 233.113281 119.167969 233.183594 118.21875 C 233.257812 116.027344 229.539062 117.632812 233.914062 115.226562 C 234.644531 114.570312 234.789062 115.882812 235.375 116.175781 C 236.25 116.539062 237.125 115.445312 237.855469 116.246094 C 238.367188 116.757812 238.875 116.246094 238.730469 115.664062 C 236.105469 111.429688 240.335938 113.402344 238.804688 109.605469 C 236.105469 104.566406 239.972656 108.292969 239.386719 105.371094 C 240.773438 104.277344 238.730469 104.421875 239.824219 102.890625 Z M 213.628906 169.386719 C 204.730469 167.78125 207.867188 172.378906 204.730469 179.605469 C 207.355469 177.636719 210.566406 172.234375 213.628906 169.386719 Z M 215.089844 120.992188 C 220.417969 120.992188 221.144531 128.730469 219.90625 132.160156 C 220.78125 124.351562 231.140625 113.984375 226.398438 107.050781 C 225.671875 105.296875 225.890625 106.175781 224.941406 106.757812 C 224.574219 107.050781 223.992188 106.464844 223.628906 107.050781 C 224.285156 108.875 221.730469 109.679688 221 111.503906 C 219.832031 112.597656 221.511719 112.890625 222.242188 113.035156 C 223.917969 113.546875 222.53125 116.832031 221.074219 115.882812 C 219.832031 115.007812 218.445312 117.195312 220.636719 116.976562 C 220.925781 116.976562 220.925781 117.269531 220.707031 117.414062 C 218.007812 118.4375 219.761719 120.554688 218.375 119.605469 C 217.570312 119.3125 215.015625 118.363281 215.089844 119.898438 C 215.015625 120.1875 213.777344 121.285156 215.089844 120.992188 Z M 243.402344 102.085938 C 243.621094 102.011719 243.691406 101.867188 243.691406 101.648438 C 243.402344 101.941406 242.523438 102.234375 243.402344 102.085938 Z M 180.214844 113.472656 C 179.410156 114.570312 179.117188 115.882812 178.242188 116.902344 C 178.023438 117.925781 177.441406 116.976562 177.074219 117.125 C 176.566406 117.34375 176.125 116.757812 175.6875 117.195312 C 175.398438 119.238281 177.511719 118.949219 178.242188 120.335938 C 179.484375 116.394531 184.371094 118 186.707031 120.773438 C 186.414062 116.101562 187.289062 110.625 185.832031 106.539062 C 182.621094 107.050781 179.628906 97.414062 178.097656 102.597656 C 178.828125 103.253906 181.015625 104.128906 180.941406 104.640625 C 178.535156 104.859375 180.433594 106.027344 180.722656 107.195312 C 180.214844 109.238281 178.828125 107.269531 177.949219 106.683594 C 175.398438 102.890625 173.9375 108.730469 180.285156 111.429688 C 180.140625 111.867188 180.433594 112.304688 180.722656 112.523438 C 179.992188 112.597656 180.214844 111.648438 179.554688 111.429688 C 179.046875 112.015625 177.511719 112.671875 179.265625 113.109375 C 179.703125 112.671875 179.847656 113.035156 180.140625 113.253906 C 181.527344 112.085938 182.402344 114.347656 184.007812 114.933594 C 183.933594 115.664062 184.445312 116.246094 184.371094 116.832031 C 180.941406 117.5625 182.476562 114.640625 180.214844 113.472656 Z M 188.09375 88.070312 C 188.3125 89.167969 187.945312 89.53125 188.675781 88.363281 C 194.367188 83.839844 193.566406 94.058594 189.332031 95.734375 C 187.363281 97.414062 189.480469 107.050781 188.675781 109.75 C 189.1875 107.195312 192.035156 104.933594 194.515625 106.027344 C 196.921875 106.683594 194.878906 111.136719 196.921875 110.699219 C 197.722656 108.730469 196.847656 106.175781 197.578125 104.496094 C 197.722656 104.421875 197.652344 104.640625 197.722656 104.714844 C 197.871094 104.933594 198.164062 104.640625 197.945312 104.496094 C 198.746094 101.574219 197.359375 98.289062 196.339844 95.296875 C 196.339844 88 194.878906 91.648438 192.617188 86.613281 C 191.59375 85.007812 193.566406 83.253906 192.542969 82.011719 C 191.667969 80.992188 192.910156 76.539062 191.886719 76.101562 C 191.304688 75.953125 191.230469 75.589844 191.375 75.078125 C 191.230469 71.136719 190.71875 77.78125 188.457031 78.144531 C 187 80.84375 188.019531 84.933594 188.09375 88.070312 Z M 198.601562 117.78125 C 197.652344 117.125 196.558594 117.851562 195.460938 117.707031 C 194.953125 117.78125 193.785156 117.195312 194.222656 117.925781 C 193.566406 119.3125 196.265625 119.238281 196.484375 118.582031 C 196.777344 117.34375 199.914062 119.824219 199.621094 120.773438 C 199.765625 119.167969 199.109375 118.582031 201.082031 118.730469 C 202.6875 118.582031 201.519531 120.554688 201.300781 121.355469 C 201.152344 121.792969 200.570312 121.210938 200.425781 121.574219 C 200.207031 122.160156 201.882812 122.160156 201.082031 122.671875 C 199.621094 123.402344 201.152344 123.691406 201.371094 124.570312 C 202.6875 125.445312 202.976562 127.632812 200.863281 126.683594 C 198.164062 126.394531 199.328125 126.394531 199.402344 124.496094 C 199.039062 123.984375 198.890625 123.472656 198.164062 123.984375 C 199.109375 123.546875 199.257812 124.570312 198.890625 125.226562 C 197.652344 125.738281 198.671875 126.320312 198.964844 126.976562 C 199.402344 127.269531 199.988281 126.90625 200.425781 127.269531 C 200.570312 128.4375 202.976562 129.75 201.371094 130.628906 C 200.207031 130.628906 200.351562 129.167969 199.765625 129.460938 C 201.664062 132.597656 193.785156 126.539062 190.574219 131.867188 C 187.21875 138.730469 189.332031 121.648438 188.894531 119.605469 C 189.332031 116.90625 194.585938 117.925781 195.609375 110.847656 C 196.996094 111.503906 197.066406 113.839844 195.460938 113.765625 C 195.898438 114.347656 196.921875 114.570312 197.214844 115.445312 C 196.777344 116.101562 196.046875 115.664062 195.679688 115.371094 C 195.753906 115.808594 197.066406 115.882812 196.921875 116.464844 C 197.945312 115.664062 200.570312 117.707031 198.601562 117.78125 Z M 199.695312 120.847656 C 199.765625 120.917969 199.765625 120.992188 199.695312 121.136719 C 199.839844 120.992188 199.695312 120.917969 199.695312 120.847656 Z M 197.066406 116.613281 C 197.140625 116.683594 197.214844 116.613281 197.066406 116.613281 Z M 201.152344 139.679688 C 201.226562 135.664062 197.214844 144.277344 201.007812 140.992188 C 201.738281 139.96875 200.644531 139.898438 201.152344 139.679688 Z M 190.9375 161.648438 C 189.042969 157.269531 188.457031 165.882812 189.699219 165.445312 C 190.355469 165.152344 189.480469 164.203125 190.210938 164.203125 C 191.15625 164.132812 189.988281 162.453125 190.9375 161.648438 Z M 187.65625 155.957031 C 188.09375 158.292969 188.605469 164.421875 187.4375 166.175781 C 185.683594 165.882812 187.144531 164.570312 186.851562 163.546875 C 187.21875 162.671875 187.363281 162.964844 187.875 163.109375 C 187.4375 162.085938 186.269531 162.964844 186.269531 161.503906 C 186.195312 161.066406 185.902344 160.847656 185.464844 160.773438 C 184.445312 159.96875 186.488281 159.824219 187 160.480469 C 186.125 159.605469 184.371094 159.386719 184.445312 157.925781 C 184.882812 156.246094 182.257812 153.984375 183.789062 153.183594 C 183.933594 152.671875 182.765625 152.378906 182.621094 151.941406 C 182.035156 150.628906 183.570312 152.085938 183.570312 151.429688 C 181.453125 143.910156 185.175781 153.328125 185.539062 150.410156 C 185.246094 149.824219 186.34375 149.3125 185.976562 148.875 C 185.464844 148.800781 184.738281 149.167969 184.664062 148.363281 C 182.914062 148.582031 182.765625 146.246094 181.089844 146.246094 C 179.484375 145.882812 180.652344 145.371094 180.285156 144.132812 C 180.433594 143.691406 180.503906 143.328125 179.921875 143.253906 C 178.609375 142.964844 178.828125 142.234375 179.410156 141.355469 C 180.722656 140.992188 181.160156 142.671875 182.328125 142.523438 C 182.035156 142.304688 182.257812 141.941406 182.476562 141.796875 C 182.914062 141.066406 180.941406 140.699219 180.578125 139.824219 C 180.578125 141.136719 180.578125 141.136719 179.773438 140.917969 C 179.335938 140.117188 178.535156 141.136719 178.023438 140.410156 C 177.367188 139.460938 179.117188 139.019531 178.023438 138.21875 C 177.367188 137.488281 176.636719 136.6875 177.585938 135.589844 C 177.222656 134.277344 175.179688 131.722656 177.003906 130.847656 C 176.929688 130.042969 176.785156 129.898438 177.878906 129.605469 C 176.273438 130.042969 178.242188 127.851562 177.074219 127.5625 C 175.398438 128.292969 175.761719 126.976562 176.273438 125.882812 C 176.710938 125.152344 176.929688 126.175781 177.441406 126.027344 C 177.003906 125.371094 176.347656 125.589844 175.6875 125.445312 C 174.300781 125.296875 173.9375 123.472656 175.46875 123.183594 C 177.367188 122.671875 175.179688 121.574219 175.398438 120.554688 C 178.972656 117.050781 180.433594 130.042969 185.246094 130.554688 C 189.699219 133.472656 186.269531 150.117188 187.65625 155.957031 Z M 177.585938 126.175781 C 177.660156 126.175781 177.660156 126.246094 177.730469 126.246094 C 177.730469 126.175781 177.660156 126.246094 177.585938 126.175781 Z M 178.097656 129.75 C 178.097656 129.679688 178.023438 129.679688 177.949219 129.75 C 178.023438 129.75 178.097656 129.75 178.097656 129.75 Z M 182.621094 142.671875 C 182.257812 142.523438 183.132812 143.183594 183.277344 143.183594 C 183.496094 142.890625 182.914062 142.597656 182.621094 142.671875 Z M 185.246094 146.246094 C 184.738281 146.101562 184.589844 146.394531 185.027344 146.757812 C 185.464844 146.757812 185.101562 146.6875 185.246094 146.246094 Z M 186.414062 146.832031 C 186.125 146.90625 185.394531 146.832031 185.464844 146.90625 C 185.832031 147.632812 186.125 147.125 186.414062 146.832031 Z M 186.5625 146.027344 Z M 191.59375 156.46875 C 192.542969 155.738281 190.574219 155.152344 190.9375 154.132812 C 190.867188 153.765625 191.15625 153.253906 190.648438 153.035156 C 190.71875 152.746094 191.085938 152.378906 190.648438 152.304688 C 189.769531 152.746094 189.769531 152.304688 189.042969 151.941406 C 189.113281 154.570312 189.042969 157.195312 189.042969 159.824219 C 192.910156 162.304688 190.355469 158.292969 191.59375 156.46875 Z M 192.398438 152.816406 C 192.691406 152.378906 192.542969 151.867188 192.761719 151.355469 C 194.148438 152.378906 196.046875 151.355469 194.148438 149.96875 C 195.460938 150.847656 197.503906 149.242188 195.898438 148.292969 C 197.503906 148.4375 197.945312 146.90625 197.214844 145.738281 C 195.460938 148.144531 191.960938 149.898438 189.332031 148 C 189.699219 148.949219 188.3125 152.746094 190.355469 151.210938 C 191.085938 151.503906 191.15625 153.621094 192.398438 152.816406 Z M 174.742188 96.246094 C 180.578125 97.707031 172.625 99.96875 176.125 100.554688 C 177.585938 99.09375 177.074219 100.992188 178.242188 101.066406 C 179.191406 99.457031 178.167969 100.625 179.703125 100.992188 C 174.8125 85.152344 190.792969 110.480469 185.320312 85.515625 C 183.203125 84.277344 183.132812 80.992188 181.597656 79.96875 C 179.484375 81.503906 181.089844 81.285156 180.359375 82.816406 C 180.503906 83.253906 180.871094 83.328125 181.234375 83.328125 C 182.109375 83.691406 182.035156 84.933594 183.351562 85.152344 C 181.746094 86.027344 176.054688 85.007812 176.347656 87.488281 C 175.25 89.96875 178.460938 89.238281 179.773438 90.261719 C 178.460938 89.96875 178.242188 91.648438 179.554688 91.722656 C 179.847656 91.792969 180.285156 91.792969 180.359375 92.160156 C 180.503906 93.179688 181.453125 93.253906 181.964844 93.765625 C 179.992188 97.195312 179.046875 90.480469 177.511719 93.546875 C 177.292969 95.957031 175.6875 93.109375 174.667969 93.984375 C 173.425781 94.203125 173.355469 96.175781 174.742188 96.246094 Z M 188.3125 72.378906 C 188.3125 71.648438 188.675781 71.429688 189.113281 71.429688 C 188.605469 71.0625 188.894531 70.699219 188.96875 70.1875 C 189.40625 70.261719 189.332031 70.917969 189.84375 71.136719 C 191.742188 67.78125 187.800781 68.363281 188.3125 72.378906 Z M 182.984375 73.765625 C 184.007812 73.546875 183.421875 71.867188 184.007812 71.136719 C 184.808594 71.285156 184.589844 72.011719 184.300781 72.449219 C 184.957031 72.304688 184.882812 73.472656 184.519531 73.691406 C 185.175781 73.546875 185.613281 72.816406 184.738281 72.449219 C 184.664062 71.792969 184.808594 71.0625 184.007812 70.625 C 184.300781 70.117188 183.933594 68.4375 184.589844 68.65625 C 188.824219 66.320312 186.125 72.011719 185.832031 76.320312 C 185.832031 78.730469 185.757812 76.976562 184.300781 76.464844 C 185.175781 75.808594 183.640625 75.589844 183.132812 75.808594 C 181.816406 76.246094 182.476562 73.328125 182.984375 73.765625 Z M 184.007812 72.960938 Z M 184.007812 72.960938 " fill-opacity="1" fill-rule="nonzero"/><path fill="#fff6ea" d="M 237.929688 248.148438 C 237.199219 258.949219 237.273438 269.898438 236.03125 280.628906 C 233.695312 293.476562 222.898438 304.5 209.324219 304.207031 C 188.09375 303.183594 156.71875 311.066406 150.003906 283.402344 C 148.109375 278 148.839844 272.527344 148.253906 267.050781 C 147.304688 260.191406 147.671875 253.183594 147.234375 246.320312 C 146.066406 232.890625 145.554688 219.386719 145.191406 205.882812 C 145.117188 205.082031 145.410156 204.789062 146.210938 204.789062 C 160.949219 204.496094 175.6875 204.570312 190.5 204.496094 C 206.699219 204.351562 222.824219 204.714844 239.023438 204.789062 C 241.359375 203.914062 239.167969 214.933594 239.460938 216.757812 C 238.949219 227.199219 238.4375 237.636719 237.929688 248.148438 Z M 237.929688 248.148438 " fill-opacity="1" fill-rule="nonzero"/></svg>