<svg xmlns="http://www.w3.org/2000/svg" xmlns:xlink="http://www.w3.org/1999/xlink" width="500" zoomAndPan="magnify" viewBox="0 0 375 374.999991" height="500" preserveAspectRatio="xMidYMid meet" version="1.0"><path fill="#8c756a" d="M 219.886719 191.492188 C 219.28125 194.464844 228.484375 190.71875 227.878906 193.75 C 227.273438 195.785156 229.3125 204.042969 226.558594 203.601562 C 225.070312 203.878906 217.078125 202.886719 218.839844 204.207031 C 247.332031 220.230469 246.5625 259.039062 219.722656 276.273438 C 185.445312 300 127.6875 272.75 140.914062 228.320312 C 143.890625 220.394531 149.183594 213.238281 155.1875 207.402344 C 155.796875 206.464844 162.1875 203.4375 159.761719 203.546875 C 147.859375 203.878906 151.773438 204.207031 151.164062 193.582031 C 151.109375 191.382812 156.566406 193.085938 158.21875 192.59375 C 162.132812 191.875 166.429688 192.371094 170.507812 192.261719 C 186.820312 191.546875 203.960938 193.695312 219.886719 191.492188 Z M 219.886719 191.492188 " fill-opacity="1" fill-rule="nonzero"/><path fill="#6e7b1f" d="M 184.453125 137.871094 C 180.980469 145.632812 175.140625 154.550781 178.28125 163.414062 C 179.382812 166.113281 179.546875 169.03125 179.824219 171.890625 C 180.152344 177.066406 178.003906 182.296875 178.5 187.472656 C 178.335938 188.574219 179.65625 190.5 179.21875 191.050781 C 173.816406 185.765625 174.257812 176.296875 173.871094 169.140625 C 173.980469 163.964844 170.949219 159.671875 168.691406 155.265625 C 165.660156 146.019531 166.046875 140.953125 157.0625 135.503906 C 159.433594 126.914062 148.574219 119.648438 151.386719 110.785156 C 151.882812 108.25 153.535156 105.941406 153.699219 103.351562 C 153.976562 101.480469 153.589844 99.277344 154.195312 97.570312 C 155.738281 96.359375 155.023438 94.214844 155.132812 92.507812 C 155.078125 91.515625 158.992188 94.765625 159.816406 94.597656 C 165.109375 96.855469 169.242188 101.371094 169.515625 107.316406 C 169.902344 109.902344 173.101562 110.34375 174.148438 112.601562 C 179.65625 121.023438 175.027344 126.472656 178.335938 130.714844 C 180.59375 132.914062 183.128906 135.007812 184.453125 137.871094 Z M 230.691406 119.371094 C 216.03125 118.492188 221.597656 121.519531 211.84375 123.777344 C 203.464844 122.675781 198.726562 130.382812 200.929688 137.925781 C 203.355469 143.375 195.035156 144.75 197.128906 149.980469 C 198.671875 166.664062 191.175781 163.46875 192.609375 172.609375 C 193.929688 176.1875 194.703125 179.488281 193.160156 183.125 C 193.214844 184.886719 190.347656 192.921875 191.835938 192.539062 C 195.695312 192.539062 199.496094 192.59375 203.355469 192.480469 C 203.90625 191.050781 203.023438 189.289062 204.070312 187.859375 C 205.835938 183.949219 208.644531 180.371094 208.316406 175.910156 C 208.371094 173.488281 209.085938 171.453125 210.738281 169.636719 C 211.621094 167.378906 209.03125 163.800781 210.464844 161.046875 C 211.898438 155.871094 217.464844 153.175781 218.234375 147.722656 C 219.28125 144.75 216.636719 142.550781 216.195312 139.90625 C 216.636719 135.28125 219.613281 130.824219 223.03125 127.796875 C 224.132812 126.585938 235.320312 118.601562 230.691406 119.371094 Z M 166.597656 185.433594 C 163.675781 181.363281 164.558594 175.472656 160.3125 172.113281 C 157.835938 170.074219 154.363281 169.304688 152.875 166.167969 C 149.953125 161.324219 146.703125 154.21875 140.417969 153.558594 C 122.5625 156.421875 134.90625 143.484375 125.375 145.082031 C 115.398438 148 118.320312 144.367188 112.753906 142.769531 C 109.28125 142.988281 106.582031 146.128906 103.882812 147.78125 C 104.265625 148.992188 109.503906 145.46875 112.148438 146.457031 C 116.554688 146.570312 120.195312 150.640625 121.679688 154.496094 C 122.066406 156.753906 121.957031 159.890625 124.769531 160.496094 C 128.019531 161.707031 132.152344 160.605469 134.632812 163.46875 C 136.671875 165.945312 138.929688 168.480469 139.152344 171.78125 C 140.472656 179.601562 150.285156 177.289062 154.25 182.40625 C 156.566406 185.378906 157.777344 188.957031 159.15625 192.371094 C 169.1875 192.152344 173.59375 195.894531 166.597656 185.433594 Z M 109.667969 111.664062 C 114.078125 108.800781 118.925781 111.773438 123.777344 111.445312 C 128.902344 111.5 132.648438 115.574219 137.332031 116.894531 C 136.507812 114.746094 133.363281 113.757812 131.601562 112.214844 C 129.34375 110.730469 127.246094 108.855469 124.601562 108.140625 C 120.136719 106.433594 111.265625 108.691406 109.667969 111.664062 Z M 109.667969 111.664062 " fill-opacity="1" fill-rule="nonzero"/><path fill="#bdca3f" d="M 274.832031 153.503906 C 271.363281 154.441406 268.277344 156.257812 264.96875 157.742188 C 260.726562 159.835938 256.152344 156.753906 251.851562 158.40625 C 245.515625 159.503906 241.933594 165.617188 236.035156 167.269531 C 232.121094 167.761719 228.15625 168.917969 225.675781 172.167969 C 222.535156 175.359375 222.039062 179.488281 221.542969 183.730469 C 220.878906 186.316406 220 188.902344 219.832031 191.546875 C 218.621094 194.078125 207.597656 191.875 204.238281 192.59375 C 200.929688 190.777344 205.613281 184.941406 206.71875 182.132812 C 209.03125 178.113281 206.773438 172.386719 210.90625 169.140625 C 212.007812 167.761719 214.652344 168.3125 215.644531 166.609375 C 220.21875 160.828125 224.460938 153.394531 232.179688 151.523438 C 235.816406 150.640625 239.289062 152.570312 242.925781 152.347656 C 249.980469 152.460938 256.648438 145.523438 263.589844 149.980469 C 267.945312 154.496094 276.761719 151.578125 274.832031 153.503906 Z M 213.660156 117.664062 C 210.1875 119.8125 206.164062 122.125 204.183594 125.8125 C 206.054688 125.097656 207.710938 123.886719 209.804688 124.050781 C 213.332031 124.65625 216.03125 123.0625 218.675781 120.96875 C 223.636719 117.554688 230.964844 122.34375 234.769531 117.722656 C 239.121094 112.269531 243.75 103.1875 252.128906 106.214844 C 256.867188 109.1875 257.417969 111.996094 263.976562 112.269531 C 266.953125 112.546875 269.433594 114.804688 271.914062 115.960938 C 272.574219 114.253906 269.707031 113.703125 268.773438 112.765625 C 266.566406 111.058594 265.132812 108.363281 262.433594 107.371094 C 257.417969 106.160156 252.570312 104.671875 247.71875 102.910156 C 240.058594 99.609375 233.171875 104.5625 227.660156 109.40625 C 223.414062 112.820312 218.457031 115.132812 213.660156 117.664062 Z M 148.410156 80.285156 C 149.789062 90.800781 156.953125 93.441406 165.054688 97.957031 C 160.480469 94.652344 163.234375 87.496094 158.21875 84.800781 C 156.675781 83.753906 154.582031 83.421875 153.316406 81.992188 C 152.046875 80.503906 146.757812 75 148.410156 80.285156 Z M 202.695312 126.472656 C 198.394531 134.457031 203.410156 138.640625 200.433594 143.210938 C 199.113281 144.917969 195.914062 146.734375 197.183594 149.210938 C 198.007812 151.964844 196.632812 154.714844 197.292969 157.414062 C 198.285156 163.085938 191.011719 166.828125 192.828125 172.554688 C 195.472656 178.058594 193.492188 182.519531 192.554688 188.078125 C 192.828125 195.125 185.003906 191.988281 180.375 192.648438 C 177.121094 192.097656 172.21875 193.914062 169.792969 191.765625 C 168.140625 187.691406 164.722656 184.390625 164.0625 179.984375 C 163.785156 176.351562 161.25 173.652344 159.046875 171.230469 C 158.9375 166.113281 159.210938 159.339844 155.410156 155.542969 C 153.535156 154.332031 151.164062 153.558594 149.953125 151.523438 C 146.703125 147.117188 148.90625 141.394531 146.535156 136.714844 C 144.222656 132.253906 143.835938 126.914062 140.96875 122.730469 C 138.765625 119.371094 137.113281 115.792969 133.363281 113.867188 C 126.53125 107.589844 117.109375 105.828125 109.390625 111.71875 C 98.425781 120.582031 108.453125 108.691406 111.871094 107.152344 C 126.089844 101.480469 138.875 108.914062 144.664062 122.289062 C 150.007812 138.144531 160.3125 132.804688 165.550781 144.144531 C 166.375 146.238281 167.09375 148.328125 167.421875 150.53125 C 168.746094 157.742188 175.027344 163.195312 174.148438 170.902344 C 174.53125 178.167969 174.699219 186.480469 179.988281 191.988281 C 175.855469 186.757812 179.65625 179.765625 179.492188 173.820312 C 179.601562 170.792969 179.4375 167.652344 178.28125 164.847656 C 174.089844 154 181.808594 143.210938 186.328125 134.402344 C 187.980469 131.152344 186.4375 127.355469 187.152344 123.886719 C 187.207031 122.675781 187.539062 121.519531 188.035156 120.472656 C 189.851562 115.738281 191.285156 113.152344 193.820312 109.683594 C 194.484375 108.363281 196.246094 107.152344 197.074219 105.609375 C 197.183594 105.113281 197.457031 104.671875 197.511719 104.121094 C 197.128906 98.507812 199.222656 95.3125 202.253906 92.507812 C 204.070312 90.746094 205.945312 90.46875 208.480469 89.039062 C 209.582031 88.488281 211.730469 86.011719 212.613281 84.746094 C 215.535156 81.882812 218.015625 81.441406 221.871094 79.183594 C 222.535156 78.359375 223.140625 78.742188 222.203125 79.402344 C 222.367188 80.339844 222.148438 81.164062 221.652344 82.15625 C 219.945312 86.394531 218.015625 89.257812 216.25 93.113281 C 215.976562 93.664062 215.753906 94.269531 215.371094 94.820312 C 213.769531 97.847656 213.605469 101.753906 211.730469 105.332031 C 210.519531 109.023438 209.417969 109.628906 207.710938 112.269531 C 205.558594 116.730469 203.851562 121.519531 202.695312 126.472656 Z M 221.542969 81 C 221.707031 80.78125 221.488281 80.835938 221.488281 81.054688 C 221.488281 81.054688 221.542969 81 221.542969 81 Z M 221.597656 79.238281 C 221.652344 79.183594 221.761719 79.128906 221.816406 79.074219 C 221.761719 79.128906 221.707031 79.183594 221.597656 79.238281 Z M 219.226562 80.503906 C 219.28125 80.503906 219.390625 80.394531 219.449219 80.339844 C 219.390625 80.394531 219.335938 80.449219 219.226562 80.503906 Z M 214.101562 83.3125 C 214.15625 83.3125 214.210938 83.257812 214.265625 83.203125 C 214.210938 83.257812 214.15625 83.257812 214.101562 83.3125 Z M 212.613281 84.632812 C 212.835938 84.414062 213.054688 84.195312 213.273438 83.972656 C 213 84.195312 212.777344 84.359375 212.613281 84.632812 Z M 208.867188 110.453125 C 208.8125 110.507812 208.757812 110.5625 208.757812 110.617188 C 208.8125 110.5625 208.8125 110.507812 208.867188 110.453125 Z M 211.292969 86.339844 C 211.347656 86.285156 211.457031 86.230469 211.511719 86.121094 C 211.457031 86.175781 211.402344 86.230469 211.292969 86.339844 Z M 210.246094 87.605469 C 210.355469 87.496094 210.574219 87.332031 210.683594 87.167969 C 210.519531 87.332031 210.355469 87.441406 210.246094 87.605469 Z M 209.140625 88.433594 C 209.195312 88.433594 209.308594 88.324219 209.363281 88.269531 C 209.308594 88.324219 209.195312 88.378906 209.140625 88.433594 Z M 184.617188 137.871094 Z M 193.105469 110.507812 C 193.160156 110.453125 193.214844 110.398438 193.214844 110.34375 C 193.214844 110.398438 193.160156 110.453125 193.105469 110.507812 Z M 200.324219 94.488281 C 200.269531 94.542969 200.214844 94.652344 200.105469 94.707031 C 200.214844 94.652344 200.269531 94.597656 200.324219 94.488281 Z M 203.136719 91.679688 C 203.191406 91.679688 203.300781 91.570312 203.355469 91.515625 C 203.300781 91.570312 203.191406 91.625 203.136719 91.679688 Z M 195.640625 107.371094 C 195.695312 107.316406 195.804688 107.207031 195.859375 107.152344 C 195.695312 107.207031 195.640625 107.261719 195.640625 107.371094 Z M 195.859375 107.152344 C 195.914062 107.09375 196.027344 106.984375 196.082031 106.929688 C 195.914062 106.984375 195.859375 107.039062 195.859375 107.152344 Z M 201.207031 93.441406 C 201.261719 93.386719 201.371094 93.277344 201.425781 93.222656 C 201.316406 93.222656 201.261719 93.277344 201.207031 93.441406 Z M 201.425781 93.222656 C 201.480469 93.167969 201.59375 93.058594 201.648438 93.003906 C 201.535156 93.003906 201.425781 93.113281 201.425781 93.222656 Z M 201.867188 92.78125 C 201.921875 92.726562 202.03125 92.617188 202.085938 92.5625 C 201.976562 92.5625 201.867188 92.671875 201.867188 92.78125 Z M 202.085938 92.5625 C 202.144531 92.507812 202.253906 92.398438 202.308594 92.339844 C 202.144531 92.398438 202.085938 92.453125 202.085938 92.5625 Z M 202.914062 126.859375 C 203.023438 126.859375 203.078125 126.804688 203.078125 126.695312 C 202.96875 126.695312 202.914062 126.75 202.914062 126.859375 Z M 202.914062 126.859375 " fill-opacity="1" fill-rule="nonzero"/><path fill="#546c21" d="M 201.371094 108.800781 C 192.445312 122.894531 194.425781 140.015625 192.609375 155.816406 C 190.40625 167.875 187.261719 179.875 189.136719 192.207031 C 188.804688 193.03125 187.429688 192.648438 187.8125 191.546875 C 186.65625 176.460938 191.339844 162.039062 192.332031 147.0625 C 193.050781 102.03125 204.566406 112.378906 221.542969 80.503906 C 220 85.84375 215.480469 92.011719 212.007812 96.964844 C 208.644531 101.203125 204.183594 104.289062 201.371094 108.800781 Z M 217.351562 127.191406 C 217.847656 126.035156 219.722656 123.941406 219.007812 123.0625 C 215.203125 129.941406 209.363281 135.667969 207.378906 143.429688 C 205.726562 149.265625 205.394531 155.433594 203.410156 161.210938 C 200.269531 168.863281 201.535156 177.175781 200.105469 185.105469 C 199.882812 186.371094 197.183594 193.472656 199.441406 192.261719 C 199.71875 188.574219 201.648438 185.269531 201.8125 181.636719 C 202.085938 178.222656 201.867188 174.753906 202.308594 171.34375 C 206.332031 155.980469 207.101562 139.960938 217.351562 127.191406 Z M 160.148438 183.179688 C 157.449219 172.609375 147.03125 172.773438 141.90625 165.5625 C 139.152344 159.503906 133.199219 155.320312 126.75 154.164062 C 124.328125 153.726562 123.941406 151.082031 122.289062 149.652344 C 120.136719 147.835938 117.4375 146.953125 115.066406 145.578125 C 114.460938 145.027344 108.457031 145.082031 110.496094 145.6875 C 115.011719 145.46875 120.910156 148.660156 123.335938 152.460938 C 128.957031 158.351562 135.128906 153.726562 141.355469 166.609375 C 146.480469 173.597656 156.84375 174.203125 159.210938 184.335938 C 160.371094 186.757812 161.914062 192.539062 164.832031 192.539062 C 163.125 189.566406 161.085938 186.648438 160.148438 183.179688 Z M 267.285156 152.515625 C 265.410156 152.292969 263.148438 153.503906 261.054688 153.339844 C 256.039062 153.613281 251.082031 151.964844 246.066406 152.789062 C 242.757812 153.285156 240.003906 155.320312 237.25 157.082031 C 233.171875 160.386719 227.328125 160.332031 223.636719 164.128906 C 217.628906 170.625 213.21875 178.882812 210.355469 187.308594 C 210.078125 188.351562 208.425781 193.914062 210.519531 192.207031 C 210.90625 189.785156 211.675781 187.472656 212.558594 185.214844 C 216.636719 176.628906 220.21875 165.121094 229.863281 161.433594 C 235.59375 160.109375 239.671875 155.320312 245.238281 153.671875 C 252.457031 151.964844 260.394531 156.203125 267.285156 152.515625 Z M 177.839844 166.773438 C 175.523438 158.570312 171.613281 150.917969 169.40625 142.714844 C 167.972656 136.605469 167.863281 130.328125 166.597656 124.160156 C 165.878906 118.328125 162.1875 113.59375 160.644531 108.03125 C 159.929688 106.378906 158.714844 97.074219 158.605469 99.882812 C 158.824219 106.488281 161.472656 112.492188 164.226562 118.382812 C 167.039062 126.199219 166.488281 134.675781 168.195312 142.769531 C 169.078125 147.667969 185.222656 190.058594 177.839844 166.773438 Z M 173.429688 191.269531 C 162.351562 175.636719 171.28125 165.066406 160.808594 150.421875 C 158.496094 146.953125 156.785156 142.933594 154.804688 139.578125 C 154.472656 138.859375 154.03125 138.035156 153.757812 137.210938 C 153.148438 138.367188 154.691406 139.90625 155.023438 140.953125 C 158 148.824219 165.328125 155.925781 165.769531 164.902344 C 165.496094 175.359375 166.980469 183.398438 172.769531 192.261719 C 173.816406 193.199219 174.203125 192.261719 173.429688 191.269531 Z M 221.210938 113.480469 C 219.335938 114.199219 224.132812 114.582031 224.738281 114.417969 C 227.328125 114.140625 229.917969 113.425781 231.738281 111.390625 C 232.234375 110.289062 235.59375 108.195312 234.878906 107.589844 C 231.1875 111.335938 226.996094 115.296875 221.210938 113.480469 Z M 155.242188 86.945312 Z M 155.464844 87.167969 Z M 156.457031 88.816406 C 157.339844 89.589844 161.195312 92.726562 161.582031 91.183594 C 160.039062 90.691406 151.605469 84.140625 156.457031 88.816406 Z M 151.71875 82.761719 C 151.660156 82.761719 151.605469 82.816406 151.605469 82.871094 C 151.660156 82.816406 151.71875 82.816406 151.71875 82.761719 Z M 151.71875 82.761719 " fill-opacity="1" fill-rule="nonzero"/></svg>